<?xml version="1.0" encoding="UTF-8" standalone="no"?>
<!DOCTYPE svg PUBLIC "-//W3C//DTD SVG 1.1//EN"
 "http://www.w3.org/Graphics/SVG/1.1/DTD/svg11.dtd">
<!-- Generated by graphviz version 2.26.0 (20091210.2329)
 -->
<!-- Title: _anonymous_0 Pages: 1 -->
<svg width="204pt" height="136pt"
 viewBox="0.00 0.00 204.00 136.00" xmlns="http://www.w3.org/2000/svg" xmlns:xlink="http://www.w3.org/1999/xlink">
<g id="graph1" class="graph" transform="scale(1 1) rotate(0) translate(4 132)">
<title>_anonymous_0</title>
<polygon fill="white" stroke="white" points="-4,5 -4,-132 201,-132 201,5 -4,5"/>
<!-- AdditionalData -->
<g id="node1" class="node"><title>AdditionalData</title>
<a xlink:href="/help/iodefnav?iodef_class=AdditionalData" xlink:title="The AdditionalData class serves as an extension mechanism for information not otherwise represented in the data model. &#160;For relatively simple information, atomic data types (e.g., integers, strings) are provided with a mechanism to annotate their meaning. The class can also be used to extend the data model (and the associated Schema) to support proprietary extensions by encapsulating entire XML documents conforming to another Schema (e.g., IDMEF). &#160;A detailed discussion for extending the data model and the schema can be found in Section 5. ">
<polygon fill="#997a3d" stroke="#997a3d" points="8,-103 8,-124 188,-124 188,-103 8,-103"/>
<polygon fill="none" stroke="black" points="8,-103 8,-124 188,-124 188,-103 8,-103"/>
<text text-anchor="start" x="56" y="-110.233" font-family="Times Roman,serif" font-size="14.00">AdditionalData</text>
</a>
<a xlink:href="/help/iodefnav?iodef_class=AdditionalData" xlink:title="The data type of the element content. &#160;The permitted values for this attribute are shown below. &#160;The default value is &quot;string&quot;.">
<polygon fill="#ffcc66" stroke="#ffcc66" points="8,-83 8,-103 188,-103 188,-83 8,-83"/>
<polygon fill="none" stroke="black" points="8,-83 8,-103 188,-103 188,-83 8,-83"/>
<text text-anchor="start" x="25" y="-89.7333" font-family="Times Roman,serif" font-size="14.00">[ENUM] dtype (Required)</text>
</a>
<a xlink:href="/help/iodefnav?iodef_class=AdditionalData" xlink:title="A free&#45;form description of the element content.">
<polygon fill="#ffcc66" stroke="#ffcc66" points="8,-63 8,-83 188,-83 188,-63 8,-63"/>
<polygon fill="none" stroke="black" points="8,-63 8,-83 188,-83 188,-63 8,-63"/>
<text text-anchor="start" x="13.5" y="-69.7333" font-family="Times Roman,serif" font-size="14.00">[STRING] meaning (Optional)</text>
</a>
<a xlink:href="/help/iodefnav?iodef_class=AdditionalData" xlink:title="A means by which to extend the dtype attribute. &#160;See Section 5.1.">
<polygon fill="#ffcc66" stroke="#ffcc66" points="8,-43 8,-63 188,-63 188,-43 8,-43"/>
<polygon fill="none" stroke="black" points="8,-43 8,-63 188,-63 188,-43 8,-43"/>
<text text-anchor="start" x="11.5" y="-49.7333" font-family="Times Roman,serif" font-size="14.00">[STRING] ext&#45;dtype (Optional)</text>
</a>
<a xlink:href="/help/iodefnav?iodef_class=AdditionalData" xlink:title="An identifier referencing the format and semantics of the element content.">
<polygon fill="#ffcc66" stroke="#ffcc66" points="8,-23 8,-43 188,-43 188,-23 8,-23"/>
<polygon fill="none" stroke="black" points="8,-23 8,-43 188,-43 188,-23 8,-23"/>
<text text-anchor="start" x="13.5" y="-29.7333" font-family="Times Roman,serif" font-size="14.00">[STRING] formatid (Optional)</text>
</a>
<a xlink:href="/help/iodefnav?iodef_class=AdditionalData" xlink:title="This attribute has been defined in Section 3.2.">
<polygon fill="#ffcc66" stroke="#ffcc66" points="8,-3 8,-23 188,-23 188,-3 8,-3"/>
<polygon fill="none" stroke="black" points="8,-3 8,-23 188,-23 188,-3 8,-3"/>
<text text-anchor="start" x="13.5" y="-9.73333" font-family="Times Roman,serif" font-size="14.00">[ENUM] restriction (Optional)</text>
</a>
</g>
</g>
</svg>
