<?xml version="1.0" encoding="UTF-8" standalone="no"?>
<!DOCTYPE svg PUBLIC "-//W3C//DTD SVG 1.1//EN"
 "http://www.w3.org/Graphics/SVG/1.1/DTD/svg11.dtd">
<!-- Generated by graphviz version 2.26.0 (20091210.2329)
 -->
<!-- Title: _anonymous_0 Pages: 1 -->
<svg width="222pt" height="116pt"
 viewBox="0.00 0.00 222.00 116.00" xmlns="http://www.w3.org/2000/svg" xmlns:xlink="http://www.w3.org/1999/xlink">
<g id="graph1" class="graph" transform="scale(1 1) rotate(0) translate(4 112)">
<title>_anonymous_0</title>
<polygon fill="white" stroke="white" points="-4,5 -4,-112 219,-112 219,5 -4,5"/>
<!-- Address -->
<g id="node1" class="node"><title>Address</title>
<a xlink:href="/help/iodefnav?iodef_class=Address" xlink:title="The Address class represents a hardware (layer&#45;2), network (layer&#45;3), or application (layer&#45;7) address. ">
<polygon fill="#182f5f" stroke="#182f5f" points="9,-83 9,-104 206,-104 206,-83 9,-83"/>
<polygon fill="none" stroke="black" points="9,-83 9,-104 206,-104 206,-83 9,-83"/>
<text text-anchor="start" x="85" y="-90.2333" font-family="Times Roman,serif" font-size="14.00">Address</text>
</a>
<a xlink:href="/help/iodefnav?iodef_class=Address" xlink:title="The type of address represented. &#160;The permitted values for this attribute are shown below. &#160;The default value is &quot;ipv4&#45;addr&quot;.">
<polygon fill="#284f9f" stroke="#284f9f" points="9,-63 9,-83 206,-83 206,-63 9,-63"/>
<polygon fill="none" stroke="black" points="9,-63 9,-83 206,-83 206,-63 9,-63"/>
<text text-anchor="start" x="26" y="-69.7333" font-family="Times Roman,serif" font-size="14.00">[ENUM] category (Required)</text>
</a>
<a xlink:href="/help/iodefnav?iodef_class=Address" xlink:title="The name of the Virtual LAN to which the address belongs.">
<polygon fill="#284f9f" stroke="#284f9f" points="9,-43 9,-63 206,-63 206,-43 9,-43"/>
<polygon fill="none" stroke="black" points="9,-43 9,-63 206,-63 206,-43 9,-43"/>
<text text-anchor="start" x="17.5" y="-49.7333" font-family="Times Roman,serif" font-size="14.00">[STRING] vlan&#45;name (Optional)</text>
</a>
<a xlink:href="/help/iodefnav?iodef_class=Address" xlink:title="A means by which to extend the category attribute. &#160;See Section 5.1.">
<polygon fill="#284f9f" stroke="#284f9f" points="9,-23 9,-43 206,-43 206,-23 9,-23"/>
<polygon fill="none" stroke="black" points="9,-23 9,-43 206,-43 206,-23 9,-23"/>
<text text-anchor="start" x="12.5" y="-29.7333" font-family="Times Roman,serif" font-size="14.00">[STRING] ext&#45;category (Optional)</text>
</a>
<a xlink:href="/help/iodefnav?iodef_class=Address" xlink:title="The number of the Virtual LAN to which the address belongs.">
<polygon fill="#284f9f" stroke="#284f9f" points="9,-3 9,-23 206,-23 206,-3 9,-3"/>
<polygon fill="none" stroke="black" points="9,-3 9,-23 206,-23 206,-3 9,-3"/>
<text text-anchor="start" x="20" y="-9.73333" font-family="Times Roman,serif" font-size="14.00">[STRING] vlan&#45;num (Optional)</text>
</a>
</g>
</g>
</svg>
