<?xml version="1.0" encoding="UTF-8" standalone="no"?>
<!DOCTYPE svg PUBLIC "-//W3C//DTD SVG 1.1//EN"
 "http://www.w3.org/Graphics/SVG/1.1/DTD/svg11.dtd">
<!-- Generated by graphviz version 2.26.0 (20091210.2329)
 -->
<!-- Title: _anonymous_0 Pages: 1 -->
<svg width="474pt" height="706pt"
 viewBox="0.00 0.00 474.00 706.00" xmlns="http://www.w3.org/2000/svg" xmlns:xlink="http://www.w3.org/1999/xlink">
<g id="graph1" class="graph" transform="scale(1 1) rotate(0) translate(4 702)">
<title>_anonymous_0</title>
<polygon fill="white" stroke="white" points="-4,5 -4,-702 471,-702 471,5 -4,5"/>
<!-- Impact -->
<g id="node1" class="node"><title>Impact</title>
<a xlink:href="/help/iodefnav?iodef_class=Impact" xlink:title="The Impact class allows for categorizing and describing the technical impact of the incident on the network of an organization. ">
<polygon fill="#993015" stroke="#993015" points="269,-673 269,-694 451,-694 451,-673 269,-673"/>
<polygon fill="none" stroke="black" points="269,-673 269,-694 451,-694 451,-673 269,-673"/>
<text text-anchor="start" x="340.5" y="-680.233" font-family="Times Roman,serif" font-size="14.00">Impact</text>
</a>
<a xlink:href="/help/iodefnav?iodef_class=Impact" xlink:title="A valid language code per RFC 4646 [7] constrained by the definition of &quot;xs:language&quot;. &#160;The interpretation of this code is described in Section 6.">
<polygon fill="#ff5024" stroke="#ff5024" points="269,-653 269,-673 451,-673 451,-653 269,-653"/>
<polygon fill="none" stroke="black" points="269,-653 269,-673 451,-673 451,-653 269,-653"/>
<text text-anchor="start" x="290.5" y="-659.733" font-family="Times Roman,serif" font-size="14.00">[ENUM] lang (Required)</text>
</a>
<a xlink:href="/help/iodefnav?iodef_class=Impact" xlink:title="An indication whether the described activity was successful. &#160;The permitted values are shown below. &#160;There is no default value.">
<polygon fill="#ff5024" stroke="#ff5024" points="269,-633 269,-653 451,-653 451,-633 269,-633"/>
<polygon fill="none" stroke="black" points="269,-633 269,-653 451,-653 451,-633 269,-633"/>
<text text-anchor="start" x="272.5" y="-639.733" font-family="Times Roman,serif" font-size="14.00">[ENUM] completion (Optional)</text>
</a>
<a xlink:href="/help/iodefnav?iodef_class=Impact" xlink:title="Classifies the malicious activity into incident categories. &#160;The permitted values are shown below. &#160;The default value is &quot;other&quot;.">
<polygon fill="#ff5024" stroke="#ff5024" points="269,-613 269,-633 451,-633 451,-613 269,-613"/>
<polygon fill="none" stroke="black" points="269,-613 269,-633 451,-633 451,-613 269,-613"/>
<text text-anchor="start" x="290.5" y="-619.733" font-family="Times Roman,serif" font-size="14.00">[ENUM] type (Required)</text>
</a>
<a xlink:href="/help/iodefnav?iodef_class=Impact" xlink:title="An estimate of the relative severity of the activity. &#160;The permitted values are shown below. &#160;There is no default value.">
<polygon fill="#ff5024" stroke="#ff5024" points="269,-593 269,-613 451,-613 451,-593 269,-593"/>
<polygon fill="none" stroke="black" points="269,-593 269,-613 451,-613 451,-593 269,-593"/>
<text text-anchor="start" x="281.5" y="-599.733" font-family="Times Roman,serif" font-size="14.00">[ENUM] severity (Optional)</text>
</a>
<a xlink:href="/help/iodefnav?iodef_class=Impact" xlink:title="A means by which to extend the type attribute. See Section 5.1.">
<polygon fill="#ff5024" stroke="#ff5024" points="269,-573 269,-593 451,-593 451,-573 269,-573"/>
<polygon fill="none" stroke="black" points="269,-573 269,-593 451,-593 451,-573 269,-573"/>
<text text-anchor="start" x="277" y="-579.733" font-family="Times Roman,serif" font-size="14.00">[STRING] ext&#45;type (Optional)</text>
</a>
</g>
<!-- Assessment -->
<g id="node2" class="node"><title>Assessment</title>
<a xlink:href="/help/iodefnav?iodef_class=Assessment" xlink:title="The Assessment class describes the technical and non&#45;technical repercussions of the incident on the CSIRT&#39;s constituency. ">
<polygon fill="#993015" stroke="#993015" points="8,-338 8,-359 188,-359 188,-338 8,-338"/>
<polygon fill="none" stroke="black" points="8,-338 8,-359 188,-359 188,-338 8,-338"/>
<text text-anchor="start" x="65.5" y="-345.233" font-family="Times Roman,serif" font-size="14.00">Assessment</text>
</a>
<a xlink:href="/help/iodefnav?iodef_class=Assessment" xlink:title="This attribute is defined in Section 3.2.">
<polygon fill="#ff5024" stroke="#ff5024" points="8,-318 8,-338 188,-338 188,-318 8,-318"/>
<polygon fill="none" stroke="black" points="8,-318 8,-338 188,-338 188,-318 8,-318"/>
<text text-anchor="start" x="13.5" y="-324.733" font-family="Times Roman,serif" font-size="14.00">[ENUM] restriction (Optional)</text>
</a>
<a xlink:href="/help/iodefnav?iodef_class=Assessment" xlink:title="Specifies whether the assessment is describing actual or potential outcomes. &#160;The default is &quot;actual&quot; and is assumed if not specified.">
<polygon fill="#ff5024" stroke="#ff5024" points="8,-298 8,-318 188,-318 188,-298 8,-298"/>
<polygon fill="none" stroke="black" points="8,-298 8,-318 188,-318 188,-298 8,-298"/>
<text text-anchor="start" x="11.5" y="-304.733" font-family="Times Roman,serif" font-size="14.00">[ENUM] occurrence (Optional)</text>
</a>
</g>
<!-- Assessment&#45;&#45;Impact -->
<g id="edge2" class="edge"><title>Assessment&#45;&#45;Impact</title>
<path fill="none" stroke="black" d="M115.702,-363.38C141.561,-411.404 193.25,-499.571 254,-561 254.653,-561.66 255.313,-562.318 255.979,-562.974"/>
<polygon fill="black" stroke="black" points="253.662,-565.6 263.341,-569.908 258.461,-560.504 253.662,-565.6"/>
<text text-anchor="middle" x="225" y="-544.4" font-family="Times Roman,serif" font-size="14.00">0..*</text>
</g>
<!-- AdditionalData -->
<g id="node4" class="node"><title>AdditionalData</title>
<a xlink:href="/help/iodefnav?iodef_class=AdditionalData" xlink:title="The AdditionalData class serves as an extension mechanism for information not otherwise represented in the data model. &#160;For relatively simple information, atomic data types (e.g., integers, strings) are provided with a mechanism to annotate their meaning. The class can also be used to extend the data model (and the associated Schema) to support proprietary extensions by encapsulating entire XML documents conforming to another Schema (e.g., IDMEF). &#160;A detailed discussion for extending the data model and the schema can be found in Section 5. ">
<polygon fill="#997a3d" stroke="#997a3d" points="270,-527 270,-548 450,-548 450,-527 270,-527"/>
<polygon fill="none" stroke="black" points="270,-527 270,-548 450,-548 450,-527 270,-527"/>
<text text-anchor="start" x="318" y="-534.233" font-family="Times Roman,serif" font-size="14.00">AdditionalData</text>
</a>
<a xlink:href="/help/iodefnav?iodef_class=AdditionalData" xlink:title="The data type of the element content. &#160;The permitted values for this attribute are shown below. &#160;The default value is &quot;string&quot;.">
<polygon fill="#ffcc66" stroke="#ffcc66" points="270,-507 270,-527 450,-527 450,-507 270,-507"/>
<polygon fill="none" stroke="black" points="270,-507 270,-527 450,-527 450,-507 270,-507"/>
<text text-anchor="start" x="287" y="-513.733" font-family="Times Roman,serif" font-size="14.00">[ENUM] dtype (Required)</text>
</a>
<a xlink:href="/help/iodefnav?iodef_class=AdditionalData" xlink:title="A free&#45;form description of the element content.">
<polygon fill="#ffcc66" stroke="#ffcc66" points="270,-487 270,-507 450,-507 450,-487 270,-487"/>
<polygon fill="none" stroke="black" points="270,-487 270,-507 450,-507 450,-487 270,-487"/>
<text text-anchor="start" x="275.5" y="-493.733" font-family="Times Roman,serif" font-size="14.00">[STRING] meaning (Optional)</text>
</a>
<a xlink:href="/help/iodefnav?iodef_class=AdditionalData" xlink:title="A means by which to extend the dtype attribute. &#160;See Section 5.1.">
<polygon fill="#ffcc66" stroke="#ffcc66" points="270,-467 270,-487 450,-487 450,-467 270,-467"/>
<polygon fill="none" stroke="black" points="270,-467 270,-487 450,-487 450,-467 270,-467"/>
<text text-anchor="start" x="273.5" y="-473.733" font-family="Times Roman,serif" font-size="14.00">[STRING] ext&#45;dtype (Optional)</text>
</a>
<a xlink:href="/help/iodefnav?iodef_class=AdditionalData" xlink:title="An identifier referencing the format and semantics of the element content.">
<polygon fill="#ffcc66" stroke="#ffcc66" points="270,-447 270,-467 450,-467 450,-447 270,-447"/>
<polygon fill="none" stroke="black" points="270,-447 270,-467 450,-467 450,-447 270,-447"/>
<text text-anchor="start" x="275.5" y="-453.733" font-family="Times Roman,serif" font-size="14.00">[STRING] formatid (Optional)</text>
</a>
<a xlink:href="/help/iodefnav?iodef_class=AdditionalData" xlink:title="This attribute has been defined in Section 3.2.">
<polygon fill="#ffcc66" stroke="#ffcc66" points="270,-427 270,-447 450,-447 450,-427 270,-427"/>
<polygon fill="none" stroke="black" points="270,-427 270,-447 450,-447 450,-427 270,-427"/>
<text text-anchor="start" x="275.5" y="-433.733" font-family="Times Roman,serif" font-size="14.00">[ENUM] restriction (Optional)</text>
</a>
</g>
<!-- Assessment&#45;&#45;AdditionalData -->
<g id="edge4" class="edge"><title>Assessment&#45;&#45;AdditionalData</title>
<path fill="none" stroke="black" d="M154.206,-363.109C183.106,-380.649 219.311,-402.62 253.263,-423.224"/>
<polygon fill="black" stroke="black" points="251.476,-426.234 261.84,-428.43 255.107,-420.25 251.476,-426.234"/>
<text text-anchor="middle" x="225" y="-414.4" font-family="Times Roman,serif" font-size="14.00">0..*</text>
</g>
<!-- Confidence -->
<g id="node6" class="node"><title>Confidence</title>
<a xlink:href="/help/iodefnav?iodef_class=Confidence" xlink:title="The Confidence class represents a best estimate of the validity and accuracy of the described impact (see Section 3.10) of the incident activity. &#160;This estimate can be expressed as a category or a numeric calculation. ">
<polygon fill="#993015" stroke="#993015" points="283,-381 283,-402 438,-402 438,-381 283,-381"/>
<polygon fill="none" stroke="black" points="283,-381 283,-402 438,-402 438,-381 283,-381"/>
<text text-anchor="start" x="329" y="-388.233" font-family="Times Roman,serif" font-size="14.00">Confidence</text>
</a>
<a xlink:href="/help/iodefnav?iodef_class=Confidence" xlink:title="A rating of the analytical validity of the specified Assessment. &#160;The permitted values are shown below. There is no default value.">
<polygon fill="#ff5024" stroke="#ff5024" points="283,-361 283,-381 438,-381 438,-361 283,-361"/>
<polygon fill="none" stroke="black" points="283,-361 283,-381 438,-381 438,-361 283,-361"/>
<text text-anchor="start" x="286.5" y="-367.733" font-family="Times Roman,serif" font-size="14.00">[ENUM] rating (Required)</text>
</a>
</g>
<!-- Assessment&#45;&#45;Confidence -->
<g id="edge6" class="edge"><title>Assessment&#45;&#45;Confidence</title>
<path fill="none" stroke="black" d="M196.305,-348.886C218.592,-353.395 242.228,-358.176 264.402,-362.661"/>
<polygon fill="black" stroke="black" points="263.981,-366.147 274.476,-364.699 265.369,-359.286 263.981,-366.147"/>
<text text-anchor="middle" x="225" y="-361.4" font-family="Times Roman,serif" font-size="14.00">0..1</text>
</g>
<!-- TimeImpact -->
<g id="node8" class="node"><title>TimeImpact</title>
<a xlink:href="/help/iodefnav?iodef_class=TimeImpact" xlink:title="The TimeImpact class describes the impact of the incident on an organization as a function of time. &#160;It provides a way to convey down time and recovery time. ">
<polygon fill="#993015" stroke="#993015" points="263,-315 263,-336 458,-336 458,-315 263,-315"/>
<polygon fill="none" stroke="black" points="263,-315 263,-336 458,-336 458,-315 263,-315"/>
<text text-anchor="start" x="326.5" y="-322.233" font-family="Times Roman,serif" font-size="14.00">TimeImpact</text>
</a>
<a xlink:href="/help/iodefnav?iodef_class=TimeImpact" xlink:title="A means by which to extend the metric attribute. &#160;See Section 5.1.">
<polygon fill="#ff5024" stroke="#ff5024" points="263,-295 263,-315 458,-315 458,-295 263,-295"/>
<polygon fill="none" stroke="black" points="263,-295 263,-315 458,-315 458,-295 263,-295"/>
<text text-anchor="start" x="271.5" y="-301.733" font-family="Times Roman,serif" font-size="14.00">[STRING] ext&#45;metric (Optional)</text>
</a>
<a xlink:href="/help/iodefnav?iodef_class=TimeImpact" xlink:title="Defines a unit of time, that when combined with the metric attribute, fully describes a metric of impact that will be conveyed in the element content. &#160;The permitted values are shown below. &#160;The default value is &quot;hour&quot;.">
<polygon fill="#ff5024" stroke="#ff5024" points="263,-275 263,-295 458,-295 458,-275 263,-275"/>
<polygon fill="none" stroke="black" points="263,-275 263,-295 458,-295 458,-275 263,-275"/>
<text text-anchor="start" x="280" y="-281.733" font-family="Times Roman,serif" font-size="14.00">[ENUM] duration (Required)</text>
</a>
<a xlink:href="/help/iodefnav?iodef_class=TimeImpact" xlink:title="Defines the metric in which the time is expressed. &#160;The permitted values are shown below. &#160;There is no default value.">
<polygon fill="#ff5024" stroke="#ff5024" points="263,-255 263,-275 458,-275 458,-255 263,-255"/>
<polygon fill="none" stroke="black" points="263,-255 263,-275 458,-275 458,-255 263,-255"/>
<text text-anchor="start" x="285" y="-261.733" font-family="Times Roman,serif" font-size="14.00">[ENUM] metric (Required)</text>
</a>
<a xlink:href="/help/iodefnav?iodef_class=TimeImpact" xlink:title="An estimate of the relative severity of the activity. &#160;The permitted values are shown below. &#160;There is no default value.">
<polygon fill="#ff5024" stroke="#ff5024" points="263,-235 263,-255 458,-255 458,-235 263,-235"/>
<polygon fill="none" stroke="black" points="263,-235 263,-255 458,-255 458,-235 263,-235"/>
<text text-anchor="start" x="282" y="-241.733" font-family="Times Roman,serif" font-size="14.00">[ENUM] severity (Optional)</text>
</a>
<a xlink:href="/help/iodefnav?iodef_class=TimeImpact" xlink:title="A means by which to extend the duration attribute. &#160;See Section 5.1.">
<polygon fill="#ff5024" stroke="#ff5024" points="263,-215 263,-235 458,-235 458,-215 263,-215"/>
<polygon fill="none" stroke="black" points="263,-215 263,-235 458,-235 458,-215 263,-215"/>
<text text-anchor="start" x="266.5" y="-221.733" font-family="Times Roman,serif" font-size="14.00">[STRING] ext&#45;duration (Optional)</text>
</a>
</g>
<!-- Assessment&#45;&#45;TimeImpact -->
<g id="edge8" class="edge"><title>Assessment&#45;&#45;TimeImpact</title>
<path fill="none" stroke="black" d="M196.305,-309.114C211.936,-305.952 228.232,-302.655 244.221,-299.421"/>
<polygon fill="black" stroke="black" points="245.02,-302.83 254.128,-297.417 243.632,-295.969 245.02,-302.83"/>
<text text-anchor="middle" x="225" y="-310.4" font-family="Times Roman,serif" font-size="14.00">0..*</text>
</g>
<!-- MonetaryImpact -->
<g id="node10" class="node"><title>MonetaryImpact</title>
<a xlink:href="/help/iodefnav?iodef_class=MonetaryImpact" xlink:title="The MonetaryImpact class describes the financial impact of the activity on an organization. &#160;For example, this impact may consider losses due to the cost of the investigation or recovery, diminished ">
<polygon fill="#993015" stroke="#993015" points="271,-169 271,-190 450,-190 450,-169 271,-169"/>
<polygon fill="none" stroke="black" points="271,-169 271,-190 450,-190 450,-169 271,-169"/>
<text text-anchor="start" x="314.5" y="-176.233" font-family="Times Roman,serif" font-size="14.00">MonetaryImpact</text>
</a>
<a xlink:href="/help/iodefnav?iodef_class=MonetaryImpact" xlink:title="Defines the currency in which the monetary impact is expressed. &#160;The permitted values are defined in ISO 4217:2001, Codes for the representation of currencies and funds [14]. &#160;There is no default value.">
<polygon fill="#ff5024" stroke="#ff5024" points="271,-149 271,-169 450,-169 450,-149 271,-149"/>
<polygon fill="none" stroke="black" points="271,-149 271,-169 450,-169 450,-149 271,-149"/>
<text text-anchor="start" x="274.5" y="-155.733" font-family="Times Roman,serif" font-size="14.00">[STRING] currency (Required)</text>
</a>
<a xlink:href="/help/iodefnav?iodef_class=MonetaryImpact" xlink:title="An estimate of the relative severity of the activity. &#160;The permitted values are shown below. &#160;There is no default value.">
<polygon fill="#ff5024" stroke="#ff5024" points="271,-129 271,-149 450,-149 450,-129 271,-129"/>
<polygon fill="none" stroke="black" points="271,-129 271,-149 450,-149 450,-129 271,-129"/>
<text text-anchor="start" x="282" y="-135.733" font-family="Times Roman,serif" font-size="14.00">[ENUM] severity (Optional)</text>
</a>
</g>
<!-- Assessment&#45;&#45;MonetaryImpact -->
<g id="edge10" class="edge"><title>Assessment&#45;&#45;MonetaryImpact</title>
<path fill="none" stroke="black" d="M133.858,-294.888C164.098,-267.437 209.456,-229.242 254,-203 256.486,-201.535 259.032,-200.098 261.622,-198.69"/>
<polygon fill="black" stroke="black" points="263.331,-201.747 270.579,-194.019 260.094,-195.54 263.331,-201.747"/>
<text text-anchor="middle" x="225" y="-232.4" font-family="Times Roman,serif" font-size="14.00">0..*</text>
</g>
<!-- Counter -->
<g id="node12" class="node"><title>Counter</title>
<a xlink:href="/help/iodefnav?iodef_class=Counter" xlink:title="The Counter class summarize multiple occurrences of some event, or conveys counts or rates on various features (e.g., packets, sessions, events). ">
<polygon fill="#993015" stroke="#993015" points="263,-83 263,-104 458,-104 458,-83 263,-83"/>
<polygon fill="none" stroke="black" points="263,-83 263,-104 458,-104 458,-83 263,-83"/>
<text text-anchor="start" x="338.5" y="-90.2333" font-family="Times Roman,serif" font-size="14.00">Counter</text>
</a>
<a xlink:href="/help/iodefnav?iodef_class=Counter" xlink:title="If present, the Counter class represents a rate rather than a count over the entire event. &#160;In that case, this attribute specifies the denominator of the rate (where the type attribute specified the nominator). &#160;The possible values of this attribute are defined in Section 3.10.2">
<polygon fill="#ff5024" stroke="#ff5024" points="263,-63 263,-83 458,-83 458,-63 263,-63"/>
<polygon fill="none" stroke="black" points="263,-63 263,-83 458,-83 458,-63 263,-63"/>
<text text-anchor="start" x="281" y="-69.7333" font-family="Times Roman,serif" font-size="14.00">[ENUM] duration (Optional)</text>
</a>
<a xlink:href="/help/iodefnav?iodef_class=Counter" xlink:title="Specifies the units of the element content.">
<polygon fill="#ff5024" stroke="#ff5024" points="263,-43 263,-63 458,-63 458,-43 263,-43"/>
<polygon fill="none" stroke="black" points="263,-43 263,-63 458,-63 458,-43 263,-43"/>
<text text-anchor="start" x="291" y="-49.7333" font-family="Times Roman,serif" font-size="14.00">[ENUM] type (Required)</text>
</a>
<a xlink:href="/help/iodefnav?iodef_class=Counter" xlink:title="A means by which to extend the type attribute. See Section 5.1.">
<polygon fill="#ff5024" stroke="#ff5024" points="263,-23 263,-43 458,-43 458,-23 263,-23"/>
<polygon fill="none" stroke="black" points="263,-23 263,-43 458,-43 458,-23 263,-23"/>
<text text-anchor="start" x="277.5" y="-29.7333" font-family="Times Roman,serif" font-size="14.00">[STRING] ext&#45;type (Optional)</text>
</a>
<a xlink:href="/help/iodefnav?iodef_class=Counter" xlink:title="A means by which to extend the duration attribute. &#160;See Section 5.1.">
<polygon fill="#ff5024" stroke="#ff5024" points="263,-3 263,-23 458,-23 458,-3 263,-3"/>
<polygon fill="none" stroke="black" points="263,-3 263,-23 458,-23 458,-3 263,-3"/>
<text text-anchor="start" x="266.5" y="-9.73333" font-family="Times Roman,serif" font-size="14.00">[STRING] ext&#45;duration (Optional)</text>
</a>
</g>
<!-- Assessment&#45;&#45;Counter -->
<g id="edge12" class="edge"><title>Assessment&#45;&#45;Counter</title>
<path fill="none" stroke="black" d="M117.174,-294.889C143.606,-250.053 194.748,-170.705 254,-117 254.833,-116.245 255.676,-115.495 256.529,-114.749"/>
<polygon fill="black" stroke="black" points="258.994,-117.251 264.444,-108.165 254.517,-111.87 258.994,-117.251"/>
<text text-anchor="middle" x="225" y="-158.4" font-family="Times Roman,serif" font-size="14.00">0..*</text>
</g>
</g>
</svg>
