<?xml version="1.0" encoding="UTF-8" standalone="no"?>
<!DOCTYPE svg PUBLIC "-//W3C//DTD SVG 1.1//EN"
 "http://www.w3.org/Graphics/SVG/1.1/DTD/svg11.dtd">
<!-- Generated by graphviz version 2.26.0 (20091210.2329)
 -->
<!-- Title: _anonymous_0 Pages: 1 -->
<svg width="180pt" height="56pt"
 viewBox="0.00 0.00 180.00 56.00" xmlns="http://www.w3.org/2000/svg" xmlns:xlink="http://www.w3.org/1999/xlink">
<g id="graph1" class="graph" transform="scale(1 1) rotate(0) translate(4 52)">
<title>_anonymous_0</title>
<polygon fill="white" stroke="white" points="-4,5 -4,-52 177,-52 177,5 -4,5"/>
<!-- Confidence -->
<g id="node1" class="node"><title>Confidence</title>
<a xlink:href="/help/iodefnav?iodef_class=Confidence" xlink:title="The Confidence class represents a best estimate of the validity and accuracy of the described impact (see Section 3.10) of the incident activity. &#160;This estimate can be expressed as a category or a numeric calculation. ">
<polygon fill="#993015" stroke="#993015" points="9,-23 9,-44 164,-44 164,-23 9,-23"/>
<polygon fill="none" stroke="black" points="9,-23 9,-44 164,-44 164,-23 9,-23"/>
<text text-anchor="start" x="55" y="-30.2333" font-family="Times Roman,serif" font-size="14.00">Confidence</text>
</a>
<a xlink:href="/help/iodefnav?iodef_class=Confidence" xlink:title="A rating of the analytical validity of the specified Assessment. &#160;The permitted values are shown below. There is no default value.">
<polygon fill="#ff5024" stroke="#ff5024" points="9,-3 9,-23 164,-23 164,-3 9,-3"/>
<polygon fill="none" stroke="black" points="9,-3 9,-23 164,-23 164,-3 9,-3"/>
<text text-anchor="start" x="12.5" y="-9.73333" font-family="Times Roman,serif" font-size="14.00">[ENUM] rating (Required)</text>
</a>
</g>
</g>
</svg>
