<?xml version="1.0" encoding="UTF-8" standalone="no"?>
<!DOCTYPE svg PUBLIC "-//W3C//DTD SVG 1.1//EN"
 "http://www.w3.org/Graphics/SVG/1.1/DTD/svg11.dtd">
<!-- Generated by graphviz version 2.26.0 (20091210.2329)
 -->
<!-- Title: _anonymous_0 Pages: 1 -->
<svg width="496pt" height="374pt"
 viewBox="0.00 0.00 496.00 374.00" xmlns="http://www.w3.org/2000/svg" xmlns:xlink="http://www.w3.org/1999/xlink">
<g id="graph1" class="graph" transform="scale(1 1) rotate(0) translate(4 370)">
<title>_anonymous_0</title>
<polygon fill="white" stroke="white" points="-4,5 -4,-370 493,-370 493,5 -4,5"/>
<!-- AdditionalData -->
<g id="node1" class="node"><title>AdditionalData</title>
<a xlink:href="/help/iodefnav?iodef_class=AdditionalData" xlink:title="The AdditionalData class serves as an extension mechanism for information not otherwise represented in the data model. &#160;For relatively simple information, atomic data types (e.g., integers, strings) are provided with a mechanism to annotate their meaning. The class can also be used to extend the data model (and the associated Schema) to support proprietary extensions by encapsulating entire XML documents conforming to another Schema (e.g., IDMEF). &#160;A detailed discussion for extending the data model and the schema can be found in Section 5. ">
<polygon fill="#997a3d" stroke="#997a3d" points="294,-341 294,-362 474,-362 474,-341 294,-341"/>
<polygon fill="none" stroke="black" points="294,-341 294,-362 474,-362 474,-341 294,-341"/>
<text text-anchor="start" x="342" y="-348.233" font-family="Times Roman,serif" font-size="14.00">AdditionalData</text>
</a>
<a xlink:href="/help/iodefnav?iodef_class=AdditionalData" xlink:title="The data type of the element content. &#160;The permitted values for this attribute are shown below. &#160;The default value is &quot;string&quot;.">
<polygon fill="#ffcc66" stroke="#ffcc66" points="294,-321 294,-341 474,-341 474,-321 294,-321"/>
<polygon fill="none" stroke="black" points="294,-321 294,-341 474,-341 474,-321 294,-321"/>
<text text-anchor="start" x="311" y="-327.733" font-family="Times Roman,serif" font-size="14.00">[ENUM] dtype (Required)</text>
</a>
<a xlink:href="/help/iodefnav?iodef_class=AdditionalData" xlink:title="A free&#45;form description of the element content.">
<polygon fill="#ffcc66" stroke="#ffcc66" points="294,-301 294,-321 474,-321 474,-301 294,-301"/>
<polygon fill="none" stroke="black" points="294,-301 294,-321 474,-321 474,-301 294,-301"/>
<text text-anchor="start" x="299.5" y="-307.733" font-family="Times Roman,serif" font-size="14.00">[STRING] meaning (Optional)</text>
</a>
<a xlink:href="/help/iodefnav?iodef_class=AdditionalData" xlink:title="A means by which to extend the dtype attribute. &#160;See Section 5.1.">
<polygon fill="#ffcc66" stroke="#ffcc66" points="294,-281 294,-301 474,-301 474,-281 294,-281"/>
<polygon fill="none" stroke="black" points="294,-281 294,-301 474,-301 474,-281 294,-281"/>
<text text-anchor="start" x="297.5" y="-287.733" font-family="Times Roman,serif" font-size="14.00">[STRING] ext&#45;dtype (Optional)</text>
</a>
<a xlink:href="/help/iodefnav?iodef_class=AdditionalData" xlink:title="An identifier referencing the format and semantics of the element content.">
<polygon fill="#ffcc66" stroke="#ffcc66" points="294,-261 294,-281 474,-281 474,-261 294,-261"/>
<polygon fill="none" stroke="black" points="294,-261 294,-281 474,-281 474,-261 294,-261"/>
<text text-anchor="start" x="299.5" y="-267.733" font-family="Times Roman,serif" font-size="14.00">[STRING] formatid (Optional)</text>
</a>
<a xlink:href="/help/iodefnav?iodef_class=AdditionalData" xlink:title="This attribute has been defined in Section 3.2.">
<polygon fill="#ffcc66" stroke="#ffcc66" points="294,-241 294,-261 474,-261 474,-241 294,-241"/>
<polygon fill="none" stroke="black" points="294,-241 294,-261 474,-261 474,-241 294,-241"/>
<text text-anchor="start" x="299.5" y="-247.733" font-family="Times Roman,serif" font-size="14.00">[ENUM] restriction (Optional)</text>
</a>
</g>
<!-- Contact -->
<g id="node2" class="node"><title>Contact</title>
<a xlink:href="/help/iodefnav?iodef_class=Contact" xlink:title="The Contact class describes contact information for organizations and personnel involved in the incident. &#160;This class allows for the naming of the involved party, specifying contact information for them, and identifying their role in the incident. ">
<polygon fill="#7a993d" stroke="#7a993d" points="8,-247 8,-268 214,-268 214,-247 8,-247"/>
<polygon fill="none" stroke="black" points="8,-247 8,-268 214,-268 214,-247 8,-247"/>
<text text-anchor="start" x="89.5" y="-254.233" font-family="Times Roman,serif" font-size="14.00">Contact</text>
</a>
<a xlink:href="/help/iodefnav?iodef_class=Contact" xlink:title="The facsimile telephone number of the contact.">
<polygon fill="#ccff66" stroke="#ccff66" points="8,-227 8,-247 214,-247 214,-227 8,-227"/>
<polygon fill="none" stroke="black" points="8,-227 8,-247 214,-247 214,-227 8,-227"/>
<text text-anchor="start" x="62.5" y="-233.733" font-family="Times Roman,serif" font-size="14.00">[None] Fax (0..1)</text>
</a>
<a xlink:href="/help/iodefnav?iodef_class=Contact" xlink:title="A free&#45;form description of this contact. &#160;In the case of a person, this is often the organizational title of the individual.">
<polygon fill="#ccff66" stroke="#ccff66" points="8,-207 8,-227 214,-227 214,-207 8,-207"/>
<polygon fill="none" stroke="black" points="8,-207 8,-227 214,-227 214,-207 8,-207"/>
<text text-anchor="start" x="17.5" y="-213.733" font-family="Times Roman,serif" font-size="14.00">[ML_STRING] Description (0..*)</text>
</a>
<a xlink:href="/help/iodefnav?iodef_class=Contact" xlink:title="The telephone number of the contact.">
<polygon fill="#ccff66" stroke="#ccff66" points="8,-187 8,-207 214,-207 214,-187 8,-187"/>
<polygon fill="none" stroke="black" points="8,-187 8,-207 214,-207 214,-187 8,-187"/>
<text text-anchor="start" x="44.5" y="-193.733" font-family="Times Roman,serif" font-size="14.00">[None] Telephone (0..*)</text>
</a>
<a xlink:href="/help/iodefnav?iodef_class=Contact" xlink:title="The name of the contact. &#160;The contact may either be an organization or a person. &#160;The type attribute disambiguates the semantics.">
<polygon fill="#ccff66" stroke="#ccff66" points="8,-167 8,-187 214,-187 214,-167 8,-167"/>
<polygon fill="none" stroke="black" points="8,-167 8,-187 214,-187 214,-167 8,-167"/>
<text text-anchor="start" x="11.5" y="-173.733" font-family="Times Roman,serif" font-size="14.00">[ML_STRING] ContactName (0..1)</text>
</a>
<a xlink:href="/help/iodefnav?iodef_class=Contact" xlink:title="The timezone in which the contact resides formatted according to Section 2.9.">
<polygon fill="#ccff66" stroke="#ccff66" points="8,-147 8,-167 214,-167 214,-147 8,-147"/>
<polygon fill="none" stroke="black" points="8,-147 8,-167 214,-167 214,-147 8,-147"/>
<text text-anchor="start" x="25" y="-153.733" font-family="Times Roman,serif" font-size="14.00">[TIMEZONE] Timezone (0..1)</text>
</a>
<a xlink:href="/help/iodefnav?iodef_class=Contact" xlink:title="Indicates the role the contact fulfills. &#160;This attribute is defined as an enumerated list:">
<polygon fill="#ccff66" stroke="#ccff66" points="8,-127 8,-147 214,-147 214,-127 8,-127"/>
<polygon fill="none" stroke="black" points="8,-127 8,-147 214,-147 214,-127 8,-127"/>
<text text-anchor="start" x="42.5" y="-133.733" font-family="Times Roman,serif" font-size="14.00">[ENUM] role (Required)</text>
</a>
<a xlink:href="/help/iodefnav?iodef_class=Contact" xlink:title="Indicates the type of contact being described. This attribute is defined as an enumerated list:">
<polygon fill="#ccff66" stroke="#ccff66" points="8,-107 8,-127 214,-127 214,-107 8,-107"/>
<polygon fill="none" stroke="black" points="8,-107 8,-127 214,-127 214,-107 8,-107"/>
<text text-anchor="start" x="41.5" y="-113.733" font-family="Times Roman,serif" font-size="14.00">[ENUM] type (Required)</text>
</a>
<a xlink:href="/help/iodefnav?iodef_class=Contact" xlink:title="A means by which to extend the role attribute. See Section 5.1.">
<polygon fill="#ccff66" stroke="#ccff66" points="8,-87 8,-107 214,-107 214,-87 8,-87"/>
<polygon fill="none" stroke="black" points="8,-87 8,-107 214,-107 214,-87 8,-87"/>
<text text-anchor="start" x="29" y="-93.7333" font-family="Times Roman,serif" font-size="14.00">[STRING] ext&#45;role (Optional)</text>
</a>
<a xlink:href="/help/iodefnav?iodef_class=Contact" xlink:title="A means by which to extend the type attribute. See Section 5.1.">
<polygon fill="#ccff66" stroke="#ccff66" points="8,-67 8,-87 214,-87 214,-67 8,-67"/>
<polygon fill="none" stroke="black" points="8,-67 8,-87 214,-87 214,-67 8,-67"/>
<text text-anchor="start" x="28" y="-73.7333" font-family="Times Roman,serif" font-size="14.00">[STRING] ext&#45;type (Optional)</text>
</a>
<a xlink:href="/help/iodefnav?iodef_class=Contact" xlink:title="This attribute is defined in Section 3.2.">
<polygon fill="#ccff66" stroke="#ccff66" points="8,-47 8,-67 214,-67 214,-47 8,-47"/>
<polygon fill="none" stroke="black" points="8,-47 8,-67 214,-67 214,-47 8,-47"/>
<text text-anchor="start" x="26.5" y="-53.7333" font-family="Times Roman,serif" font-size="14.00">[ENUM] restriction (Optional)</text>
</a>
</g>
<!-- Contact&#45;&#45;AdditionalData -->
<g id="edge2" class="edge"><title>Contact&#45;&#45;AdditionalData</title>
<path fill="none" stroke="black" d="M222.04,-216.57C240.016,-226.052 258.603,-235.856 276.493,-245.293"/>
<polygon fill="black" stroke="black" points="275.3,-248.621 285.778,-250.191 278.566,-242.429 275.3,-248.621"/>
<text text-anchor="middle" x="251" y="-240.4" font-family="Times Roman,serif" font-size="14.00">0..*</text>
</g>
<!-- Contact&#45;&#45;Contact -->
<g id="edge6" class="edge"><title>Contact&#45;&#45;Contact</title>
<path fill="none" stroke="black" d="M89.7744,-272.054C94.0811,-283.039 101.156,-290 111,-290 117.768,-290 123.227,-286.71 127.377,-281.084"/>
<polygon fill="black" stroke="black" points="130.579,-282.52 132.226,-272.054 124.411,-279.208 130.579,-282.52"/>
<text text-anchor="middle" x="111" y="-296.4" font-family="Times Roman,serif" font-size="14.00">0..*</text>
</g>
<!-- Email -->
<g id="node4" class="node"><title>Email</title>
<a xlink:href="/help/iodefnav?iodef_class=Email" xlink:title="The Email class specifies an email address formatted according to EMAIL data type (Section 2.14). ">
<polygon fill="#7a993d" stroke="#7a993d" points="300,-195 300,-216 468,-216 468,-195 300,-195"/>
<polygon fill="none" stroke="black" points="300,-195 300,-216 468,-216 468,-195 300,-195"/>
<text text-anchor="start" x="367" y="-202.233" font-family="Times Roman,serif" font-size="14.00">Email</text>
</a>
<a xlink:href="/help/iodefnav?iodef_class=Email" xlink:title="A free&#45;form description of the element content (e.g., hours of coverage for a given number).">
<polygon fill="#ccff66" stroke="#ccff66" points="300,-175 300,-195 468,-195 468,-175 300,-175"/>
<polygon fill="none" stroke="black" points="300,-175 300,-195 468,-195 468,-175 300,-175"/>
<text text-anchor="start" x="303.5" y="-181.733" font-family="Times Roman,serif" font-size="14.00">[ENUM] meaning (Optional)</text>
</a>
</g>
<!-- Contact&#45;&#45;Email -->
<g id="edge4" class="edge"><title>Contact&#45;&#45;Email</title>
<path fill="none" stroke="black" d="M222.04,-173.456C241.776,-176.203 262.248,-179.053 281.726,-181.764"/>
<polygon fill="black" stroke="black" points="281.425,-185.256 291.813,-183.168 282.391,-178.323 281.425,-185.256"/>
<text text-anchor="middle" x="251" y="-184.4" font-family="Times Roman,serif" font-size="14.00">0..*</text>
</g>
<!-- PostalAddress -->
<g id="node7" class="node"><title>PostalAddress</title>
<a xlink:href="/help/iodefnav?iodef_class=PostalAddress" xlink:title="The PostalAddress class specifies a postal address formatted according to the POSTAL data type (Section 2.11). ">
<polygon fill="#7a993d" stroke="#7a993d" points="300,-129 300,-150 468,-150 468,-129 300,-129"/>
<polygon fill="none" stroke="black" points="300,-129 300,-150 468,-150 468,-129 300,-129"/>
<text text-anchor="start" x="345" y="-136.233" font-family="Times Roman,serif" font-size="14.00">PostalAddress</text>
</a>
<a xlink:href="/help/iodefnav?iodef_class=PostalAddress" xlink:title="A valid language code per RFC 4646 [7] constrained by the definition of &quot;xs:language&quot;. &#160;The interpretation of this code is described in Section 6.">
<polygon fill="#ccff66" stroke="#ccff66" points="300,-109 300,-129 468,-129 468,-109 300,-109"/>
<polygon fill="none" stroke="black" points="300,-109 300,-129 468,-129 468,-109 300,-109"/>
<text text-anchor="start" x="314.5" y="-115.733" font-family="Times Roman,serif" font-size="14.00">[ENUM] lang (Required)</text>
</a>
<a xlink:href="/help/iodefnav?iodef_class=PostalAddress" xlink:title="A free&#45;form description of the element content.">
<polygon fill="#ccff66" stroke="#ccff66" points="300,-89 300,-109 468,-109 468,-89 300,-89"/>
<polygon fill="none" stroke="black" points="300,-89 300,-109 468,-109 468,-89 300,-89"/>
<text text-anchor="start" x="303.5" y="-95.7333" font-family="Times Roman,serif" font-size="14.00">[ENUM] meaning (Optional)</text>
</a>
</g>
<!-- Contact&#45;&#45;PostalAddress -->
<g id="edge8" class="edge"><title>Contact&#45;&#45;PostalAddress</title>
<path fill="none" stroke="black" d="M222.04,-142.544C241.776,-139.797 262.248,-136.947 281.726,-134.236"/>
<polygon fill="black" stroke="black" points="282.391,-137.677 291.813,-132.832 281.425,-130.744 282.391,-137.677"/>
<text text-anchor="middle" x="251" y="-145.4" font-family="Times Roman,serif" font-size="14.00">0..1</text>
</g>
<!-- RegistryHandle -->
<g id="node9" class="node"><title>RegistryHandle</title>
<a xlink:href="/help/iodefnav?iodef_class=RegistryHandle" xlink:title="The RegistryHandle class represents a handle into an Internet registry or community&#45;specific database. &#160;The handle is specified in the element content and the type attribute specifies the database. ">
<polygon fill="#7a993d" stroke="#7a993d" points="289,-43 289,-64 480,-64 480,-43 289,-43"/>
<polygon fill="none" stroke="black" points="289,-43 289,-64 480,-64 480,-43 289,-43"/>
<text text-anchor="start" x="342" y="-50.2333" font-family="Times Roman,serif" font-size="14.00">RegistryHandle</text>
</a>
<a xlink:href="/help/iodefnav?iodef_class=RegistryHandle" xlink:title="The database to which the handle belongs. &#160;The default value is &#39;local&#39;. &#160;The possible values are:">
<polygon fill="#ccff66" stroke="#ccff66" points="289,-23 289,-43 480,-43 480,-23 289,-23"/>
<polygon fill="none" stroke="black" points="289,-23 289,-43 480,-43 480,-23 289,-23"/>
<text text-anchor="start" x="306" y="-29.7333" font-family="Times Roman,serif" font-size="14.00">[ENUM] registry (Required)</text>
</a>
<a xlink:href="/help/iodefnav?iodef_class=RegistryHandle" xlink:title="A means by which to extend the registry attribute. &#160;See Section 5.1.">
<polygon fill="#ccff66" stroke="#ccff66" points="289,-3 289,-23 480,-23 480,-3 289,-3"/>
<polygon fill="none" stroke="black" points="289,-3 289,-23 480,-23 480,-3 289,-3"/>
<text text-anchor="start" x="292.5" y="-9.73333" font-family="Times Roman,serif" font-size="14.00">[STRING] ext&#45;registry (Optional)</text>
</a>
</g>
<!-- Contact&#45;&#45;RegistryHandle -->
<g id="edge10" class="edge"><title>Contact&#45;&#45;RegistryHandle</title>
<path fill="none" stroke="black" d="M222.412,-103.538C241.538,-94.494 261.279,-85.3488 280,-77 283.611,-75.3898 287.3,-73.7654 291.034,-72.1393"/>
<polygon fill="black" stroke="black" points="292.592,-75.2788 300.385,-68.1005 289.816,-68.8526 292.592,-75.2788"/>
<text text-anchor="middle" x="251" y="-100.4" font-family="Times Roman,serif" font-size="14.00">0..*</text>
</g>
</g>
</svg>
