<?xml version="1.0" encoding="UTF-8" standalone="no"?>
<!DOCTYPE svg PUBLIC "-//W3C//DTD SVG 1.1//EN"
 "http://www.w3.org/Graphics/SVG/1.1/DTD/svg11.dtd">
<!-- Generated by graphviz version 2.26.0 (20091210.2329)
 -->
<!-- Title: _anonymous_0 Pages: 1 -->
<svg width="192pt" height="56pt"
 viewBox="0.00 0.00 192.00 56.00" xmlns="http://www.w3.org/2000/svg" xmlns:xlink="http://www.w3.org/1999/xlink">
<g id="graph1" class="graph" transform="scale(1 1) rotate(0) translate(4 52)">
<title>_anonymous_0</title>
<polygon fill="white" stroke="white" points="-4,5 -4,-52 189,-52 189,5 -4,5"/>
<!-- Email -->
<g id="node1" class="node"><title>Email</title>
<a xlink:href="/help/iodefnav?iodef_class=Email" xlink:title="The Email class specifies an email address formatted according to EMAIL data type (Section 2.14). ">
<polygon fill="#7a993d" stroke="#7a993d" points="8,-23 8,-44 176,-44 176,-23 8,-23"/>
<polygon fill="none" stroke="black" points="8,-23 8,-44 176,-44 176,-23 8,-23"/>
<text text-anchor="start" x="75" y="-30.2333" font-family="Times Roman,serif" font-size="14.00">Email</text>
</a>
<a xlink:href="/help/iodefnav?iodef_class=Email" xlink:title="A free&#45;form description of the element content (e.g., hours of coverage for a given number).">
<polygon fill="#ccff66" stroke="#ccff66" points="8,-3 8,-23 176,-23 176,-3 8,-3"/>
<polygon fill="none" stroke="black" points="8,-3 8,-23 176,-23 176,-3 8,-3"/>
<text text-anchor="start" x="11.5" y="-9.73333" font-family="Times Roman,serif" font-size="14.00">[ENUM] meaning (Optional)</text>
</a>
</g>
</g>
</svg>
