<?xml version="1.0" encoding="UTF-8" standalone="no"?>
<!DOCTYPE svg PUBLIC "-//W3C//DTD SVG 1.1//EN"
 "http://www.w3.org/Graphics/SVG/1.1/DTD/svg11.dtd">
<!-- Generated by graphviz version 2.26.0 (20091210.2329)
 -->
<!-- Title: _anonymous_0 Pages: 1 -->
<svg width="764pt" height="374pt"
 viewBox="0.00 0.00 764.00 374.00" xmlns="http://www.w3.org/2000/svg" xmlns:xlink="http://www.w3.org/1999/xlink">
<g id="graph1" class="graph" transform="scale(1 1) rotate(0) translate(4 370)">
<title>_anonymous_0</title>
<polygon fill="white" stroke="white" points="-4,5 -4,-370 761,-370 761,5 -4,5"/>
<!-- AdditionalData -->
<g id="node1" class="node"><title>AdditionalData</title>
<a xlink:href="/help/iodefnav?iodef_class=AdditionalData" xlink:title="The AdditionalData class serves as an extension mechanism for information not otherwise represented in the data model. &#160;For relatively simple information, atomic data types (e.g., integers, strings) are provided with a mechanism to annotate their meaning. The class can also be used to extend the data model (and the associated Schema) to support proprietary extensions by encapsulating entire XML documents conforming to another Schema (e.g., IDMEF). &#160;A detailed discussion for extending the data model and the schema can be found in Section 5. ">
<polygon fill="#997a3d" stroke="#997a3d" points="562,-341 562,-362 742,-362 742,-341 562,-341"/>
<polygon fill="none" stroke="black" points="562,-341 562,-362 742,-362 742,-341 562,-341"/>
<text text-anchor="start" x="610" y="-348.233" font-family="Times Roman,serif" font-size="14.00">AdditionalData</text>
</a>
<a xlink:href="/help/iodefnav?iodef_class=AdditionalData" xlink:title="The data type of the element content. &#160;The permitted values for this attribute are shown below. &#160;The default value is &quot;string&quot;.">
<polygon fill="#ffcc66" stroke="#ffcc66" points="562,-321 562,-341 742,-341 742,-321 562,-321"/>
<polygon fill="none" stroke="black" points="562,-321 562,-341 742,-341 742,-321 562,-321"/>
<text text-anchor="start" x="579" y="-327.733" font-family="Times Roman,serif" font-size="14.00">[ENUM] dtype (Required)</text>
</a>
<a xlink:href="/help/iodefnav?iodef_class=AdditionalData" xlink:title="A free&#45;form description of the element content.">
<polygon fill="#ffcc66" stroke="#ffcc66" points="562,-301 562,-321 742,-321 742,-301 562,-301"/>
<polygon fill="none" stroke="black" points="562,-301 562,-321 742,-321 742,-301 562,-301"/>
<text text-anchor="start" x="567.5" y="-307.733" font-family="Times Roman,serif" font-size="14.00">[STRING] meaning (Optional)</text>
</a>
<a xlink:href="/help/iodefnav?iodef_class=AdditionalData" xlink:title="A means by which to extend the dtype attribute. &#160;See Section 5.1.">
<polygon fill="#ffcc66" stroke="#ffcc66" points="562,-281 562,-301 742,-301 742,-281 562,-281"/>
<polygon fill="none" stroke="black" points="562,-281 562,-301 742,-301 742,-281 562,-281"/>
<text text-anchor="start" x="565.5" y="-287.733" font-family="Times Roman,serif" font-size="14.00">[STRING] ext&#45;dtype (Optional)</text>
</a>
<a xlink:href="/help/iodefnav?iodef_class=AdditionalData" xlink:title="An identifier referencing the format and semantics of the element content.">
<polygon fill="#ffcc66" stroke="#ffcc66" points="562,-261 562,-281 742,-281 742,-261 562,-261"/>
<polygon fill="none" stroke="black" points="562,-261 562,-281 742,-281 742,-261 562,-261"/>
<text text-anchor="start" x="567.5" y="-267.733" font-family="Times Roman,serif" font-size="14.00">[STRING] formatid (Optional)</text>
</a>
<a xlink:href="/help/iodefnav?iodef_class=AdditionalData" xlink:title="This attribute has been defined in Section 3.2.">
<polygon fill="#ffcc66" stroke="#ffcc66" points="562,-241 562,-261 742,-261 742,-241 562,-241"/>
<polygon fill="none" stroke="black" points="562,-241 562,-261 742,-261 742,-241 562,-241"/>
<text text-anchor="start" x="567.5" y="-247.733" font-family="Times Roman,serif" font-size="14.00">[ENUM] restriction (Optional)</text>
</a>
</g>
<!-- Contact -->
<g id="node2" class="node"><title>Contact</title>
<a xlink:href="/help/iodefnav?iodef_class=Contact" xlink:title="The Contact class describes contact information for organizations and personnel involved in the incident. &#160;This class allows for the naming of the involved party, specifying contact information for them, and identifying their role in the incident. ">
<polygon fill="#7a993d" stroke="#7a993d" points="276,-247 276,-268 482,-268 482,-247 276,-247"/>
<polygon fill="none" stroke="black" points="276,-247 276,-268 482,-268 482,-247 276,-247"/>
<text text-anchor="start" x="357.5" y="-254.233" font-family="Times Roman,serif" font-size="14.00">Contact</text>
</a>
<a xlink:href="/help/iodefnav?iodef_class=Contact" xlink:title="The facsimile telephone number of the contact.">
<polygon fill="#ccff66" stroke="#ccff66" points="276,-227 276,-247 482,-247 482,-227 276,-227"/>
<polygon fill="none" stroke="black" points="276,-227 276,-247 482,-247 482,-227 276,-227"/>
<text text-anchor="start" x="330.5" y="-233.733" font-family="Times Roman,serif" font-size="14.00">[None] Fax (0..1)</text>
</a>
<a xlink:href="/help/iodefnav?iodef_class=Contact" xlink:title="A free&#45;form description of this contact. &#160;In the case of a person, this is often the organizational title of the individual.">
<polygon fill="#ccff66" stroke="#ccff66" points="276,-207 276,-227 482,-227 482,-207 276,-207"/>
<polygon fill="none" stroke="black" points="276,-207 276,-227 482,-227 482,-207 276,-207"/>
<text text-anchor="start" x="285.5" y="-213.733" font-family="Times Roman,serif" font-size="14.00">[ML_STRING] Description (0..*)</text>
</a>
<a xlink:href="/help/iodefnav?iodef_class=Contact" xlink:title="The telephone number of the contact.">
<polygon fill="#ccff66" stroke="#ccff66" points="276,-187 276,-207 482,-207 482,-187 276,-187"/>
<polygon fill="none" stroke="black" points="276,-187 276,-207 482,-207 482,-187 276,-187"/>
<text text-anchor="start" x="312.5" y="-193.733" font-family="Times Roman,serif" font-size="14.00">[None] Telephone (0..*)</text>
</a>
<a xlink:href="/help/iodefnav?iodef_class=Contact" xlink:title="The name of the contact. &#160;The contact may either be an organization or a person. &#160;The type attribute disambiguates the semantics.">
<polygon fill="#ccff66" stroke="#ccff66" points="276,-167 276,-187 482,-187 482,-167 276,-167"/>
<polygon fill="none" stroke="black" points="276,-167 276,-187 482,-187 482,-167 276,-167"/>
<text text-anchor="start" x="279.5" y="-173.733" font-family="Times Roman,serif" font-size="14.00">[ML_STRING] ContactName (0..1)</text>
</a>
<a xlink:href="/help/iodefnav?iodef_class=Contact" xlink:title="The timezone in which the contact resides formatted according to Section 2.9.">
<polygon fill="#ccff66" stroke="#ccff66" points="276,-147 276,-167 482,-167 482,-147 276,-147"/>
<polygon fill="none" stroke="black" points="276,-147 276,-167 482,-167 482,-147 276,-147"/>
<text text-anchor="start" x="293" y="-153.733" font-family="Times Roman,serif" font-size="14.00">[TIMEZONE] Timezone (0..1)</text>
</a>
<a xlink:href="/help/iodefnav?iodef_class=Contact" xlink:title="Indicates the role the contact fulfills. &#160;This attribute is defined as an enumerated list:">
<polygon fill="#ccff66" stroke="#ccff66" points="276,-127 276,-147 482,-147 482,-127 276,-127"/>
<polygon fill="none" stroke="black" points="276,-127 276,-147 482,-147 482,-127 276,-127"/>
<text text-anchor="start" x="310.5" y="-133.733" font-family="Times Roman,serif" font-size="14.00">[ENUM] role (Required)</text>
</a>
<a xlink:href="/help/iodefnav?iodef_class=Contact" xlink:title="Indicates the type of contact being described. This attribute is defined as an enumerated list:">
<polygon fill="#ccff66" stroke="#ccff66" points="276,-107 276,-127 482,-127 482,-107 276,-107"/>
<polygon fill="none" stroke="black" points="276,-107 276,-127 482,-127 482,-107 276,-107"/>
<text text-anchor="start" x="309.5" y="-113.733" font-family="Times Roman,serif" font-size="14.00">[ENUM] type (Required)</text>
</a>
<a xlink:href="/help/iodefnav?iodef_class=Contact" xlink:title="A means by which to extend the role attribute. See Section 5.1.">
<polygon fill="#ccff66" stroke="#ccff66" points="276,-87 276,-107 482,-107 482,-87 276,-87"/>
<polygon fill="none" stroke="black" points="276,-87 276,-107 482,-107 482,-87 276,-87"/>
<text text-anchor="start" x="297" y="-93.7333" font-family="Times Roman,serif" font-size="14.00">[STRING] ext&#45;role (Optional)</text>
</a>
<a xlink:href="/help/iodefnav?iodef_class=Contact" xlink:title="A means by which to extend the type attribute. See Section 5.1.">
<polygon fill="#ccff66" stroke="#ccff66" points="276,-67 276,-87 482,-87 482,-67 276,-67"/>
<polygon fill="none" stroke="black" points="276,-67 276,-87 482,-87 482,-67 276,-67"/>
<text text-anchor="start" x="296" y="-73.7333" font-family="Times Roman,serif" font-size="14.00">[STRING] ext&#45;type (Optional)</text>
</a>
<a xlink:href="/help/iodefnav?iodef_class=Contact" xlink:title="This attribute is defined in Section 3.2.">
<polygon fill="#ccff66" stroke="#ccff66" points="276,-47 276,-67 482,-67 482,-47 276,-47"/>
<polygon fill="none" stroke="black" points="276,-47 276,-67 482,-67 482,-47 276,-47"/>
<text text-anchor="start" x="294.5" y="-53.7333" font-family="Times Roman,serif" font-size="14.00">[ENUM] restriction (Optional)</text>
</a>
</g>
<!-- Contact&#45;&#45;AdditionalData -->
<g id="edge2" class="edge"><title>Contact&#45;&#45;AdditionalData</title>
<path fill="none" stroke="black" d="M490.04,-216.57C508.016,-226.052 526.603,-235.856 544.493,-245.293"/>
<polygon fill="black" stroke="black" points="543.3,-248.621 553.778,-250.191 546.566,-242.429 543.3,-248.621"/>
<text text-anchor="middle" x="519" y="-240.4" font-family="Times Roman,serif" font-size="14.00">0..*</text>
</g>
<!-- Contact&#45;&#45;Contact -->
<g id="edge6" class="edge"><title>Contact&#45;&#45;Contact</title>
<path fill="none" stroke="black" d="M357.774,-272.054C362.081,-283.039 369.156,-290 379,-290 385.768,-290 391.227,-286.71 395.377,-281.084"/>
<polygon fill="black" stroke="black" points="398.579,-282.52 400.226,-272.054 392.411,-279.208 398.579,-282.52"/>
<text text-anchor="middle" x="379" y="-296.4" font-family="Times Roman,serif" font-size="14.00">0..*</text>
</g>
<!-- Email -->
<g id="node4" class="node"><title>Email</title>
<a xlink:href="/help/iodefnav?iodef_class=Email" xlink:title="The Email class specifies an email address formatted according to EMAIL data type (Section 2.14). ">
<polygon fill="#7a993d" stroke="#7a993d" points="568,-195 568,-216 736,-216 736,-195 568,-195"/>
<polygon fill="none" stroke="black" points="568,-195 568,-216 736,-216 736,-195 568,-195"/>
<text text-anchor="start" x="635" y="-202.233" font-family="Times Roman,serif" font-size="14.00">Email</text>
</a>
<a xlink:href="/help/iodefnav?iodef_class=Email" xlink:title="A free&#45;form description of the element content (e.g., hours of coverage for a given number).">
<polygon fill="#ccff66" stroke="#ccff66" points="568,-175 568,-195 736,-195 736,-175 568,-175"/>
<polygon fill="none" stroke="black" points="568,-175 568,-195 736,-195 736,-175 568,-175"/>
<text text-anchor="start" x="571.5" y="-181.733" font-family="Times Roman,serif" font-size="14.00">[ENUM] meaning (Optional)</text>
</a>
</g>
<!-- Contact&#45;&#45;Email -->
<g id="edge4" class="edge"><title>Contact&#45;&#45;Email</title>
<path fill="none" stroke="black" d="M490.04,-173.456C509.776,-176.203 530.248,-179.053 549.726,-181.764"/>
<polygon fill="black" stroke="black" points="549.425,-185.256 559.813,-183.168 550.391,-178.323 549.425,-185.256"/>
<text text-anchor="middle" x="519" y="-184.4" font-family="Times Roman,serif" font-size="14.00">0..*</text>
</g>
<!-- PostalAddress -->
<g id="node7" class="node"><title>PostalAddress</title>
<a xlink:href="/help/iodefnav?iodef_class=PostalAddress" xlink:title="The PostalAddress class specifies a postal address formatted according to the POSTAL data type (Section 2.11). ">
<polygon fill="#7a993d" stroke="#7a993d" points="568,-129 568,-150 736,-150 736,-129 568,-129"/>
<polygon fill="none" stroke="black" points="568,-129 568,-150 736,-150 736,-129 568,-129"/>
<text text-anchor="start" x="613" y="-136.233" font-family="Times Roman,serif" font-size="14.00">PostalAddress</text>
</a>
<a xlink:href="/help/iodefnav?iodef_class=PostalAddress" xlink:title="A valid language code per RFC 4646 [7] constrained by the definition of &quot;xs:language&quot;. &#160;The interpretation of this code is described in Section 6.">
<polygon fill="#ccff66" stroke="#ccff66" points="568,-109 568,-129 736,-129 736,-109 568,-109"/>
<polygon fill="none" stroke="black" points="568,-109 568,-129 736,-129 736,-109 568,-109"/>
<text text-anchor="start" x="582.5" y="-115.733" font-family="Times Roman,serif" font-size="14.00">[ENUM] lang (Required)</text>
</a>
<a xlink:href="/help/iodefnav?iodef_class=PostalAddress" xlink:title="A free&#45;form description of the element content.">
<polygon fill="#ccff66" stroke="#ccff66" points="568,-89 568,-109 736,-109 736,-89 568,-89"/>
<polygon fill="none" stroke="black" points="568,-89 568,-109 736,-109 736,-89 568,-89"/>
<text text-anchor="start" x="571.5" y="-95.7333" font-family="Times Roman,serif" font-size="14.00">[ENUM] meaning (Optional)</text>
</a>
</g>
<!-- Contact&#45;&#45;PostalAddress -->
<g id="edge8" class="edge"><title>Contact&#45;&#45;PostalAddress</title>
<path fill="none" stroke="black" d="M490.04,-142.544C509.776,-139.797 530.248,-136.947 549.726,-134.236"/>
<polygon fill="black" stroke="black" points="550.391,-137.677 559.813,-132.832 549.425,-130.744 550.391,-137.677"/>
<text text-anchor="middle" x="519" y="-145.4" font-family="Times Roman,serif" font-size="14.00">0..1</text>
</g>
<!-- RegistryHandle -->
<g id="node9" class="node"><title>RegistryHandle</title>
<a xlink:href="/help/iodefnav?iodef_class=RegistryHandle" xlink:title="The RegistryHandle class represents a handle into an Internet registry or community&#45;specific database. &#160;The handle is specified in the element content and the type attribute specifies the database. ">
<polygon fill="#7a993d" stroke="#7a993d" points="557,-43 557,-64 748,-64 748,-43 557,-43"/>
<polygon fill="none" stroke="black" points="557,-43 557,-64 748,-64 748,-43 557,-43"/>
<text text-anchor="start" x="610" y="-50.2333" font-family="Times Roman,serif" font-size="14.00">RegistryHandle</text>
</a>
<a xlink:href="/help/iodefnav?iodef_class=RegistryHandle" xlink:title="The database to which the handle belongs. &#160;The default value is &#39;local&#39;. &#160;The possible values are:">
<polygon fill="#ccff66" stroke="#ccff66" points="557,-23 557,-43 748,-43 748,-23 557,-23"/>
<polygon fill="none" stroke="black" points="557,-23 557,-43 748,-43 748,-23 557,-23"/>
<text text-anchor="start" x="574" y="-29.7333" font-family="Times Roman,serif" font-size="14.00">[ENUM] registry (Required)</text>
</a>
<a xlink:href="/help/iodefnav?iodef_class=RegistryHandle" xlink:title="A means by which to extend the registry attribute. &#160;See Section 5.1.">
<polygon fill="#ccff66" stroke="#ccff66" points="557,-3 557,-23 748,-23 748,-3 557,-3"/>
<polygon fill="none" stroke="black" points="557,-3 557,-23 748,-23 748,-3 557,-3"/>
<text text-anchor="start" x="560.5" y="-9.73333" font-family="Times Roman,serif" font-size="14.00">[STRING] ext&#45;registry (Optional)</text>
</a>
</g>
<!-- Contact&#45;&#45;RegistryHandle -->
<g id="edge10" class="edge"><title>Contact&#45;&#45;RegistryHandle</title>
<path fill="none" stroke="black" d="M490.412,-103.538C509.538,-94.494 529.279,-85.3488 548,-77 551.611,-75.3898 555.3,-73.7654 559.034,-72.1393"/>
<polygon fill="black" stroke="black" points="560.592,-75.2788 568.385,-68.1005 557.816,-68.8526 560.592,-75.2788"/>
<text text-anchor="middle" x="519" y="-101.4" font-family="Times Roman,serif" font-size="14.00">0..*</text>
</g>
<!-- Expectation -->
<g id="node11" class="node"><title>Expectation</title>
<a xlink:href="/help/iodefnav?iodef_class=Expectation" xlink:title="The Expectation class conveys to the recipient of the IODEF document the actions the sender is requesting. &#160;The scope of the requested action is limited to purview of the EventData class in which this class is aggregated. ">
<polygon fill="#727272" stroke="#727272" points="8,-217 8,-238 202,-238 202,-217 8,-217"/>
<polygon fill="none" stroke="black" points="8,-217 8,-238 202,-238 202,-217 8,-217"/>
<text text-anchor="start" x="72.5" y="-224.233" font-family="Times Roman,serif" font-size="14.00">Expectation</text>
</a>
<a xlink:href="/help/iodefnav?iodef_class=Expectation" xlink:title="The time by which the action should be completed. If the action is not carried out by this time, it should no longer be performed.">
<polygon fill="#bfbfbf" stroke="#bfbfbf" points="8,-197 8,-217 202,-217 202,-197 8,-197"/>
<polygon fill="none" stroke="black" points="8,-197 8,-217 202,-217 202,-197 8,-197"/>
<text text-anchor="start" x="41.5" y="-203.733" font-family="Times Roman,serif" font-size="14.00">[None] EndTime (0..1)</text>
</a>
<a xlink:href="/help/iodefnav?iodef_class=Expectation" xlink:title="A free&#45;form description of the desired action(s).">
<polygon fill="#bfbfbf" stroke="#bfbfbf" points="8,-177 8,-197 202,-197 202,-177 8,-177"/>
<polygon fill="none" stroke="black" points="8,-177 8,-197 202,-197 202,-177 8,-177"/>
<text text-anchor="start" x="11.5" y="-183.733" font-family="Times Roman,serif" font-size="14.00">[ML_STRING] Description (0..*)</text>
</a>
<a xlink:href="/help/iodefnav?iodef_class=Expectation" xlink:title="The time at which the action should be performed. &#160;A timestamp that is earlier than the ReportTime specified in the Incident class denotes that the expectation should be fulfilled as soon as possible. &#160;The absence of this element leaves the execution of the expectation to the discretion of the recipient.">
<polygon fill="#bfbfbf" stroke="#bfbfbf" points="8,-157 8,-177 202,-177 202,-157 8,-157"/>
<polygon fill="none" stroke="black" points="8,-157 8,-177 202,-177 202,-157 8,-157"/>
<text text-anchor="start" x="39.5" y="-163.733" font-family="Times Roman,serif" font-size="14.00">[None] StartTime (0..1)</text>
</a>
<a xlink:href="/help/iodefnav?iodef_class=Expectation" xlink:title="Classifies the type of action requested. &#160;This attribute is an enumerated list with no default value.">
<polygon fill="#bfbfbf" stroke="#bfbfbf" points="8,-137 8,-157 202,-157 202,-137 8,-137"/>
<polygon fill="none" stroke="black" points="8,-137 8,-157 202,-157 202,-137 8,-137"/>
<text text-anchor="start" x="31.5" y="-143.733" font-family="Times Roman,serif" font-size="14.00">[ENUM] action (Optional)</text>
</a>
<a xlink:href="/help/iodefnav?iodef_class=Expectation" xlink:title="This attribute is defined in Section 3.2.">
<polygon fill="#bfbfbf" stroke="#bfbfbf" points="8,-117 8,-137 202,-137 202,-117 8,-117"/>
<polygon fill="none" stroke="black" points="8,-117 8,-137 202,-137 202,-117 8,-117"/>
<text text-anchor="start" x="20.5" y="-123.733" font-family="Times Roman,serif" font-size="14.00">[ENUM] restriction (Optional)</text>
</a>
<a xlink:href="/help/iodefnav?iodef_class=Expectation" xlink:title="A means by which to extend the action attribute. &#160;See Section 5.1.">
<polygon fill="#bfbfbf" stroke="#bfbfbf" points="8,-97 8,-117 202,-117 202,-97 8,-97"/>
<polygon fill="none" stroke="black" points="8,-97 8,-117 202,-117 202,-97 8,-97"/>
<text text-anchor="start" x="17" y="-103.733" font-family="Times Roman,serif" font-size="14.00">[STRING] ext&#45;action (Optional)</text>
</a>
<a xlink:href="/help/iodefnav?iodef_class=Expectation" xlink:title="Indicates the desired priority of the action. This attribute is an enumerated list with no default value, and the semantics of these relative measures are context dependent.">
<polygon fill="#bfbfbf" stroke="#bfbfbf" points="8,-77 8,-97 202,-97 202,-77 8,-77"/>
<polygon fill="none" stroke="black" points="8,-77 8,-97 202,-97 202,-77 8,-77"/>
<text text-anchor="start" x="26.5" y="-83.7333" font-family="Times Roman,serif" font-size="14.00">[ENUM] severity (Optional)</text>
</a>
</g>
<!-- Expectation&#45;&#45;Contact -->
<g id="edge12" class="edge"><title>Expectation&#45;&#45;Contact</title>
<path fill="none" stroke="black" d="M210.152,-158C225.627,-158 241.676,-158 257.448,-158"/>
<polygon fill="black" stroke="black" points="257.764,-161.5 267.764,-158 257.764,-154.5 257.764,-161.5"/>
<text text-anchor="middle" x="239" y="-164.4" font-family="Times Roman,serif" font-size="14.00">0..1</text>
</g>
</g>
</svg>
