<?xml version="1.0" encoding="UTF-8" standalone="no"?>
<!DOCTYPE svg PUBLIC "-//W3C//DTD SVG 1.1//EN"
 "http://www.w3.org/Graphics/SVG/1.1/DTD/svg11.dtd">
<!-- Generated by graphviz version 2.26.0 (20091210.2329)
 -->
<!-- Title: _anonymous_0 Pages: 1 -->
<svg width="884pt" height="818pt"
 viewBox="0.00 0.00 884.00 818.00" xmlns="http://www.w3.org/2000/svg" xmlns:xlink="http://www.w3.org/1999/xlink">
<g id="graph1" class="graph" transform="scale(1 1) rotate(0) translate(4 814)">
<title>_anonymous_0</title>
<polygon fill="white" stroke="white" points="-4,5 -4,-814 881,-814 881,5 -4,5"/>
<!-- NodeRole -->
<g id="node1" class="node"><title>NodeRole</title>
<a xlink:href="/help/iodefnav?iodef_class=NodeRole" xlink:title="The NodeRole class describes the intended function performed by a particular host. ">
<polygon fill="#182f5f" stroke="#182f5f" points="671,-785 671,-806 868,-806 868,-785 671,-785"/>
<polygon fill="none" stroke="black" points="671,-785 671,-806 868,-806 868,-785 671,-785"/>
<text text-anchor="start" x="742" y="-792.233" font-family="Times Roman,serif" font-size="14.00">NodeRole</text>
</a>
<a xlink:href="/help/iodefnav?iodef_class=NodeRole" xlink:title="Functionality provided by a node.">
<polygon fill="#284f9f" stroke="#284f9f" points="671,-765 671,-785 868,-785 868,-765 671,-765"/>
<polygon fill="none" stroke="black" points="671,-765 671,-785 868,-785 868,-765 671,-765"/>
<text text-anchor="start" x="688" y="-771.733" font-family="Times Roman,serif" font-size="14.00">[ENUM] category (Required)</text>
</a>
<a xlink:href="/help/iodefnav?iodef_class=NodeRole" xlink:title="A valid language code per RFC 4646 [7] constrained by the definition of &quot;xs:language&quot;. &#160;The interpretation of this code is described in Section 6.">
<polygon fill="#284f9f" stroke="#284f9f" points="671,-745 671,-765 868,-765 868,-745 671,-745"/>
<polygon fill="none" stroke="black" points="671,-745 671,-765 868,-765 868,-745 671,-745"/>
<text text-anchor="start" x="700" y="-751.733" font-family="Times Roman,serif" font-size="14.00">[ENUM] lang (Required)</text>
</a>
<a xlink:href="/help/iodefnav?iodef_class=NodeRole" xlink:title="A means by which to extend the category attribute. &#160;See Section 5.1.">
<polygon fill="#284f9f" stroke="#284f9f" points="671,-725 671,-745 868,-745 868,-725 671,-725"/>
<polygon fill="none" stroke="black" points="671,-725 671,-745 868,-745 868,-725 671,-725"/>
<text text-anchor="start" x="674.5" y="-731.733" font-family="Times Roman,serif" font-size="14.00">[STRING] ext&#45;category (Optional)</text>
</a>
</g>
<!-- Node -->
<g id="node2" class="node"><title>Node</title>
<a xlink:href="/help/iodefnav?iodef_class=Node" xlink:title="The Node class names a system (e.g., PC, router) or network. ">
<polygon fill="#182f5f" stroke="#182f5f" points="398,-658 398,-679 591,-679 591,-658 398,-658"/>
<polygon fill="none" stroke="black" points="398,-658 398,-679 591,-679 591,-658 398,-658"/>
<text text-anchor="start" x="479.5" y="-665.233" font-family="Times Roman,serif" font-size="14.00">Node</text>
</a>
<a xlink:href="/help/iodefnav?iodef_class=Node" xlink:title="A free&#45;from description of the physical location of the equipment.">
<polygon fill="#284f9f" stroke="#284f9f" points="398,-638 398,-658 591,-658 591,-638 398,-638"/>
<polygon fill="none" stroke="black" points="398,-638 398,-658 591,-658 591,-638 398,-638"/>
<text text-anchor="start" x="408.5" y="-644.733" font-family="Times Roman,serif" font-size="14.00">[ML_STRING] Location (0..1)</text>
</a>
<a xlink:href="/help/iodefnav?iodef_class=Node" xlink:title="The name of the Node (e.g., fully qualified domain name). &#160;This information MUST be provided if no Address information is given.">
<polygon fill="#284f9f" stroke="#284f9f" points="398,-618 398,-638 591,-638 591,-618 398,-618"/>
<polygon fill="none" stroke="black" points="398,-618 398,-638 591,-638 591,-618 398,-618"/>
<text text-anchor="start" x="401.5" y="-624.733" font-family="Times Roman,serif" font-size="14.00">[ML_STRING] NodeName (0..*)</text>
</a>
<a xlink:href="/help/iodefnav?iodef_class=Node" xlink:title="A timestamp of when the resolution between the name and address was performed. &#160;This information SHOULD be provided if both an Address and NodeName are specified.">
<polygon fill="#284f9f" stroke="#284f9f" points="398,-598 398,-618 591,-618 591,-598 398,-598"/>
<polygon fill="none" stroke="black" points="398,-598 398,-618 591,-618 591,-598 398,-598"/>
<text text-anchor="start" x="429" y="-604.733" font-family="Times Roman,serif" font-size="14.00">[None] DateTime (0..1)</text>
</a>
</g>
<!-- Node&#45;&#45;NodeRole -->
<g id="edge2" class="edge"><title>Node&#45;&#45;NodeRole</title>
<path fill="none" stroke="black" d="M589.41,-683.062C613.482,-694.179 639.46,-706.176 663.976,-717.498"/>
<polygon fill="black" stroke="black" points="662.747,-720.786 673.293,-721.801 665.682,-714.431 662.747,-720.786"/>
<text text-anchor="middle" x="633" y="-712.4" font-family="Times Roman,serif" font-size="14.00">0..*</text>
</g>
<!-- Address -->
<g id="node4" class="node"><title>Address</title>
<a xlink:href="/help/iodefnav?iodef_class=Address" xlink:title="The Address class represents a hardware (layer&#45;2), network (layer&#45;3), or application (layer&#45;7) address. ">
<polygon fill="#182f5f" stroke="#182f5f" points="671,-679 671,-700 868,-700 868,-679 671,-679"/>
<polygon fill="none" stroke="black" points="671,-679 671,-700 868,-700 868,-679 671,-679"/>
<text text-anchor="start" x="747" y="-686.233" font-family="Times Roman,serif" font-size="14.00">Address</text>
</a>
<a xlink:href="/help/iodefnav?iodef_class=Address" xlink:title="The type of address represented. &#160;The permitted values for this attribute are shown below. &#160;The default value is &quot;ipv4&#45;addr&quot;.">
<polygon fill="#284f9f" stroke="#284f9f" points="671,-659 671,-679 868,-679 868,-659 671,-659"/>
<polygon fill="none" stroke="black" points="671,-659 671,-679 868,-679 868,-659 671,-659"/>
<text text-anchor="start" x="688" y="-665.733" font-family="Times Roman,serif" font-size="14.00">[ENUM] category (Required)</text>
</a>
<a xlink:href="/help/iodefnav?iodef_class=Address" xlink:title="The name of the Virtual LAN to which the address belongs.">
<polygon fill="#284f9f" stroke="#284f9f" points="671,-639 671,-659 868,-659 868,-639 671,-639"/>
<polygon fill="none" stroke="black" points="671,-639 671,-659 868,-659 868,-639 671,-639"/>
<text text-anchor="start" x="679.5" y="-645.733" font-family="Times Roman,serif" font-size="14.00">[STRING] vlan&#45;name (Optional)</text>
</a>
<a xlink:href="/help/iodefnav?iodef_class=Address" xlink:title="A means by which to extend the category attribute. &#160;See Section 5.1.">
<polygon fill="#284f9f" stroke="#284f9f" points="671,-619 671,-639 868,-639 868,-619 671,-619"/>
<polygon fill="none" stroke="black" points="671,-619 671,-639 868,-639 868,-619 671,-619"/>
<text text-anchor="start" x="674.5" y="-625.733" font-family="Times Roman,serif" font-size="14.00">[STRING] ext&#45;category (Optional)</text>
</a>
<a xlink:href="/help/iodefnav?iodef_class=Address" xlink:title="The number of the Virtual LAN to which the address belongs.">
<polygon fill="#284f9f" stroke="#284f9f" points="671,-599 671,-619 868,-619 868,-599 671,-599"/>
<polygon fill="none" stroke="black" points="671,-599 671,-619 868,-619 868,-599 671,-599"/>
<text text-anchor="start" x="682" y="-605.733" font-family="Times Roman,serif" font-size="14.00">[STRING] vlan&#45;num (Optional)</text>
</a>
</g>
<!-- Node&#45;&#45;Address -->
<g id="edge4" class="edge"><title>Node&#45;&#45;Address</title>
<path fill="none" stroke="black" d="M598.75,-643.19C616.133,-643.885 634.258,-644.61 651.923,-645.317"/>
<polygon fill="black" stroke="black" points="652.129,-648.828 662.261,-645.73 652.409,-641.833 652.129,-648.828"/>
<text text-anchor="middle" x="633" y="-650.4" font-family="Times Roman,serif" font-size="14.00">0..*</text>
</g>
<!-- Counter -->
<g id="node6" class="node"><title>Counter</title>
<a xlink:href="/help/iodefnav?iodef_class=Counter" xlink:title="The Counter class summarize multiple occurrences of some event, or conveys counts or rates on various features (e.g., packets, sessions, events). ">
<polygon fill="#993015" stroke="#993015" points="672,-553 672,-574 867,-574 867,-553 672,-553"/>
<polygon fill="none" stroke="black" points="672,-553 672,-574 867,-574 867,-553 672,-553"/>
<text text-anchor="start" x="747.5" y="-560.233" font-family="Times Roman,serif" font-size="14.00">Counter</text>
</a>
<a xlink:href="/help/iodefnav?iodef_class=Counter" xlink:title="If present, the Counter class represents a rate rather than a count over the entire event. &#160;In that case, this attribute specifies the denominator of the rate (where the type attribute specified the nominator). &#160;The possible values of this attribute are defined in Section 3.10.2">
<polygon fill="#ff5024" stroke="#ff5024" points="672,-533 672,-553 867,-553 867,-533 672,-533"/>
<polygon fill="none" stroke="black" points="672,-533 672,-553 867,-553 867,-533 672,-533"/>
<text text-anchor="start" x="690" y="-539.733" font-family="Times Roman,serif" font-size="14.00">[ENUM] duration (Optional)</text>
</a>
<a xlink:href="/help/iodefnav?iodef_class=Counter" xlink:title="Specifies the units of the element content.">
<polygon fill="#ff5024" stroke="#ff5024" points="672,-513 672,-533 867,-533 867,-513 672,-513"/>
<polygon fill="none" stroke="black" points="672,-513 672,-533 867,-533 867,-513 672,-513"/>
<text text-anchor="start" x="700" y="-519.733" font-family="Times Roman,serif" font-size="14.00">[ENUM] type (Required)</text>
</a>
<a xlink:href="/help/iodefnav?iodef_class=Counter" xlink:title="A means by which to extend the type attribute. See Section 5.1.">
<polygon fill="#ff5024" stroke="#ff5024" points="672,-493 672,-513 867,-513 867,-493 672,-493"/>
<polygon fill="none" stroke="black" points="672,-493 672,-513 867,-513 867,-493 672,-493"/>
<text text-anchor="start" x="686.5" y="-499.733" font-family="Times Roman,serif" font-size="14.00">[STRING] ext&#45;type (Optional)</text>
</a>
<a xlink:href="/help/iodefnav?iodef_class=Counter" xlink:title="A means by which to extend the duration attribute. &#160;See Section 5.1.">
<polygon fill="#ff5024" stroke="#ff5024" points="672,-473 672,-493 867,-493 867,-473 672,-473"/>
<polygon fill="none" stroke="black" points="672,-473 672,-493 867,-493 867,-473 672,-473"/>
<text text-anchor="start" x="675.5" y="-479.733" font-family="Times Roman,serif" font-size="14.00">[STRING] ext&#45;duration (Optional)</text>
</a>
</g>
<!-- Node&#45;&#45;Counter -->
<g id="edge6" class="edge"><title>Node&#45;&#45;Counter</title>
<path fill="none" stroke="black" d="M598.75,-595.195C616.717,-587.682 635.475,-579.838 653.7,-572.216"/>
<polygon fill="black" stroke="black" points="655.299,-575.342 663.174,-568.254 652.598,-568.884 655.299,-575.342"/>
<text text-anchor="middle" x="633" y="-591.4" font-family="Times Roman,serif" font-size="14.00">0..*</text>
</g>
<!-- System -->
<g id="node8" class="node"><title>System</title>
<a xlink:href="/help/iodefnav?iodef_class=System" xlink:title="The System class describes a system or network involved in an event. The systems or networks represented by this class are categorized according to the role they played in the incident through the category attribute. &#160;The value of this category attribute dictates the semantics of the aggregated classes in the System class. &#160;If the category attribute has a value of &quot;source&quot;, then the aggregated classes denote the machine and service from which the activity is originating. &#160;With a category attribute value of &quot;target&quot; or &quot;intermediary&quot;, then the machine or service is the one targeted in the activity. &#160;A value of &quot;sensor&quot; dictates that this System was part of an instrumentation to monitor the network. ">
<polygon fill="#182f5f" stroke="#182f5f" points="121,-485 121,-506 318,-506 318,-485 121,-485"/>
<polygon fill="none" stroke="black" points="121,-485 121,-506 318,-506 318,-485 121,-485"/>
<text text-anchor="start" x="199" y="-492.233" font-family="Times Roman,serif" font-size="14.00">System</text>
</a>
<a xlink:href="/help/iodefnav?iodef_class=System" xlink:title="A free&#45;form text description of the System.">
<polygon fill="#284f9f" stroke="#284f9f" points="121,-465 121,-485 318,-485 318,-465 121,-465"/>
<polygon fill="none" stroke="black" points="121,-465 121,-485 318,-485 318,-465 121,-465"/>
<text text-anchor="start" x="126" y="-471.733" font-family="Times Roman,serif" font-size="14.00">[ML_STRING] Description (0..*)</text>
</a>
<a xlink:href="/help/iodefnav?iodef_class=System" xlink:title="Classifies the role the host or network played in the incident. &#160;The possible values are:">
<polygon fill="#284f9f" stroke="#284f9f" points="121,-445 121,-465 318,-465 318,-445 121,-445"/>
<polygon fill="none" stroke="black" points="121,-445 121,-465 318,-465 318,-445 121,-445"/>
<text text-anchor="start" x="138" y="-451.733" font-family="Times Roman,serif" font-size="14.00">[ENUM] category (Required)</text>
</a>
<a xlink:href="/help/iodefnav?iodef_class=System" xlink:title="This attribute is defined in Section 3.2.">
<polygon fill="#284f9f" stroke="#284f9f" points="121,-425 121,-445 318,-445 318,-425 121,-425"/>
<polygon fill="none" stroke="black" points="121,-425 121,-445 318,-445 318,-425 121,-425"/>
<text text-anchor="start" x="135" y="-431.733" font-family="Times Roman,serif" font-size="14.00">[ENUM] restriction (Optional)</text>
</a>
<a xlink:href="/help/iodefnav?iodef_class=System" xlink:title="A means by which to extend the category attribute. &#160;See Section 5.1.">
<polygon fill="#284f9f" stroke="#284f9f" points="121,-405 121,-425 318,-425 318,-405 121,-405"/>
<polygon fill="none" stroke="black" points="121,-405 121,-425 318,-425 318,-405 121,-405"/>
<text text-anchor="start" x="124.5" y="-411.733" font-family="Times Roman,serif" font-size="14.00">[STRING] ext&#45;category (Optional)</text>
</a>
<a xlink:href="/help/iodefnav?iodef_class=System" xlink:title="An indication of confidence in whether this System was the true target or attacking host. &#160;The permitted values for this attribute are shown below. &#160;The default value is &quot;unknown&quot;.">
<polygon fill="#284f9f" stroke="#284f9f" points="121,-385 121,-405 318,-405 318,-385 121,-385"/>
<polygon fill="none" stroke="black" points="121,-385 121,-405 318,-405 318,-385 121,-385"/>
<text text-anchor="start" x="141" y="-391.733" font-family="Times Roman,serif" font-size="14.00">[ENUM] spoofed (Optional)</text>
</a>
<a xlink:href="/help/iodefnav?iodef_class=System" xlink:title="Specifies the interface on which the event(s) on this System originated. &#160;If the Node class specifies a network rather than a host, this attribute has no meaning.">
<polygon fill="#284f9f" stroke="#284f9f" points="121,-365 121,-385 318,-385 318,-365 121,-365"/>
<polygon fill="none" stroke="black" points="121,-365 121,-385 318,-385 318,-365 121,-365"/>
<text text-anchor="start" x="135" y="-371.733" font-family="Times Roman,serif" font-size="14.00">[STRING] interface (Optional)</text>
</a>
</g>
<!-- System&#45;&#45;Node -->
<g id="edge8" class="edge"><title>System&#45;&#45;Node</title>
<path fill="none" stroke="black" d="M295.245,-510.012C310.886,-523.897 327.596,-537.851 344,-550 362.737,-563.877 383.773,-577.457 404.03,-589.665"/>
<polygon fill="black" stroke="black" points="402.273,-592.692 412.655,-594.809 405.859,-586.681 402.273,-592.692"/>
<text text-anchor="middle" x="355" y="-570.4" font-family="Times Roman,serif" font-size="14.00">1..1</text>
</g>
<!-- System&#45;&#45;Counter -->
<g id="edge16" class="edge"><title>System&#45;&#45;Counter</title>
<path fill="none" stroke="black" d="M325.711,-490.136C344.706,-497.755 364.623,-504.509 384,-509 472.713,-529.56 575.95,-532.495 653.176,-530.736"/>
<polygon fill="black" stroke="black" points="653.511,-534.229 663.417,-530.472 653.33,-527.231 653.511,-534.229"/>
<text text-anchor="middle" x="494" y="-538.4" font-family="Times Roman,serif" font-size="14.00">0..*</text>
</g>
<!-- AdditionalData -->
<g id="node10" class="node"><title>AdditionalData</title>
<a xlink:href="/help/iodefnav?iodef_class=AdditionalData" xlink:title="The AdditionalData class serves as an extension mechanism for information not otherwise represented in the data model. &#160;For relatively simple information, atomic data types (e.g., integers, strings) are provided with a mechanism to annotate their meaning. The class can also be used to extend the data model (and the associated Schema) to support proprietary extensions by encapsulating entire XML documents conforming to another Schema (e.g., IDMEF). &#160;A detailed discussion for extending the data model and the schema can be found in Section 5. ">
<polygon fill="#997a3d" stroke="#997a3d" points="404,-475 404,-496 584,-496 584,-475 404,-475"/>
<polygon fill="none" stroke="black" points="404,-475 404,-496 584,-496 584,-475 404,-475"/>
<text text-anchor="start" x="452" y="-482.233" font-family="Times Roman,serif" font-size="14.00">AdditionalData</text>
</a>
<a xlink:href="/help/iodefnav?iodef_class=AdditionalData" xlink:title="The data type of the element content. &#160;The permitted values for this attribute are shown below. &#160;The default value is &quot;string&quot;.">
<polygon fill="#ffcc66" stroke="#ffcc66" points="404,-455 404,-475 584,-475 584,-455 404,-455"/>
<polygon fill="none" stroke="black" points="404,-455 404,-475 584,-475 584,-455 404,-455"/>
<text text-anchor="start" x="421" y="-461.733" font-family="Times Roman,serif" font-size="14.00">[ENUM] dtype (Required)</text>
</a>
<a xlink:href="/help/iodefnav?iodef_class=AdditionalData" xlink:title="A free&#45;form description of the element content.">
<polygon fill="#ffcc66" stroke="#ffcc66" points="404,-435 404,-455 584,-455 584,-435 404,-435"/>
<polygon fill="none" stroke="black" points="404,-435 404,-455 584,-455 584,-435 404,-435"/>
<text text-anchor="start" x="409.5" y="-441.733" font-family="Times Roman,serif" font-size="14.00">[STRING] meaning (Optional)</text>
</a>
<a xlink:href="/help/iodefnav?iodef_class=AdditionalData" xlink:title="A means by which to extend the dtype attribute. &#160;See Section 5.1.">
<polygon fill="#ffcc66" stroke="#ffcc66" points="404,-415 404,-435 584,-435 584,-415 404,-415"/>
<polygon fill="none" stroke="black" points="404,-415 404,-435 584,-435 584,-415 404,-415"/>
<text text-anchor="start" x="407.5" y="-421.733" font-family="Times Roman,serif" font-size="14.00">[STRING] ext&#45;dtype (Optional)</text>
</a>
<a xlink:href="/help/iodefnav?iodef_class=AdditionalData" xlink:title="An identifier referencing the format and semantics of the element content.">
<polygon fill="#ffcc66" stroke="#ffcc66" points="404,-395 404,-415 584,-415 584,-395 404,-395"/>
<polygon fill="none" stroke="black" points="404,-395 404,-415 584,-415 584,-395 404,-395"/>
<text text-anchor="start" x="409.5" y="-401.733" font-family="Times Roman,serif" font-size="14.00">[STRING] formatid (Optional)</text>
</a>
<a xlink:href="/help/iodefnav?iodef_class=AdditionalData" xlink:title="This attribute has been defined in Section 3.2.">
<polygon fill="#ffcc66" stroke="#ffcc66" points="404,-375 404,-395 584,-395 584,-375 404,-375"/>
<polygon fill="none" stroke="black" points="404,-375 404,-395 584,-395 584,-375 404,-375"/>
<text text-anchor="start" x="409.5" y="-381.733" font-family="Times Roman,serif" font-size="14.00">[ENUM] restriction (Optional)</text>
</a>
</g>
<!-- System&#45;&#45;AdditionalData -->
<g id="edge10" class="edge"><title>System&#45;&#45;AdditionalData</title>
<path fill="none" stroke="black" d="M325.716,-436C345.387,-436 365.943,-436 385.661,-436"/>
<polygon fill="black" stroke="black" points="385.887,-439.5 395.887,-436 385.887,-432.5 385.887,-439.5"/>
<text text-anchor="middle" x="355" y="-442.4" font-family="Times Roman,serif" font-size="14.00">0..*</text>
</g>
<!-- Service -->
<g id="node13" class="node"><title>Service</title>
<a xlink:href="/help/iodefnav?iodef_class=Service" xlink:title="The Service class describes a network service of a host or network. The service is identified by specific port or list of ports, along with the application listening on that port. ">
<polygon fill="#182f5f" stroke="#182f5f" points="393,-329 393,-350 596,-350 596,-329 393,-329"/>
<polygon fill="none" stroke="black" points="393,-329 393,-350 596,-350 596,-329 393,-329"/>
<text text-anchor="start" x="474" y="-336.233" font-family="Times Roman,serif" font-size="14.00">Service</text>
</a>
<a xlink:href="/help/iodefnav?iodef_class=Service" xlink:title="A layer&#45;4 protocol&#45;specific code field (e.g., ICMP code field).">
<polygon fill="#284f9f" stroke="#284f9f" points="393,-309 393,-329 596,-329 596,-309 393,-309"/>
<polygon fill="none" stroke="black" points="393,-309 393,-329 596,-329 596,-309 393,-309"/>
<text text-anchor="start" x="413" y="-315.733" font-family="Times Roman,serif" font-size="14.00">[INTEGER] ProtoCode (0..1)</text>
</a>
<a xlink:href="/help/iodefnav?iodef_class=Service" xlink:title="A layer&#45;4 protocol specific flag field (e.g., TCP flag field).">
<polygon fill="#284f9f" stroke="#284f9f" points="393,-289 393,-309 596,-309 596,-289 393,-289"/>
<polygon fill="none" stroke="black" points="393,-289 393,-309 596,-309 596,-289 393,-289"/>
<text text-anchor="start" x="413" y="-295.733" font-family="Times Roman,serif" font-size="14.00">[INTEGER] ProtoFlags (0..1)</text>
</a>
<a xlink:href="/help/iodefnav?iodef_class=Service" xlink:title="A list of port numbers formatted according to Section 2.10.">
<polygon fill="#284f9f" stroke="#284f9f" points="393,-269 393,-289 596,-289 596,-269 393,-269"/>
<polygon fill="none" stroke="black" points="393,-269 393,-289 596,-289 596,-269 393,-269"/>
<text text-anchor="start" x="420" y="-275.733" font-family="Times Roman,serif" font-size="14.00">[PORTLIST] Portlist (0..1)</text>
</a>
<a xlink:href="/help/iodefnav?iodef_class=Service" xlink:title="A layer&#45;4 protocol specific type field (e.g., ICMP type field).">
<polygon fill="#284f9f" stroke="#284f9f" points="393,-249 393,-269 596,-269 596,-249 393,-249"/>
<polygon fill="none" stroke="black" points="393,-249 393,-269 596,-269 596,-249 393,-249"/>
<text text-anchor="start" x="413.5" y="-255.733" font-family="Times Roman,serif" font-size="14.00">[INTEGER] ProtoType (0..1)</text>
</a>
<a xlink:href="/help/iodefnav?iodef_class=Service" xlink:title="A port number.">
<polygon fill="#284f9f" stroke="#284f9f" points="393,-229 393,-249 596,-249 596,-229 393,-229"/>
<polygon fill="none" stroke="black" points="393,-229 393,-249 596,-249 596,-229 393,-229"/>
<text text-anchor="start" x="431" y="-235.733" font-family="Times Roman,serif" font-size="14.00">[INTEGER] Port (0..1)</text>
</a>
<a xlink:href="/help/iodefnav?iodef_class=Service" xlink:title="The IANA protocol number.">
<polygon fill="#284f9f" stroke="#284f9f" points="393,-209 393,-229 596,-229 596,-209 393,-209"/>
<polygon fill="none" stroke="black" points="393,-209 393,-229 596,-229 596,-209 393,-209"/>
<text text-anchor="start" x="396.5" y="-215.733" font-family="Times Roman,serif" font-size="14.00">[INTEGER] ip_protocol (Required)</text>
</a>
</g>
<!-- System&#45;&#45;Service -->
<g id="edge14" class="edge"><title>System&#45;&#45;Service</title>
<path fill="none" stroke="black" d="M325.716,-375.463C341.894,-366.286 358.672,-356.768 375.089,-347.455"/>
<polygon fill="black" stroke="black" points="377.196,-350.284 384.167,-342.306 373.742,-344.195 377.196,-350.284"/>
<text text-anchor="middle" x="355" y="-369.4" font-family="Times Roman,serif" font-size="14.00">0..*</text>
</g>
<!-- OperatingSystem -->
<g id="node17" class="node"><title>OperatingSystem</title>
<a xlink:href="/help/iodefnav?iodef_class=OperatingSystem" xlink:title="The OperatingSystem class describes the operating system running on a System. &#160;The definition is identical to the Application class (Section 3.17.1). ">
<polygon fill="#182f5f" stroke="#182f5f" points="407,-163 407,-184 581,-184 581,-163 407,-163"/>
<polygon fill="none" stroke="black" points="407,-163 407,-184 581,-184 581,-163 407,-163"/>
<text text-anchor="start" x="446.5" y="-170.233" font-family="Times Roman,serif" font-size="14.00">OperatingSystem</text>
</a>
<a xlink:href="/help/iodefnav?iodef_class=OperatingSystem" xlink:title="A URL describing the application.">
<polygon fill="#284f9f" stroke="#284f9f" points="407,-143 407,-163 581,-163 581,-143 407,-143"/>
<polygon fill="none" stroke="black" points="407,-143 407,-163 581,-163 581,-143 407,-143"/>
<text text-anchor="start" x="443.5" y="-149.733" font-family="Times Roman,serif" font-size="14.00">[URL] URL (0..1)</text>
</a>
<a xlink:href="/help/iodefnav?iodef_class=OperatingSystem" xlink:title="Version of the software.">
<polygon fill="#284f9f" stroke="#284f9f" points="407,-123 407,-143 581,-143 581,-123 407,-123"/>
<polygon fill="none" stroke="black" points="407,-123 407,-143 581,-143 581,-123 407,-123"/>
<text text-anchor="start" x="413" y="-129.733" font-family="Times Roman,serif" font-size="14.00">[STRING] version (Optional)</text>
</a>
<a xlink:href="/help/iodefnav?iodef_class=OperatingSystem" xlink:title="Vendor name of the software.">
<polygon fill="#284f9f" stroke="#284f9f" points="407,-103 407,-123 581,-123 581,-103 407,-103"/>
<polygon fill="none" stroke="black" points="407,-103 407,-123 581,-123 581,-103 407,-103"/>
<text text-anchor="start" x="414" y="-109.733" font-family="Times Roman,serif" font-size="14.00">[STRING] vendor (Optional)</text>
</a>
<a xlink:href="/help/iodefnav?iodef_class=OperatingSystem" xlink:title="Name of the software.">
<polygon fill="#284f9f" stroke="#284f9f" points="407,-83 407,-103 581,-103 581,-83 407,-83"/>
<polygon fill="none" stroke="black" points="407,-83 407,-103 581,-103 581,-83 407,-83"/>
<text text-anchor="start" x="418" y="-89.7333" font-family="Times Roman,serif" font-size="14.00">[STRING] name (Optional)</text>
</a>
<a xlink:href="/help/iodefnav?iodef_class=OperatingSystem" xlink:title="Family of the software.">
<polygon fill="#284f9f" stroke="#284f9f" points="407,-63 407,-83 581,-83 581,-63 407,-63"/>
<polygon fill="none" stroke="black" points="407,-63 407,-83 581,-83 581,-63 407,-63"/>
<text text-anchor="start" x="415" y="-69.7333" font-family="Times Roman,serif" font-size="14.00">[STRING] family (Optional)</text>
</a>
<a xlink:href="/help/iodefnav?iodef_class=OperatingSystem" xlink:title="An identifier that can be used to reference a particular configuration of this software.">
<polygon fill="#284f9f" stroke="#284f9f" points="407,-43 407,-63 581,-63 581,-43 407,-43"/>
<polygon fill="none" stroke="black" points="407,-43 407,-63 581,-63 581,-43 407,-43"/>
<text text-anchor="start" x="410.5" y="-49.7333" font-family="Times Roman,serif" font-size="14.00">[STRING] configid (Optional)</text>
</a>
<a xlink:href="/help/iodefnav?iodef_class=OperatingSystem" xlink:title="An identifier that can be used to reference this software.">
<polygon fill="#284f9f" stroke="#284f9f" points="407,-23 407,-43 581,-43 581,-23 407,-23"/>
<polygon fill="none" stroke="black" points="407,-23 407,-43 581,-43 581,-23 407,-23"/>
<text text-anchor="start" x="420" y="-29.7333" font-family="Times Roman,serif" font-size="14.00">[STRING] swid (Optional)</text>
</a>
<a xlink:href="/help/iodefnav?iodef_class=OperatingSystem" xlink:title="Patch or service pack level of the software.">
<polygon fill="#284f9f" stroke="#284f9f" points="407,-3 407,-23 581,-23 581,-3 407,-3"/>
<polygon fill="none" stroke="black" points="407,-3 407,-23 581,-23 581,-3 407,-3"/>
<text text-anchor="start" x="418.5" y="-9.73333" font-family="Times Roman,serif" font-size="14.00">[STRING] patch (Optional)</text>
</a>
</g>
<!-- System&#45;&#45;OperatingSystem -->
<g id="edge18" class="edge"><title>System&#45;&#45;OperatingSystem</title>
<path fill="none" stroke="black" d="M264.269,-361.931C295.468,-313.152 339.238,-248.947 384,-197 386.568,-194.019 389.215,-191.033 391.921,-188.053"/>
<polygon fill="black" stroke="black" points="394.537,-190.38 398.76,-180.663 389.399,-185.625 394.537,-190.38"/>
<text text-anchor="middle" x="355" y="-253.4" font-family="Times Roman,serif" font-size="14.00">0..1</text>
</g>
<!-- Application -->
<g id="node12" class="node"><title>Application</title>
<a xlink:href="/help/iodefnav?iodef_class=Application" xlink:title="The Application class describes an application running on a System providing a Service. ">
<polygon fill="#182f5f" stroke="#182f5f" points="682,-349 682,-370 856,-370 856,-349 682,-349"/>
<polygon fill="none" stroke="black" points="682,-349 682,-370 856,-370 856,-349 682,-349"/>
<text text-anchor="start" x="737" y="-356.233" font-family="Times Roman,serif" font-size="14.00">Application</text>
</a>
<a xlink:href="/help/iodefnav?iodef_class=Application" xlink:title="A URL describing the application.">
<polygon fill="#284f9f" stroke="#284f9f" points="682,-329 682,-349 856,-349 856,-329 682,-329"/>
<polygon fill="none" stroke="black" points="682,-329 682,-349 856,-349 856,-329 682,-329"/>
<text text-anchor="start" x="718.5" y="-335.733" font-family="Times Roman,serif" font-size="14.00">[URL] URL (0..1)</text>
</a>
<a xlink:href="/help/iodefnav?iodef_class=Application" xlink:title="Version of the software.">
<polygon fill="#284f9f" stroke="#284f9f" points="682,-309 682,-329 856,-329 856,-309 682,-309"/>
<polygon fill="none" stroke="black" points="682,-309 682,-329 856,-329 856,-309 682,-309"/>
<text text-anchor="start" x="688" y="-315.733" font-family="Times Roman,serif" font-size="14.00">[STRING] version (Optional)</text>
</a>
<a xlink:href="/help/iodefnav?iodef_class=Application" xlink:title="Vendor name of the software.">
<polygon fill="#284f9f" stroke="#284f9f" points="682,-289 682,-309 856,-309 856,-289 682,-289"/>
<polygon fill="none" stroke="black" points="682,-289 682,-309 856,-309 856,-289 682,-289"/>
<text text-anchor="start" x="689" y="-295.733" font-family="Times Roman,serif" font-size="14.00">[STRING] vendor (Optional)</text>
</a>
<a xlink:href="/help/iodefnav?iodef_class=Application" xlink:title="Name of the software.">
<polygon fill="#284f9f" stroke="#284f9f" points="682,-269 682,-289 856,-289 856,-269 682,-269"/>
<polygon fill="none" stroke="black" points="682,-269 682,-289 856,-289 856,-269 682,-269"/>
<text text-anchor="start" x="693" y="-275.733" font-family="Times Roman,serif" font-size="14.00">[STRING] name (Optional)</text>
</a>
<a xlink:href="/help/iodefnav?iodef_class=Application" xlink:title="Family of the software.">
<polygon fill="#284f9f" stroke="#284f9f" points="682,-249 682,-269 856,-269 856,-249 682,-249"/>
<polygon fill="none" stroke="black" points="682,-249 682,-269 856,-269 856,-249 682,-249"/>
<text text-anchor="start" x="690" y="-255.733" font-family="Times Roman,serif" font-size="14.00">[STRING] family (Optional)</text>
</a>
<a xlink:href="/help/iodefnav?iodef_class=Application" xlink:title="An identifier that can be used to reference a particular configuration of this software.">
<polygon fill="#284f9f" stroke="#284f9f" points="682,-229 682,-249 856,-249 856,-229 682,-229"/>
<polygon fill="none" stroke="black" points="682,-229 682,-249 856,-249 856,-229 682,-229"/>
<text text-anchor="start" x="685.5" y="-235.733" font-family="Times Roman,serif" font-size="14.00">[STRING] configid (Optional)</text>
</a>
<a xlink:href="/help/iodefnav?iodef_class=Application" xlink:title="An identifier that can be used to reference this software.">
<polygon fill="#284f9f" stroke="#284f9f" points="682,-209 682,-229 856,-229 856,-209 682,-209"/>
<polygon fill="none" stroke="black" points="682,-209 682,-229 856,-229 856,-209 682,-209"/>
<text text-anchor="start" x="695" y="-215.733" font-family="Times Roman,serif" font-size="14.00">[STRING] swid (Optional)</text>
</a>
<a xlink:href="/help/iodefnav?iodef_class=Application" xlink:title="Patch or service pack level of the software.">
<polygon fill="#284f9f" stroke="#284f9f" points="682,-189 682,-209 856,-209 856,-189 682,-189"/>
<polygon fill="none" stroke="black" points="682,-189 682,-209 856,-209 856,-189 682,-189"/>
<text text-anchor="start" x="693.5" y="-195.733" font-family="Times Roman,serif" font-size="14.00">[STRING] patch (Optional)</text>
</a>
</g>
<!-- Service&#45;&#45;Application -->
<g id="edge12" class="edge"><title>Service&#45;&#45;Application</title>
<path fill="none" stroke="black" d="M603.873,-280C623.62,-280 644.159,-280 663.771,-280"/>
<polygon fill="black" stroke="black" points="663.933,-283.5 673.933,-280 663.933,-276.5 663.933,-283.5"/>
<text text-anchor="middle" x="633" y="-286.4" font-family="Times Roman,serif" font-size="14.00">0..*</text>
</g>
<!-- Flow -->
<g id="node19" class="node"><title>Flow</title>
<a xlink:href="/help/iodefnav?iodef_class=Flow" xlink:title="The Flow class groups related the source and target hosts. ">
<polygon fill="#182f5f" stroke="#182f5f" points="10,-425 10,-446 45,-446 45,-425 10,-425"/>
<polygon fill="none" stroke="black" points="10,-425 10,-446 45,-446 45,-425 10,-425"/>
<text text-anchor="start" x="13.5" y="-432.233" font-family="Times Roman,serif" font-size="14.00">Flow</text>
</a>
</g>
<!-- Flow&#45;&#45;System -->
<g id="edge20" class="edge"><title>Flow&#45;&#45;System</title>
<path fill="none" stroke="black" d="M54.1017,-436C67.3588,-436 84.3208,-436 102.3,-436"/>
<polygon fill="black" stroke="black" points="102.376,-439.5 112.376,-436 102.376,-432.5 102.376,-439.5"/>
<text text-anchor="middle" x="83" y="-442.4" font-family="Times Roman,serif" font-size="14.00">1..*</text>
</g>
</g>
</svg>
