<?xml version="1.0" encoding="UTF-8" standalone="no"?>
<!DOCTYPE svg PUBLIC "-//W3C//DTD SVG 1.1//EN"
 "http://www.w3.org/Graphics/SVG/1.1/DTD/svg11.dtd">
<!-- Generated by graphviz version 2.26.0 (20091210.2329)
 -->
<!-- Title: _anonymous_0 Pages: 1 -->
<svg width="1014pt" height="428pt"
 viewBox="0.00 0.00 1014.00 428.00" xmlns="http://www.w3.org/2000/svg" xmlns:xlink="http://www.w3.org/1999/xlink">
<g id="graph1" class="graph" transform="scale(1 1) rotate(0) translate(4 424)">
<title>_anonymous_0</title>
<polygon fill="white" stroke="white" points="-4,5 -4,-424 1011,-424 1011,5 -4,5"/>
<!-- AdditionalData -->
<g id="node1" class="node"><title>AdditionalData</title>
<a xlink:href="/help/iodefnav?iodef_class=AdditionalData" xlink:title="The AdditionalData class serves as an extension mechanism for information not otherwise represented in the data model. &#160;For relatively simple information, atomic data types (e.g., integers, strings) are provided with a mechanism to annotate their meaning. The class can also be used to extend the data model (and the associated Schema) to support proprietary extensions by encapsulating entire XML documents conforming to another Schema (e.g., IDMEF). &#160;A detailed discussion for extending the data model and the schema can be found in Section 5. ">
<polygon fill="#997a3d" stroke="#997a3d" points="812,-395 812,-416 992,-416 992,-395 812,-395"/>
<polygon fill="none" stroke="black" points="812,-395 812,-416 992,-416 992,-395 812,-395"/>
<text text-anchor="start" x="860" y="-402.233" font-family="Times Roman,serif" font-size="14.00">AdditionalData</text>
</a>
<a xlink:href="/help/iodefnav?iodef_class=AdditionalData" xlink:title="The data type of the element content. &#160;The permitted values for this attribute are shown below. &#160;The default value is &quot;string&quot;.">
<polygon fill="#ffcc66" stroke="#ffcc66" points="812,-375 812,-395 992,-395 992,-375 812,-375"/>
<polygon fill="none" stroke="black" points="812,-375 812,-395 992,-395 992,-375 812,-375"/>
<text text-anchor="start" x="829" y="-381.733" font-family="Times Roman,serif" font-size="14.00">[ENUM] dtype (Required)</text>
</a>
<a xlink:href="/help/iodefnav?iodef_class=AdditionalData" xlink:title="A free&#45;form description of the element content.">
<polygon fill="#ffcc66" stroke="#ffcc66" points="812,-355 812,-375 992,-375 992,-355 812,-355"/>
<polygon fill="none" stroke="black" points="812,-355 812,-375 992,-375 992,-355 812,-355"/>
<text text-anchor="start" x="817.5" y="-361.733" font-family="Times Roman,serif" font-size="14.00">[STRING] meaning (Optional)</text>
</a>
<a xlink:href="/help/iodefnav?iodef_class=AdditionalData" xlink:title="A means by which to extend the dtype attribute. &#160;See Section 5.1.">
<polygon fill="#ffcc66" stroke="#ffcc66" points="812,-335 812,-355 992,-355 992,-335 812,-335"/>
<polygon fill="none" stroke="black" points="812,-335 812,-355 992,-355 992,-335 812,-335"/>
<text text-anchor="start" x="815.5" y="-341.733" font-family="Times Roman,serif" font-size="14.00">[STRING] ext&#45;dtype (Optional)</text>
</a>
<a xlink:href="/help/iodefnav?iodef_class=AdditionalData" xlink:title="An identifier referencing the format and semantics of the element content.">
<polygon fill="#ffcc66" stroke="#ffcc66" points="812,-315 812,-335 992,-335 992,-315 812,-315"/>
<polygon fill="none" stroke="black" points="812,-315 812,-335 992,-335 992,-315 812,-315"/>
<text text-anchor="start" x="817.5" y="-321.733" font-family="Times Roman,serif" font-size="14.00">[STRING] formatid (Optional)</text>
</a>
<a xlink:href="/help/iodefnav?iodef_class=AdditionalData" xlink:title="This attribute has been defined in Section 3.2.">
<polygon fill="#ffcc66" stroke="#ffcc66" points="812,-295 812,-315 992,-315 992,-295 812,-295"/>
<polygon fill="none" stroke="black" points="812,-295 812,-315 992,-315 992,-295 812,-295"/>
<text text-anchor="start" x="817.5" y="-301.733" font-family="Times Roman,serif" font-size="14.00">[ENUM] restriction (Optional)</text>
</a>
</g>
<!-- HistoryItem -->
<g id="node2" class="node"><title>HistoryItem</title>
<a xlink:href="/help/iodefnav?iodef_class=HistoryItem" xlink:title="The HistoryItem class is an entry in the History (Section 3.11) log that documents a particular action or event that occurred in the course of handling the incident. &#160;The details of the entry are a free&#45;form description, but each can be categorized with the type attribute. ">
<polygon fill="#006930" stroke="#006930" points="258,-372 258,-393 452,-393 452,-372 258,-372"/>
<polygon fill="none" stroke="black" points="258,-372 258,-393 452,-393 452,-372 258,-372"/>
<text text-anchor="start" x="321.5" y="-379.233" font-family="Times Roman,serif" font-size="14.00">HistoryItem</text>
</a>
<a xlink:href="/help/iodefnav?iodef_class=HistoryItem" xlink:title="A free&#45;form textual description of the action or event.">
<polygon fill="#00b050" stroke="#00b050" points="258,-352 258,-372 452,-372 452,-352 258,-352"/>
<polygon fill="none" stroke="black" points="258,-352 258,-372 452,-372 452,-352 258,-352"/>
<text text-anchor="start" x="261.5" y="-358.733" font-family="Times Roman,serif" font-size="14.00">[ML_STRING] Description (0..*)</text>
</a>
<a xlink:href="/help/iodefnav?iodef_class=HistoryItem" xlink:title="Timestamp of this entry in the history log (e.g., when the action described in the Description was taken).">
<polygon fill="#00b050" stroke="#00b050" points="258,-332 258,-352 452,-352 452,-332 258,-332"/>
<polygon fill="none" stroke="black" points="258,-332 258,-352 452,-352 452,-332 258,-332"/>
<text text-anchor="start" x="289.5" y="-338.733" font-family="Times Roman,serif" font-size="14.00">[None] DateTime (1..1)</text>
</a>
<a xlink:href="/help/iodefnav?iodef_class=HistoryItem" xlink:title="Classifies a performed action or occurrence documented in this history log entry. &#160;As activity will likely have been instigated either through a previously conveyed expectation or internal investigation, this attribute is identical to the category attribute of the Expectation class. &#160;The difference is only one of tense. &#160;When an action is in this class, it has been completed. &#160;See Section 3.13.">
<polygon fill="#00b050" stroke="#00b050" points="258,-312 258,-332 452,-332 452,-312 258,-312"/>
<polygon fill="none" stroke="black" points="258,-312 258,-332 452,-332 452,-312 258,-312"/>
<text text-anchor="start" x="280.5" y="-318.733" font-family="Times Roman,serif" font-size="14.00">[ENUM] action (Required)</text>
</a>
<a xlink:href="/help/iodefnav?iodef_class=HistoryItem" xlink:title="This attribute has been defined in Section 3.2.">
<polygon fill="#00b050" stroke="#00b050" points="258,-292 258,-312 452,-312 452,-292 258,-292"/>
<polygon fill="none" stroke="black" points="258,-292 258,-312 452,-312 452,-292 258,-292"/>
<text text-anchor="start" x="270.5" y="-298.733" font-family="Times Roman,serif" font-size="14.00">[ENUM] restriction (Optional)</text>
</a>
<a xlink:href="/help/iodefnav?iodef_class=HistoryItem" xlink:title="A means by which to extend the action attribute. &#160;See Section 5.1.">
<polygon fill="#00b050" stroke="#00b050" points="258,-272 258,-292 452,-292 452,-272 258,-272"/>
<polygon fill="none" stroke="black" points="258,-272 258,-292 452,-292 452,-272 258,-272"/>
<text text-anchor="start" x="267" y="-278.733" font-family="Times Roman,serif" font-size="14.00">[STRING] ext&#45;action (Optional)</text>
</a>
</g>
<!-- HistoryItem&#45;&#45;AdditionalData -->
<g id="edge2" class="edge"><title>HistoryItem&#45;&#45;AdditionalData</title>
<path fill="none" stroke="black" d="M460.349,-372.558C479.292,-378.141 499.043,-382.996 518,-386 615.45,-401.445 641.747,-395.021 740,-386 757.544,-384.389 776.024,-381.817 793.973,-378.839"/>
<polygon fill="black" stroke="black" points="794.614,-382.28 803.882,-377.146 793.435,-375.38 794.614,-382.28"/>
<text text-anchor="middle" x="629" y="-401.4" font-family="Times Roman,serif" font-size="14.00">0..*</text>
</g>
<!-- IncidentID -->
<g id="node4" class="node"><title>IncidentID</title>
<a xlink:href="/help/iodefnav?iodef_class=IncidentID" xlink:title="The IncidentID class represents an incident tracking number that is unique in the context of the CSIRT and identifies the activity characterized in an IODEF Document. &#160;This identifier would serve as an index into the CSIRT incident handling system. &#160;The combination of the name attribute and the string in the element content MUST be a globally unique identifier describing the activity. &#160;Documents generated by a given CSIRT MUST NOT reuse the same value unless they are referencing the same incident. ">
<polygon fill="#5b7a00" stroke="#5b7a00" points="541,-352 541,-373 717,-373 717,-352 541,-352"/>
<polygon fill="none" stroke="black" points="541,-352 541,-373 717,-373 717,-352 541,-352"/>
<text text-anchor="start" x="599.5" y="-359.233" font-family="Times Roman,serif" font-size="14.00">IncidentID</text>
</a>
<a xlink:href="/help/iodefnav?iodef_class=IncidentID" xlink:title="An identifier referencing a subset of the named incident.">
<polygon fill="#99cc00" stroke="#99cc00" points="541,-332 541,-352 717,-352 717,-332 541,-332"/>
<polygon fill="none" stroke="black" points="541,-332 541,-352 717,-352 717,-332 541,-332"/>
<text text-anchor="start" x="546" y="-338.733" font-family="Times Roman,serif" font-size="14.00">[STRING] instance (Optional)</text>
</a>
<a xlink:href="/help/iodefnav?iodef_class=IncidentID" xlink:title="An identifier describing the CSIRT that created the document. &#160;In order to have a globally unique CSIRT name, the fully qualified domain name associated with the CSIRT MUST be used.">
<polygon fill="#99cc00" stroke="#99cc00" points="541,-312 541,-332 717,-332 717,-312 541,-312"/>
<polygon fill="none" stroke="black" points="541,-312 541,-332 717,-332 717,-312 541,-312"/>
<text text-anchor="start" x="552" y="-318.733" font-family="Times Roman,serif" font-size="14.00">[STRING] name (Required)</text>
</a>
<a xlink:href="/help/iodefnav?iodef_class=IncidentID" xlink:title="This attribute has been defined in Section 3.2.">
<polygon fill="#99cc00" stroke="#99cc00" points="541,-292 541,-312 717,-312 717,-292 541,-292"/>
<polygon fill="none" stroke="black" points="541,-292 541,-312 717,-312 717,-292 541,-292"/>
<text text-anchor="start" x="544.5" y="-298.733" font-family="Times Roman,serif" font-size="14.00">[ENUM] restriction (Optional)</text>
</a>
</g>
<!-- HistoryItem&#45;&#45;IncidentID -->
<g id="edge4" class="edge"><title>HistoryItem&#45;&#45;IncidentID</title>
<path fill="none" stroke="black" d="M460.152,-333C480.55,-333 501.946,-333 522.391,-333"/>
<polygon fill="black" stroke="black" points="522.663,-336.5 532.663,-333 522.663,-329.5 522.663,-336.5"/>
<text text-anchor="middle" x="489" y="-339.4" font-family="Times Roman,serif" font-size="14.00">0..1</text>
</g>
<!-- Contact -->
<g id="node6" class="node"><title>Contact</title>
<a xlink:href="/help/iodefnav?iodef_class=Contact" xlink:title="The Contact class describes contact information for organizations and personnel involved in the incident. &#160;This class allows for the naming of the involved party, specifying contact information for them, and identifying their role in the incident. ">
<polygon fill="#7a993d" stroke="#7a993d" points="526,-209 526,-230 732,-230 732,-209 526,-209"/>
<polygon fill="none" stroke="black" points="526,-209 526,-230 732,-230 732,-209 526,-209"/>
<text text-anchor="start" x="607.5" y="-216.233" font-family="Times Roman,serif" font-size="14.00">Contact</text>
</a>
<a xlink:href="/help/iodefnav?iodef_class=Contact" xlink:title="The facsimile telephone number of the contact.">
<polygon fill="#ccff66" stroke="#ccff66" points="526,-189 526,-209 732,-209 732,-189 526,-189"/>
<polygon fill="none" stroke="black" points="526,-189 526,-209 732,-209 732,-189 526,-189"/>
<text text-anchor="start" x="580.5" y="-195.733" font-family="Times Roman,serif" font-size="14.00">[None] Fax (0..1)</text>
</a>
<a xlink:href="/help/iodefnav?iodef_class=Contact" xlink:title="A free&#45;form description of this contact. &#160;In the case of a person, this is often the organizational title of the individual.">
<polygon fill="#ccff66" stroke="#ccff66" points="526,-169 526,-189 732,-189 732,-169 526,-169"/>
<polygon fill="none" stroke="black" points="526,-169 526,-189 732,-189 732,-169 526,-169"/>
<text text-anchor="start" x="535.5" y="-175.733" font-family="Times Roman,serif" font-size="14.00">[ML_STRING] Description (0..*)</text>
</a>
<a xlink:href="/help/iodefnav?iodef_class=Contact" xlink:title="The telephone number of the contact.">
<polygon fill="#ccff66" stroke="#ccff66" points="526,-149 526,-169 732,-169 732,-149 526,-149"/>
<polygon fill="none" stroke="black" points="526,-149 526,-169 732,-169 732,-149 526,-149"/>
<text text-anchor="start" x="562.5" y="-155.733" font-family="Times Roman,serif" font-size="14.00">[None] Telephone (0..*)</text>
</a>
<a xlink:href="/help/iodefnav?iodef_class=Contact" xlink:title="The name of the contact. &#160;The contact may either be an organization or a person. &#160;The type attribute disambiguates the semantics.">
<polygon fill="#ccff66" stroke="#ccff66" points="526,-129 526,-149 732,-149 732,-129 526,-129"/>
<polygon fill="none" stroke="black" points="526,-129 526,-149 732,-149 732,-129 526,-129"/>
<text text-anchor="start" x="529.5" y="-135.733" font-family="Times Roman,serif" font-size="14.00">[ML_STRING] ContactName (0..1)</text>
</a>
<a xlink:href="/help/iodefnav?iodef_class=Contact" xlink:title="The timezone in which the contact resides formatted according to Section 2.9.">
<polygon fill="#ccff66" stroke="#ccff66" points="526,-109 526,-129 732,-129 732,-109 526,-109"/>
<polygon fill="none" stroke="black" points="526,-109 526,-129 732,-129 732,-109 526,-109"/>
<text text-anchor="start" x="543" y="-115.733" font-family="Times Roman,serif" font-size="14.00">[TIMEZONE] Timezone (0..1)</text>
</a>
<a xlink:href="/help/iodefnav?iodef_class=Contact" xlink:title="Indicates the role the contact fulfills. &#160;This attribute is defined as an enumerated list:">
<polygon fill="#ccff66" stroke="#ccff66" points="526,-89 526,-109 732,-109 732,-89 526,-89"/>
<polygon fill="none" stroke="black" points="526,-89 526,-109 732,-109 732,-89 526,-89"/>
<text text-anchor="start" x="560.5" y="-95.7333" font-family="Times Roman,serif" font-size="14.00">[ENUM] role (Required)</text>
</a>
<a xlink:href="/help/iodefnav?iodef_class=Contact" xlink:title="Indicates the type of contact being described. This attribute is defined as an enumerated list:">
<polygon fill="#ccff66" stroke="#ccff66" points="526,-69 526,-89 732,-89 732,-69 526,-69"/>
<polygon fill="none" stroke="black" points="526,-69 526,-89 732,-89 732,-69 526,-69"/>
<text text-anchor="start" x="559.5" y="-75.7333" font-family="Times Roman,serif" font-size="14.00">[ENUM] type (Required)</text>
</a>
<a xlink:href="/help/iodefnav?iodef_class=Contact" xlink:title="A means by which to extend the role attribute. See Section 5.1.">
<polygon fill="#ccff66" stroke="#ccff66" points="526,-49 526,-69 732,-69 732,-49 526,-49"/>
<polygon fill="none" stroke="black" points="526,-49 526,-69 732,-69 732,-49 526,-49"/>
<text text-anchor="start" x="547" y="-55.7333" font-family="Times Roman,serif" font-size="14.00">[STRING] ext&#45;role (Optional)</text>
</a>
<a xlink:href="/help/iodefnav?iodef_class=Contact" xlink:title="A means by which to extend the type attribute. See Section 5.1.">
<polygon fill="#ccff66" stroke="#ccff66" points="526,-29 526,-49 732,-49 732,-29 526,-29"/>
<polygon fill="none" stroke="black" points="526,-29 526,-49 732,-49 732,-29 526,-29"/>
<text text-anchor="start" x="546" y="-35.7333" font-family="Times Roman,serif" font-size="14.00">[STRING] ext&#45;type (Optional)</text>
</a>
<a xlink:href="/help/iodefnav?iodef_class=Contact" xlink:title="This attribute is defined in Section 3.2.">
<polygon fill="#ccff66" stroke="#ccff66" points="526,-9 526,-29 732,-29 732,-9 526,-9"/>
<polygon fill="none" stroke="black" points="526,-9 526,-29 732,-29 732,-9 526,-9"/>
<text text-anchor="start" x="544.5" y="-15.7333" font-family="Times Roman,serif" font-size="14.00">[ENUM] restriction (Optional)</text>
</a>
</g>
<!-- HistoryItem&#45;&#45;Contact -->
<g id="edge16" class="edge"><title>HistoryItem&#45;&#45;Contact</title>
<path fill="none" stroke="black" d="M437.581,-268.804C460.401,-251.064 485.628,-231.454 510.072,-212.451"/>
<polygon fill="black" stroke="black" points="512.231,-215.206 517.978,-206.306 507.934,-209.68 512.231,-215.206"/>
<text text-anchor="middle" x="489" y="-239.4" font-family="Times Roman,serif" font-size="14.00">0..1</text>
</g>
<!-- Contact&#45;&#45;AdditionalData -->
<g id="edge6" class="edge"><title>Contact&#45;&#45;AdditionalData</title>
<path fill="none" stroke="black" d="M740.04,-215.99C766.796,-239.12 794.905,-263.42 820.056,-285.162"/>
<polygon fill="black" stroke="black" points="817.908,-287.932 827.762,-291.824 822.486,-282.636 817.908,-287.932"/>
<text text-anchor="middle" x="769" y="-252.4" font-family="Times Roman,serif" font-size="14.00">0..*</text>
</g>
<!-- Contact&#45;&#45;Contact -->
<g id="edge10" class="edge"><title>Contact&#45;&#45;Contact</title>
<path fill="none" stroke="black" d="M607.774,-234.054C612.081,-245.039 619.156,-252 629,-252 635.768,-252 641.227,-248.71 645.377,-243.084"/>
<polygon fill="black" stroke="black" points="648.579,-244.52 650.226,-234.054 642.411,-241.208 648.579,-244.52"/>
<text text-anchor="middle" x="629" y="-258.4" font-family="Times Roman,serif" font-size="14.00">0..*</text>
</g>
<!-- Email -->
<g id="node8" class="node"><title>Email</title>
<a xlink:href="/help/iodefnav?iodef_class=Email" xlink:title="The Email class specifies an email address formatted according to EMAIL data type (Section 2.14). ">
<polygon fill="#7a993d" stroke="#7a993d" points="818,-195 818,-216 986,-216 986,-195 818,-195"/>
<polygon fill="none" stroke="black" points="818,-195 818,-216 986,-216 986,-195 818,-195"/>
<text text-anchor="start" x="885" y="-202.233" font-family="Times Roman,serif" font-size="14.00">Email</text>
</a>
<a xlink:href="/help/iodefnav?iodef_class=Email" xlink:title="A free&#45;form description of the element content (e.g., hours of coverage for a given number).">
<polygon fill="#ccff66" stroke="#ccff66" points="818,-175 818,-195 986,-195 986,-175 818,-175"/>
<polygon fill="none" stroke="black" points="818,-175 818,-195 986,-195 986,-175 818,-175"/>
<text text-anchor="start" x="821.5" y="-181.733" font-family="Times Roman,serif" font-size="14.00">[ENUM] meaning (Optional)</text>
</a>
</g>
<!-- Contact&#45;&#45;Email -->
<g id="edge8" class="edge"><title>Contact&#45;&#45;Email</title>
<path fill="none" stroke="black" d="M740.04,-150.912C761.93,-157.006 784.726,-163.352 806.067,-169.293"/>
<polygon fill="black" stroke="black" points="805.189,-172.682 815.762,-171.992 807.067,-165.939 805.189,-172.682"/>
<text text-anchor="middle" x="769" y="-167.4" font-family="Times Roman,serif" font-size="14.00">0..*</text>
</g>
<!-- PostalAddress -->
<g id="node11" class="node"><title>PostalAddress</title>
<a xlink:href="/help/iodefnav?iodef_class=PostalAddress" xlink:title="The PostalAddress class specifies a postal address formatted according to the POSTAL data type (Section 2.11). ">
<polygon fill="#7a993d" stroke="#7a993d" points="818,-129 818,-150 986,-150 986,-129 818,-129"/>
<polygon fill="none" stroke="black" points="818,-129 818,-150 986,-150 986,-129 818,-129"/>
<text text-anchor="start" x="863" y="-136.233" font-family="Times Roman,serif" font-size="14.00">PostalAddress</text>
</a>
<a xlink:href="/help/iodefnav?iodef_class=PostalAddress" xlink:title="A valid language code per RFC 4646 [7] constrained by the definition of &quot;xs:language&quot;. &#160;The interpretation of this code is described in Section 6.">
<polygon fill="#ccff66" stroke="#ccff66" points="818,-109 818,-129 986,-129 986,-109 818,-109"/>
<polygon fill="none" stroke="black" points="818,-109 818,-129 986,-129 986,-109 818,-109"/>
<text text-anchor="start" x="832.5" y="-115.733" font-family="Times Roman,serif" font-size="14.00">[ENUM] lang (Required)</text>
</a>
<a xlink:href="/help/iodefnav?iodef_class=PostalAddress" xlink:title="A free&#45;form description of the element content.">
<polygon fill="#ccff66" stroke="#ccff66" points="818,-89 818,-109 986,-109 986,-89 818,-89"/>
<polygon fill="none" stroke="black" points="818,-89 818,-109 986,-109 986,-89 818,-89"/>
<text text-anchor="start" x="821.5" y="-95.7333" font-family="Times Roman,serif" font-size="14.00">[ENUM] meaning (Optional)</text>
</a>
</g>
<!-- Contact&#45;&#45;PostalAddress -->
<g id="edge12" class="edge"><title>Contact&#45;&#45;PostalAddress</title>
<path fill="none" stroke="black" d="M740.04,-120C759.776,-120 780.248,-120 799.726,-120"/>
<polygon fill="black" stroke="black" points="799.813,-123.5 809.813,-120 799.813,-116.5 799.813,-123.5"/>
<text text-anchor="middle" x="769" y="-126.4" font-family="Times Roman,serif" font-size="14.00">0..1</text>
</g>
<!-- RegistryHandle -->
<g id="node13" class="node"><title>RegistryHandle</title>
<a xlink:href="/help/iodefnav?iodef_class=RegistryHandle" xlink:title="The RegistryHandle class represents a handle into an Internet registry or community&#45;specific database. &#160;The handle is specified in the element content and the type attribute specifies the database. ">
<polygon fill="#7a993d" stroke="#7a993d" points="807,-43 807,-64 998,-64 998,-43 807,-43"/>
<polygon fill="none" stroke="black" points="807,-43 807,-64 998,-64 998,-43 807,-43"/>
<text text-anchor="start" x="860" y="-50.2333" font-family="Times Roman,serif" font-size="14.00">RegistryHandle</text>
</a>
<a xlink:href="/help/iodefnav?iodef_class=RegistryHandle" xlink:title="The database to which the handle belongs. &#160;The default value is &#39;local&#39;. &#160;The possible values are:">
<polygon fill="#ccff66" stroke="#ccff66" points="807,-23 807,-43 998,-43 998,-23 807,-23"/>
<polygon fill="none" stroke="black" points="807,-23 807,-43 998,-43 998,-23 807,-23"/>
<text text-anchor="start" x="824" y="-29.7333" font-family="Times Roman,serif" font-size="14.00">[ENUM] registry (Required)</text>
</a>
<a xlink:href="/help/iodefnav?iodef_class=RegistryHandle" xlink:title="A means by which to extend the registry attribute. &#160;See Section 5.1.">
<polygon fill="#ccff66" stroke="#ccff66" points="807,-3 807,-23 998,-23 998,-3 807,-3"/>
<polygon fill="none" stroke="black" points="807,-3 807,-23 998,-23 998,-3 807,-3"/>
<text text-anchor="start" x="810.5" y="-9.73333" font-family="Times Roman,serif" font-size="14.00">[STRING] ext&#45;registry (Optional)</text>
</a>
</g>
<!-- Contact&#45;&#45;RegistryHandle -->
<g id="edge14" class="edge"><title>Contact&#45;&#45;RegistryHandle</title>
<path fill="none" stroke="black" d="M740.04,-85.0205C755.932,-80.0142 772.301,-74.8574 788.245,-69.8349"/>
<polygon fill="black" stroke="black" points="789.623,-73.0705 798.109,-66.7276 787.519,-66.394 789.623,-73.0705"/>
<text text-anchor="middle" x="769" y="-83.4" font-family="Times Roman,serif" font-size="14.00">0..*</text>
</g>
<!-- History -->
<g id="node16" class="node"><title>History</title>
<a xlink:href="/help/iodefnav?iodef_class=History" xlink:title="The History class is a log of the significant events or actions performed by the involved parties during the course of handling the incident. ">
<polygon fill="#006930" stroke="#006930" points="8,-332 8,-353 184,-353 184,-332 8,-332"/>
<polygon fill="none" stroke="black" points="8,-332 8,-353 184,-353 184,-332 8,-332"/>
<text text-anchor="start" x="75.5" y="-339.233" font-family="Times Roman,serif" font-size="14.00">History</text>
</a>
<a xlink:href="/help/iodefnav?iodef_class=History" xlink:title="This attribute is defined in Section 3.2.">
<polygon fill="#00b050" stroke="#00b050" points="8,-312 8,-332 184,-332 184,-312 8,-312"/>
<polygon fill="none" stroke="black" points="8,-312 8,-332 184,-332 184,-312 8,-312"/>
<text text-anchor="start" x="11.5" y="-318.733" font-family="Times Roman,serif" font-size="14.00">[ENUM] restriction (Optional)</text>
</a>
</g>
<!-- History&#45;&#45;HistoryItem -->
<g id="edge18" class="edge"><title>History&#45;&#45;HistoryItem</title>
<path fill="none" stroke="black" d="M192.074,-333C207.544,-333 223.698,-333 239.566,-333"/>
<polygon fill="black" stroke="black" points="239.943,-336.5 249.943,-333 239.943,-329.5 239.943,-336.5"/>
<text text-anchor="middle" x="221" y="-339.4" font-family="Times Roman,serif" font-size="14.00">1..*</text>
</g>
</g>
</svg>
