<?xml version="1.0" encoding="UTF-8" standalone="no"?>
<!DOCTYPE svg PUBLIC "-//W3C//DTD SVG 1.1//EN"
 "http://www.w3.org/Graphics/SVG/1.1/DTD/svg11.dtd">
<!-- Generated by graphviz version 2.26.0 (20091210.2329)
 -->
<!-- Title: _anonymous_0 Pages: 1 -->
<svg width="764pt" height="428pt"
 viewBox="0.00 0.00 764.00 428.00" xmlns="http://www.w3.org/2000/svg" xmlns:xlink="http://www.w3.org/1999/xlink">
<g id="graph1" class="graph" transform="scale(1 1) rotate(0) translate(4 424)">
<title>_anonymous_0</title>
<polygon fill="white" stroke="white" points="-4,5 -4,-424 761,-424 761,5 -4,5"/>
<!-- AdditionalData -->
<g id="node1" class="node"><title>AdditionalData</title>
<a xlink:href="/help/iodefnav?iodef_class=AdditionalData" xlink:title="The AdditionalData class serves as an extension mechanism for information not otherwise represented in the data model. &#160;For relatively simple information, atomic data types (e.g., integers, strings) are provided with a mechanism to annotate their meaning. The class can also be used to extend the data model (and the associated Schema) to support proprietary extensions by encapsulating entire XML documents conforming to another Schema (e.g., IDMEF). &#160;A detailed discussion for extending the data model and the schema can be found in Section 5. ">
<polygon fill="#997a3d" stroke="#997a3d" points="562,-395 562,-416 742,-416 742,-395 562,-395"/>
<polygon fill="none" stroke="black" points="562,-395 562,-416 742,-416 742,-395 562,-395"/>
<text text-anchor="start" x="610" y="-402.233" font-family="Times Roman,serif" font-size="14.00">AdditionalData</text>
</a>
<a xlink:href="/help/iodefnav?iodef_class=AdditionalData" xlink:title="The data type of the element content. &#160;The permitted values for this attribute are shown below. &#160;The default value is &quot;string&quot;.">
<polygon fill="#ffcc66" stroke="#ffcc66" points="562,-375 562,-395 742,-395 742,-375 562,-375"/>
<polygon fill="none" stroke="black" points="562,-375 562,-395 742,-395 742,-375 562,-375"/>
<text text-anchor="start" x="579" y="-381.733" font-family="Times Roman,serif" font-size="14.00">[ENUM] dtype (Required)</text>
</a>
<a xlink:href="/help/iodefnav?iodef_class=AdditionalData" xlink:title="A free&#45;form description of the element content.">
<polygon fill="#ffcc66" stroke="#ffcc66" points="562,-355 562,-375 742,-375 742,-355 562,-355"/>
<polygon fill="none" stroke="black" points="562,-355 562,-375 742,-375 742,-355 562,-355"/>
<text text-anchor="start" x="567.5" y="-361.733" font-family="Times Roman,serif" font-size="14.00">[STRING] meaning (Optional)</text>
</a>
<a xlink:href="/help/iodefnav?iodef_class=AdditionalData" xlink:title="A means by which to extend the dtype attribute. &#160;See Section 5.1.">
<polygon fill="#ffcc66" stroke="#ffcc66" points="562,-335 562,-355 742,-355 742,-335 562,-335"/>
<polygon fill="none" stroke="black" points="562,-335 562,-355 742,-355 742,-335 562,-335"/>
<text text-anchor="start" x="565.5" y="-341.733" font-family="Times Roman,serif" font-size="14.00">[STRING] ext&#45;dtype (Optional)</text>
</a>
<a xlink:href="/help/iodefnav?iodef_class=AdditionalData" xlink:title="An identifier referencing the format and semantics of the element content.">
<polygon fill="#ffcc66" stroke="#ffcc66" points="562,-315 562,-335 742,-335 742,-315 562,-315"/>
<polygon fill="none" stroke="black" points="562,-315 562,-335 742,-335 742,-315 562,-315"/>
<text text-anchor="start" x="567.5" y="-321.733" font-family="Times Roman,serif" font-size="14.00">[STRING] formatid (Optional)</text>
</a>
<a xlink:href="/help/iodefnav?iodef_class=AdditionalData" xlink:title="This attribute has been defined in Section 3.2.">
<polygon fill="#ffcc66" stroke="#ffcc66" points="562,-295 562,-315 742,-315 742,-295 562,-295"/>
<polygon fill="none" stroke="black" points="562,-295 562,-315 742,-315 742,-295 562,-295"/>
<text text-anchor="start" x="567.5" y="-301.733" font-family="Times Roman,serif" font-size="14.00">[ENUM] restriction (Optional)</text>
</a>
</g>
<!-- HistoryItem -->
<g id="node2" class="node"><title>HistoryItem</title>
<a xlink:href="/help/iodefnav?iodef_class=HistoryItem" xlink:title="The HistoryItem class is an entry in the History (Section 3.11) log that documents a particular action or event that occurred in the course of handling the incident. &#160;The details of the entry are a free&#45;form description, but each can be categorized with the type attribute. ">
<polygon fill="#006930" stroke="#006930" points="8,-372 8,-393 202,-393 202,-372 8,-372"/>
<polygon fill="none" stroke="black" points="8,-372 8,-393 202,-393 202,-372 8,-372"/>
<text text-anchor="start" x="71.5" y="-379.233" font-family="Times Roman,serif" font-size="14.00">HistoryItem</text>
</a>
<a xlink:href="/help/iodefnav?iodef_class=HistoryItem" xlink:title="A free&#45;form textual description of the action or event.">
<polygon fill="#00b050" stroke="#00b050" points="8,-352 8,-372 202,-372 202,-352 8,-352"/>
<polygon fill="none" stroke="black" points="8,-352 8,-372 202,-372 202,-352 8,-352"/>
<text text-anchor="start" x="11.5" y="-358.733" font-family="Times Roman,serif" font-size="14.00">[ML_STRING] Description (0..*)</text>
</a>
<a xlink:href="/help/iodefnav?iodef_class=HistoryItem" xlink:title="Timestamp of this entry in the history log (e.g., when the action described in the Description was taken).">
<polygon fill="#00b050" stroke="#00b050" points="8,-332 8,-352 202,-352 202,-332 8,-332"/>
<polygon fill="none" stroke="black" points="8,-332 8,-352 202,-352 202,-332 8,-332"/>
<text text-anchor="start" x="39.5" y="-338.733" font-family="Times Roman,serif" font-size="14.00">[None] DateTime (1..1)</text>
</a>
<a xlink:href="/help/iodefnav?iodef_class=HistoryItem" xlink:title="Classifies a performed action or occurrence documented in this history log entry. &#160;As activity will likely have been instigated either through a previously conveyed expectation or internal investigation, this attribute is identical to the category attribute of the Expectation class. &#160;The difference is only one of tense. &#160;When an action is in this class, it has been completed. &#160;See Section 3.13.">
<polygon fill="#00b050" stroke="#00b050" points="8,-312 8,-332 202,-332 202,-312 8,-312"/>
<polygon fill="none" stroke="black" points="8,-312 8,-332 202,-332 202,-312 8,-312"/>
<text text-anchor="start" x="30.5" y="-318.733" font-family="Times Roman,serif" font-size="14.00">[ENUM] action (Required)</text>
</a>
<a xlink:href="/help/iodefnav?iodef_class=HistoryItem" xlink:title="This attribute has been defined in Section 3.2.">
<polygon fill="#00b050" stroke="#00b050" points="8,-292 8,-312 202,-312 202,-292 8,-292"/>
<polygon fill="none" stroke="black" points="8,-292 8,-312 202,-312 202,-292 8,-292"/>
<text text-anchor="start" x="20.5" y="-298.733" font-family="Times Roman,serif" font-size="14.00">[ENUM] restriction (Optional)</text>
</a>
<a xlink:href="/help/iodefnav?iodef_class=HistoryItem" xlink:title="A means by which to extend the action attribute. &#160;See Section 5.1.">
<polygon fill="#00b050" stroke="#00b050" points="8,-272 8,-292 202,-292 202,-272 8,-272"/>
<polygon fill="none" stroke="black" points="8,-272 8,-292 202,-292 202,-272 8,-272"/>
<text text-anchor="start" x="17" y="-278.733" font-family="Times Roman,serif" font-size="14.00">[STRING] ext&#45;action (Optional)</text>
</a>
</g>
<!-- HistoryItem&#45;&#45;AdditionalData -->
<g id="edge2" class="edge"><title>HistoryItem&#45;&#45;AdditionalData</title>
<path fill="none" stroke="black" d="M210.349,-372.558C229.292,-378.141 249.043,-382.996 268,-386 365.45,-401.445 391.747,-395.021 490,-386 507.544,-384.389 526.024,-381.817 543.973,-378.839"/>
<polygon fill="black" stroke="black" points="544.614,-382.28 553.882,-377.146 543.435,-375.38 544.614,-382.28"/>
<text text-anchor="middle" x="379" y="-401.4" font-family="Times Roman,serif" font-size="14.00">0..*</text>
</g>
<!-- IncidentID -->
<g id="node4" class="node"><title>IncidentID</title>
<a xlink:href="/help/iodefnav?iodef_class=IncidentID" xlink:title="The IncidentID class represents an incident tracking number that is unique in the context of the CSIRT and identifies the activity characterized in an IODEF Document. &#160;This identifier would serve as an index into the CSIRT incident handling system. &#160;The combination of the name attribute and the string in the element content MUST be a globally unique identifier describing the activity. &#160;Documents generated by a given CSIRT MUST NOT reuse the same value unless they are referencing the same incident. ">
<polygon fill="#5b7a00" stroke="#5b7a00" points="291,-352 291,-373 467,-373 467,-352 291,-352"/>
<polygon fill="none" stroke="black" points="291,-352 291,-373 467,-373 467,-352 291,-352"/>
<text text-anchor="start" x="349.5" y="-359.233" font-family="Times Roman,serif" font-size="14.00">IncidentID</text>
</a>
<a xlink:href="/help/iodefnav?iodef_class=IncidentID" xlink:title="An identifier referencing a subset of the named incident.">
<polygon fill="#99cc00" stroke="#99cc00" points="291,-332 291,-352 467,-352 467,-332 291,-332"/>
<polygon fill="none" stroke="black" points="291,-332 291,-352 467,-352 467,-332 291,-332"/>
<text text-anchor="start" x="296" y="-338.733" font-family="Times Roman,serif" font-size="14.00">[STRING] instance (Optional)</text>
</a>
<a xlink:href="/help/iodefnav?iodef_class=IncidentID" xlink:title="An identifier describing the CSIRT that created the document. &#160;In order to have a globally unique CSIRT name, the fully qualified domain name associated with the CSIRT MUST be used.">
<polygon fill="#99cc00" stroke="#99cc00" points="291,-312 291,-332 467,-332 467,-312 291,-312"/>
<polygon fill="none" stroke="black" points="291,-312 291,-332 467,-332 467,-312 291,-312"/>
<text text-anchor="start" x="302" y="-318.733" font-family="Times Roman,serif" font-size="14.00">[STRING] name (Required)</text>
</a>
<a xlink:href="/help/iodefnav?iodef_class=IncidentID" xlink:title="This attribute has been defined in Section 3.2.">
<polygon fill="#99cc00" stroke="#99cc00" points="291,-292 291,-312 467,-312 467,-292 291,-292"/>
<polygon fill="none" stroke="black" points="291,-292 291,-312 467,-312 467,-292 291,-292"/>
<text text-anchor="start" x="294.5" y="-298.733" font-family="Times Roman,serif" font-size="14.00">[ENUM] restriction (Optional)</text>
</a>
</g>
<!-- HistoryItem&#45;&#45;IncidentID -->
<g id="edge4" class="edge"><title>HistoryItem&#45;&#45;IncidentID</title>
<path fill="none" stroke="black" d="M210.152,-333C230.55,-333 251.946,-333 272.391,-333"/>
<polygon fill="black" stroke="black" points="272.663,-336.5 282.663,-333 272.663,-329.5 272.663,-336.5"/>
<text text-anchor="middle" x="239" y="-339.4" font-family="Times Roman,serif" font-size="14.00">0..1</text>
</g>
<!-- Contact -->
<g id="node6" class="node"><title>Contact</title>
<a xlink:href="/help/iodefnav?iodef_class=Contact" xlink:title="The Contact class describes contact information for organizations and personnel involved in the incident. &#160;This class allows for the naming of the involved party, specifying contact information for them, and identifying their role in the incident. ">
<polygon fill="#7a993d" stroke="#7a993d" points="276,-209 276,-230 482,-230 482,-209 276,-209"/>
<polygon fill="none" stroke="black" points="276,-209 276,-230 482,-230 482,-209 276,-209"/>
<text text-anchor="start" x="357.5" y="-216.233" font-family="Times Roman,serif" font-size="14.00">Contact</text>
</a>
<a xlink:href="/help/iodefnav?iodef_class=Contact" xlink:title="The facsimile telephone number of the contact.">
<polygon fill="#ccff66" stroke="#ccff66" points="276,-189 276,-209 482,-209 482,-189 276,-189"/>
<polygon fill="none" stroke="black" points="276,-189 276,-209 482,-209 482,-189 276,-189"/>
<text text-anchor="start" x="330.5" y="-195.733" font-family="Times Roman,serif" font-size="14.00">[None] Fax (0..1)</text>
</a>
<a xlink:href="/help/iodefnav?iodef_class=Contact" xlink:title="A free&#45;form description of this contact. &#160;In the case of a person, this is often the organizational title of the individual.">
<polygon fill="#ccff66" stroke="#ccff66" points="276,-169 276,-189 482,-189 482,-169 276,-169"/>
<polygon fill="none" stroke="black" points="276,-169 276,-189 482,-189 482,-169 276,-169"/>
<text text-anchor="start" x="285.5" y="-175.733" font-family="Times Roman,serif" font-size="14.00">[ML_STRING] Description (0..*)</text>
</a>
<a xlink:href="/help/iodefnav?iodef_class=Contact" xlink:title="The telephone number of the contact.">
<polygon fill="#ccff66" stroke="#ccff66" points="276,-149 276,-169 482,-169 482,-149 276,-149"/>
<polygon fill="none" stroke="black" points="276,-149 276,-169 482,-169 482,-149 276,-149"/>
<text text-anchor="start" x="312.5" y="-155.733" font-family="Times Roman,serif" font-size="14.00">[None] Telephone (0..*)</text>
</a>
<a xlink:href="/help/iodefnav?iodef_class=Contact" xlink:title="The name of the contact. &#160;The contact may either be an organization or a person. &#160;The type attribute disambiguates the semantics.">
<polygon fill="#ccff66" stroke="#ccff66" points="276,-129 276,-149 482,-149 482,-129 276,-129"/>
<polygon fill="none" stroke="black" points="276,-129 276,-149 482,-149 482,-129 276,-129"/>
<text text-anchor="start" x="279.5" y="-135.733" font-family="Times Roman,serif" font-size="14.00">[ML_STRING] ContactName (0..1)</text>
</a>
<a xlink:href="/help/iodefnav?iodef_class=Contact" xlink:title="The timezone in which the contact resides formatted according to Section 2.9.">
<polygon fill="#ccff66" stroke="#ccff66" points="276,-109 276,-129 482,-129 482,-109 276,-109"/>
<polygon fill="none" stroke="black" points="276,-109 276,-129 482,-129 482,-109 276,-109"/>
<text text-anchor="start" x="293" y="-115.733" font-family="Times Roman,serif" font-size="14.00">[TIMEZONE] Timezone (0..1)</text>
</a>
<a xlink:href="/help/iodefnav?iodef_class=Contact" xlink:title="Indicates the role the contact fulfills. &#160;This attribute is defined as an enumerated list:">
<polygon fill="#ccff66" stroke="#ccff66" points="276,-89 276,-109 482,-109 482,-89 276,-89"/>
<polygon fill="none" stroke="black" points="276,-89 276,-109 482,-109 482,-89 276,-89"/>
<text text-anchor="start" x="310.5" y="-95.7333" font-family="Times Roman,serif" font-size="14.00">[ENUM] role (Required)</text>
</a>
<a xlink:href="/help/iodefnav?iodef_class=Contact" xlink:title="Indicates the type of contact being described. This attribute is defined as an enumerated list:">
<polygon fill="#ccff66" stroke="#ccff66" points="276,-69 276,-89 482,-89 482,-69 276,-69"/>
<polygon fill="none" stroke="black" points="276,-69 276,-89 482,-89 482,-69 276,-69"/>
<text text-anchor="start" x="309.5" y="-75.7333" font-family="Times Roman,serif" font-size="14.00">[ENUM] type (Required)</text>
</a>
<a xlink:href="/help/iodefnav?iodef_class=Contact" xlink:title="A means by which to extend the role attribute. See Section 5.1.">
<polygon fill="#ccff66" stroke="#ccff66" points="276,-49 276,-69 482,-69 482,-49 276,-49"/>
<polygon fill="none" stroke="black" points="276,-49 276,-69 482,-69 482,-49 276,-49"/>
<text text-anchor="start" x="297" y="-55.7333" font-family="Times Roman,serif" font-size="14.00">[STRING] ext&#45;role (Optional)</text>
</a>
<a xlink:href="/help/iodefnav?iodef_class=Contact" xlink:title="A means by which to extend the type attribute. See Section 5.1.">
<polygon fill="#ccff66" stroke="#ccff66" points="276,-29 276,-49 482,-49 482,-29 276,-29"/>
<polygon fill="none" stroke="black" points="276,-29 276,-49 482,-49 482,-29 276,-29"/>
<text text-anchor="start" x="296" y="-35.7333" font-family="Times Roman,serif" font-size="14.00">[STRING] ext&#45;type (Optional)</text>
</a>
<a xlink:href="/help/iodefnav?iodef_class=Contact" xlink:title="This attribute is defined in Section 3.2.">
<polygon fill="#ccff66" stroke="#ccff66" points="276,-9 276,-29 482,-29 482,-9 276,-9"/>
<polygon fill="none" stroke="black" points="276,-9 276,-29 482,-29 482,-9 276,-9"/>
<text text-anchor="start" x="294.5" y="-15.7333" font-family="Times Roman,serif" font-size="14.00">[ENUM] restriction (Optional)</text>
</a>
</g>
<!-- HistoryItem&#45;&#45;Contact -->
<g id="edge16" class="edge"><title>HistoryItem&#45;&#45;Contact</title>
<path fill="none" stroke="black" d="M187.581,-268.804C210.401,-251.064 235.628,-231.454 260.072,-212.451"/>
<polygon fill="black" stroke="black" points="262.231,-215.206 267.978,-206.306 257.934,-209.68 262.231,-215.206"/>
<text text-anchor="middle" x="239" y="-238.4" font-family="Times Roman,serif" font-size="14.00">0..1</text>
</g>
<!-- Contact&#45;&#45;AdditionalData -->
<g id="edge6" class="edge"><title>Contact&#45;&#45;AdditionalData</title>
<path fill="none" stroke="black" d="M490.04,-215.99C516.796,-239.12 544.905,-263.42 570.056,-285.162"/>
<polygon fill="black" stroke="black" points="567.908,-287.932 577.762,-291.824 572.486,-282.636 567.908,-287.932"/>
<text text-anchor="middle" x="519" y="-251.4" font-family="Times Roman,serif" font-size="14.00">0..*</text>
</g>
<!-- Contact&#45;&#45;Contact -->
<g id="edge10" class="edge"><title>Contact&#45;&#45;Contact</title>
<path fill="none" stroke="black" d="M357.774,-234.054C362.081,-245.039 369.156,-252 379,-252 385.768,-252 391.227,-248.71 395.377,-243.084"/>
<polygon fill="black" stroke="black" points="398.579,-244.52 400.226,-234.054 392.411,-241.208 398.579,-244.52"/>
<text text-anchor="middle" x="379" y="-258.4" font-family="Times Roman,serif" font-size="14.00">0..*</text>
</g>
<!-- Email -->
<g id="node8" class="node"><title>Email</title>
<a xlink:href="/help/iodefnav?iodef_class=Email" xlink:title="The Email class specifies an email address formatted according to EMAIL data type (Section 2.14). ">
<polygon fill="#7a993d" stroke="#7a993d" points="568,-195 568,-216 736,-216 736,-195 568,-195"/>
<polygon fill="none" stroke="black" points="568,-195 568,-216 736,-216 736,-195 568,-195"/>
<text text-anchor="start" x="635" y="-202.233" font-family="Times Roman,serif" font-size="14.00">Email</text>
</a>
<a xlink:href="/help/iodefnav?iodef_class=Email" xlink:title="A free&#45;form description of the element content (e.g., hours of coverage for a given number).">
<polygon fill="#ccff66" stroke="#ccff66" points="568,-175 568,-195 736,-195 736,-175 568,-175"/>
<polygon fill="none" stroke="black" points="568,-175 568,-195 736,-195 736,-175 568,-175"/>
<text text-anchor="start" x="571.5" y="-181.733" font-family="Times Roman,serif" font-size="14.00">[ENUM] meaning (Optional)</text>
</a>
</g>
<!-- Contact&#45;&#45;Email -->
<g id="edge8" class="edge"><title>Contact&#45;&#45;Email</title>
<path fill="none" stroke="black" d="M490.04,-150.912C511.93,-157.006 534.726,-163.352 556.067,-169.293"/>
<polygon fill="black" stroke="black" points="555.189,-172.682 565.762,-171.992 557.067,-165.939 555.189,-172.682"/>
<text text-anchor="middle" x="519" y="-166.4" font-family="Times Roman,serif" font-size="14.00">0..*</text>
</g>
<!-- PostalAddress -->
<g id="node11" class="node"><title>PostalAddress</title>
<a xlink:href="/help/iodefnav?iodef_class=PostalAddress" xlink:title="The PostalAddress class specifies a postal address formatted according to the POSTAL data type (Section 2.11). ">
<polygon fill="#7a993d" stroke="#7a993d" points="568,-129 568,-150 736,-150 736,-129 568,-129"/>
<polygon fill="none" stroke="black" points="568,-129 568,-150 736,-150 736,-129 568,-129"/>
<text text-anchor="start" x="613" y="-136.233" font-family="Times Roman,serif" font-size="14.00">PostalAddress</text>
</a>
<a xlink:href="/help/iodefnav?iodef_class=PostalAddress" xlink:title="A valid language code per RFC 4646 [7] constrained by the definition of &quot;xs:language&quot;. &#160;The interpretation of this code is described in Section 6.">
<polygon fill="#ccff66" stroke="#ccff66" points="568,-109 568,-129 736,-129 736,-109 568,-109"/>
<polygon fill="none" stroke="black" points="568,-109 568,-129 736,-129 736,-109 568,-109"/>
<text text-anchor="start" x="582.5" y="-115.733" font-family="Times Roman,serif" font-size="14.00">[ENUM] lang (Required)</text>
</a>
<a xlink:href="/help/iodefnav?iodef_class=PostalAddress" xlink:title="A free&#45;form description of the element content.">
<polygon fill="#ccff66" stroke="#ccff66" points="568,-89 568,-109 736,-109 736,-89 568,-89"/>
<polygon fill="none" stroke="black" points="568,-89 568,-109 736,-109 736,-89 568,-89"/>
<text text-anchor="start" x="571.5" y="-95.7333" font-family="Times Roman,serif" font-size="14.00">[ENUM] meaning (Optional)</text>
</a>
</g>
<!-- Contact&#45;&#45;PostalAddress -->
<g id="edge12" class="edge"><title>Contact&#45;&#45;PostalAddress</title>
<path fill="none" stroke="black" d="M490.04,-120C509.776,-120 530.248,-120 549.726,-120"/>
<polygon fill="black" stroke="black" points="549.813,-123.5 559.813,-120 549.813,-116.5 549.813,-123.5"/>
<text text-anchor="middle" x="519" y="-126.4" font-family="Times Roman,serif" font-size="14.00">0..1</text>
</g>
<!-- RegistryHandle -->
<g id="node13" class="node"><title>RegistryHandle</title>
<a xlink:href="/help/iodefnav?iodef_class=RegistryHandle" xlink:title="The RegistryHandle class represents a handle into an Internet registry or community&#45;specific database. &#160;The handle is specified in the element content and the type attribute specifies the database. ">
<polygon fill="#7a993d" stroke="#7a993d" points="557,-43 557,-64 748,-64 748,-43 557,-43"/>
<polygon fill="none" stroke="black" points="557,-43 557,-64 748,-64 748,-43 557,-43"/>
<text text-anchor="start" x="610" y="-50.2333" font-family="Times Roman,serif" font-size="14.00">RegistryHandle</text>
</a>
<a xlink:href="/help/iodefnav?iodef_class=RegistryHandle" xlink:title="The database to which the handle belongs. &#160;The default value is &#39;local&#39;. &#160;The possible values are:">
<polygon fill="#ccff66" stroke="#ccff66" points="557,-23 557,-43 748,-43 748,-23 557,-23"/>
<polygon fill="none" stroke="black" points="557,-23 557,-43 748,-43 748,-23 557,-23"/>
<text text-anchor="start" x="574" y="-29.7333" font-family="Times Roman,serif" font-size="14.00">[ENUM] registry (Required)</text>
</a>
<a xlink:href="/help/iodefnav?iodef_class=RegistryHandle" xlink:title="A means by which to extend the registry attribute. &#160;See Section 5.1.">
<polygon fill="#ccff66" stroke="#ccff66" points="557,-3 557,-23 748,-23 748,-3 557,-3"/>
<polygon fill="none" stroke="black" points="557,-3 557,-23 748,-23 748,-3 557,-3"/>
<text text-anchor="start" x="560.5" y="-9.73333" font-family="Times Roman,serif" font-size="14.00">[STRING] ext&#45;registry (Optional)</text>
</a>
</g>
<!-- Contact&#45;&#45;RegistryHandle -->
<g id="edge14" class="edge"><title>Contact&#45;&#45;RegistryHandle</title>
<path fill="none" stroke="black" d="M490.04,-85.0205C505.932,-80.0142 522.301,-74.8574 538.245,-69.8349"/>
<polygon fill="black" stroke="black" points="539.623,-73.0705 548.109,-66.7276 537.519,-66.394 539.623,-73.0705"/>
<text text-anchor="middle" x="519" y="-83.4" font-family="Times Roman,serif" font-size="14.00">0..*</text>
</g>
</g>
</svg>
