<?xml version="1.0" encoding="UTF-8" standalone="no"?>
<!DOCTYPE svg PUBLIC "-//W3C//DTD SVG 1.1//EN"
 "http://www.w3.org/Graphics/SVG/1.1/DTD/svg11.dtd">
<!-- Generated by graphviz version 2.26.0 (20091210.2329)
 -->
<!-- Title: _anonymous_0 Pages: 1 -->
<svg width="206pt" height="136pt"
 viewBox="0.00 0.00 206.00 136.00" xmlns="http://www.w3.org/2000/svg" xmlns:xlink="http://www.w3.org/1999/xlink">
<g id="graph1" class="graph" transform="scale(1 1) rotate(0) translate(4 132)">
<title>_anonymous_0</title>
<polygon fill="white" stroke="white" points="-4,5 -4,-132 203,-132 203,5 -4,5"/>
<!-- Impact -->
<g id="node1" class="node"><title>Impact</title>
<a xlink:href="/help/iodefnav?iodef_class=Impact" xlink:title="The Impact class allows for categorizing and describing the technical impact of the incident on the network of an organization. ">
<polygon fill="#993015" stroke="#993015" points="8,-103 8,-124 190,-124 190,-103 8,-103"/>
<polygon fill="none" stroke="black" points="8,-103 8,-124 190,-124 190,-103 8,-103"/>
<text text-anchor="start" x="79.5" y="-110.233" font-family="Times Roman,serif" font-size="14.00">Impact</text>
</a>
<a xlink:href="/help/iodefnav?iodef_class=Impact" xlink:title="A valid language code per RFC 4646 [7] constrained by the definition of &quot;xs:language&quot;. &#160;The interpretation of this code is described in Section 6.">
<polygon fill="#ff5024" stroke="#ff5024" points="8,-83 8,-103 190,-103 190,-83 8,-83"/>
<polygon fill="none" stroke="black" points="8,-83 8,-103 190,-103 190,-83 8,-83"/>
<text text-anchor="start" x="29.5" y="-89.7333" font-family="Times Roman,serif" font-size="14.00">[ENUM] lang (Required)</text>
</a>
<a xlink:href="/help/iodefnav?iodef_class=Impact" xlink:title="An indication whether the described activity was successful. &#160;The permitted values are shown below. &#160;There is no default value.">
<polygon fill="#ff5024" stroke="#ff5024" points="8,-63 8,-83 190,-83 190,-63 8,-63"/>
<polygon fill="none" stroke="black" points="8,-63 8,-83 190,-83 190,-63 8,-63"/>
<text text-anchor="start" x="11.5" y="-69.7333" font-family="Times Roman,serif" font-size="14.00">[ENUM] completion (Optional)</text>
</a>
<a xlink:href="/help/iodefnav?iodef_class=Impact" xlink:title="Classifies the malicious activity into incident categories. &#160;The permitted values are shown below. &#160;The default value is &quot;other&quot;.">
<polygon fill="#ff5024" stroke="#ff5024" points="8,-43 8,-63 190,-63 190,-43 8,-43"/>
<polygon fill="none" stroke="black" points="8,-43 8,-63 190,-63 190,-43 8,-43"/>
<text text-anchor="start" x="29.5" y="-49.7333" font-family="Times Roman,serif" font-size="14.00">[ENUM] type (Required)</text>
</a>
<a xlink:href="/help/iodefnav?iodef_class=Impact" xlink:title="An estimate of the relative severity of the activity. &#160;The permitted values are shown below. &#160;There is no default value.">
<polygon fill="#ff5024" stroke="#ff5024" points="8,-23 8,-43 190,-43 190,-23 8,-23"/>
<polygon fill="none" stroke="black" points="8,-23 8,-43 190,-43 190,-23 8,-23"/>
<text text-anchor="start" x="20.5" y="-29.7333" font-family="Times Roman,serif" font-size="14.00">[ENUM] severity (Optional)</text>
</a>
<a xlink:href="/help/iodefnav?iodef_class=Impact" xlink:title="A means by which to extend the type attribute. See Section 5.1.">
<polygon fill="#ff5024" stroke="#ff5024" points="8,-3 8,-23 190,-23 190,-3 8,-3"/>
<polygon fill="none" stroke="black" points="8,-3 8,-23 190,-23 190,-3 8,-3"/>
<text text-anchor="start" x="16" y="-9.73333" font-family="Times Roman,serif" font-size="14.00">[STRING] ext&#45;type (Optional)</text>
</a>
</g>
</g>
</svg>
