<?xml version="1.0" encoding="UTF-8" standalone="no"?>
<!DOCTYPE svg PUBLIC "-//W3C//DTD SVG 1.1//EN"
 "http://www.w3.org/Graphics/SVG/1.1/DTD/svg11.dtd">
<!-- Generated by graphviz version 2.26.0 (20091210.2329)
 -->
<!-- Title: _anonymous_0 Pages: 1 -->
<svg width="200pt" height="96pt"
 viewBox="0.00 0.00 200.00 96.00" xmlns="http://www.w3.org/2000/svg" xmlns:xlink="http://www.w3.org/1999/xlink">
<g id="graph1" class="graph" transform="scale(1 1) rotate(0) translate(4 92)">
<title>_anonymous_0</title>
<polygon fill="white" stroke="white" points="-4,5 -4,-92 197,-92 197,5 -4,5"/>
<!-- IncidentID -->
<g id="node1" class="node"><title>IncidentID</title>
<a xlink:href="/help/iodefnav?iodef_class=IncidentID" xlink:title="The IncidentID class represents an incident tracking number that is unique in the context of the CSIRT and identifies the activity characterized in an IODEF Document. &#160;This identifier would serve as an index into the CSIRT incident handling system. &#160;The combination of the name attribute and the string in the element content MUST be a globally unique identifier describing the activity. &#160;Documents generated by a given CSIRT MUST NOT reuse the same value unless they are referencing the same incident. ">
<polygon fill="#5b7a00" stroke="#5b7a00" points="8,-63 8,-84 184,-84 184,-63 8,-63"/>
<polygon fill="none" stroke="black" points="8,-63 8,-84 184,-84 184,-63 8,-63"/>
<text text-anchor="start" x="66.5" y="-70.2333" font-family="Times Roman,serif" font-size="14.00">IncidentID</text>
</a>
<a xlink:href="/help/iodefnav?iodef_class=IncidentID" xlink:title="An identifier referencing a subset of the named incident.">
<polygon fill="#99cc00" stroke="#99cc00" points="8,-43 8,-63 184,-63 184,-43 8,-43"/>
<polygon fill="none" stroke="black" points="8,-43 8,-63 184,-63 184,-43 8,-43"/>
<text text-anchor="start" x="13" y="-49.7333" font-family="Times Roman,serif" font-size="14.00">[STRING] instance (Optional)</text>
</a>
<a xlink:href="/help/iodefnav?iodef_class=IncidentID" xlink:title="An identifier describing the CSIRT that created the document. &#160;In order to have a globally unique CSIRT name, the fully qualified domain name associated with the CSIRT MUST be used.">
<polygon fill="#99cc00" stroke="#99cc00" points="8,-23 8,-43 184,-43 184,-23 8,-23"/>
<polygon fill="none" stroke="black" points="8,-23 8,-43 184,-43 184,-23 8,-23"/>
<text text-anchor="start" x="19" y="-29.7333" font-family="Times Roman,serif" font-size="14.00">[STRING] name (Required)</text>
</a>
<a xlink:href="/help/iodefnav?iodef_class=IncidentID" xlink:title="This attribute has been defined in Section 3.2.">
<polygon fill="#99cc00" stroke="#99cc00" points="8,-3 8,-23 184,-23 184,-3 8,-3"/>
<polygon fill="none" stroke="black" points="8,-3 8,-23 184,-23 184,-3 8,-3"/>
<text text-anchor="start" x="11.5" y="-9.73333" font-family="Times Roman,serif" font-size="14.00">[ENUM] restriction (Optional)</text>
</a>
</g>
</g>
</svg>
