<?xml version="1.0" encoding="UTF-8" standalone="no"?>
<!DOCTYPE svg PUBLIC "-//W3C//DTD SVG 1.1//EN"
 "http://www.w3.org/Graphics/SVG/1.1/DTD/svg11.dtd">
<!-- Generated by graphviz version 2.26.0 (20091210.2329)
 -->
<!-- Title: _anonymous_0 Pages: 1 -->
<svg width="510pt" height="242pt"
 viewBox="0.00 0.00 510.00 242.00" xmlns="http://www.w3.org/2000/svg" xmlns:xlink="http://www.w3.org/1999/xlink">
<g id="graph1" class="graph" transform="scale(1 1) rotate(0) translate(4 238)">
<title>_anonymous_0</title>
<polygon fill="white" stroke="white" points="-4,5 -4,-238 507,-238 507,5 -4,5"/>
<!-- AdditionalData -->
<g id="node1" class="node"><title>AdditionalData</title>
<a xlink:href="/help/iodefnav?iodef_class=AdditionalData" xlink:title="The AdditionalData class serves as an extension mechanism for information not otherwise represented in the data model. &#160;For relatively simple information, atomic data types (e.g., integers, strings) are provided with a mechanism to annotate their meaning. The class can also be used to extend the data model (and the associated Schema) to support proprietary extensions by encapsulating entire XML documents conforming to another Schema (e.g., IDMEF). &#160;A detailed discussion for extending the data model and the schema can be found in Section 5. ">
<polygon fill="#997a3d" stroke="#997a3d" points="295,-209 295,-230 475,-230 475,-209 295,-209"/>
<polygon fill="none" stroke="black" points="295,-209 295,-230 475,-230 475,-209 295,-209"/>
<text text-anchor="start" x="343" y="-216.233" font-family="Times Roman,serif" font-size="14.00">AdditionalData</text>
</a>
<a xlink:href="/help/iodefnav?iodef_class=AdditionalData" xlink:title="The data type of the element content. &#160;The permitted values for this attribute are shown below. &#160;The default value is &quot;string&quot;.">
<polygon fill="#ffcc66" stroke="#ffcc66" points="295,-189 295,-209 475,-209 475,-189 295,-189"/>
<polygon fill="none" stroke="black" points="295,-189 295,-209 475,-209 475,-189 295,-189"/>
<text text-anchor="start" x="312" y="-195.733" font-family="Times Roman,serif" font-size="14.00">[ENUM] dtype (Required)</text>
</a>
<a xlink:href="/help/iodefnav?iodef_class=AdditionalData" xlink:title="A free&#45;form description of the element content.">
<polygon fill="#ffcc66" stroke="#ffcc66" points="295,-169 295,-189 475,-189 475,-169 295,-169"/>
<polygon fill="none" stroke="black" points="295,-169 295,-189 475,-189 475,-169 295,-169"/>
<text text-anchor="start" x="300.5" y="-175.733" font-family="Times Roman,serif" font-size="14.00">[STRING] meaning (Optional)</text>
</a>
<a xlink:href="/help/iodefnav?iodef_class=AdditionalData" xlink:title="A means by which to extend the dtype attribute. &#160;See Section 5.1.">
<polygon fill="#ffcc66" stroke="#ffcc66" points="295,-149 295,-169 475,-169 475,-149 295,-149"/>
<polygon fill="none" stroke="black" points="295,-149 295,-169 475,-169 475,-149 295,-149"/>
<text text-anchor="start" x="298.5" y="-155.733" font-family="Times Roman,serif" font-size="14.00">[STRING] ext&#45;dtype (Optional)</text>
</a>
<a xlink:href="/help/iodefnav?iodef_class=AdditionalData" xlink:title="An identifier referencing the format and semantics of the element content.">
<polygon fill="#ffcc66" stroke="#ffcc66" points="295,-129 295,-149 475,-149 475,-129 295,-129"/>
<polygon fill="none" stroke="black" points="295,-129 295,-149 475,-149 475,-129 295,-129"/>
<text text-anchor="start" x="300.5" y="-135.733" font-family="Times Roman,serif" font-size="14.00">[STRING] formatid (Optional)</text>
</a>
<a xlink:href="/help/iodefnav?iodef_class=AdditionalData" xlink:title="This attribute has been defined in Section 3.2.">
<polygon fill="#ffcc66" stroke="#ffcc66" points="295,-109 295,-129 475,-129 475,-109 295,-109"/>
<polygon fill="none" stroke="black" points="295,-109 295,-129 475,-129 475,-109 295,-109"/>
<text text-anchor="start" x="300.5" y="-115.733" font-family="Times Roman,serif" font-size="14.00">[ENUM] restriction (Optional)</text>
</a>
</g>
<!-- Method -->
<g id="node2" class="node"><title>Method</title>
<a xlink:href="/help/iodefnav?iodef_class=Method" xlink:title="The Method class describes the methodology used by the intruder to perpetrate the events of the incident. &#160;This class consists of a list of references describing the attack method and a free form description of the technique. ">
<polygon fill="#5b3d1e" stroke="#5b3d1e" points="8,-116 8,-137 202,-137 202,-116 8,-116"/>
<polygon fill="none" stroke="black" points="8,-116 8,-137 202,-137 202,-116 8,-116"/>
<text text-anchor="start" x="83.5" y="-123.233" font-family="Times Roman,serif" font-size="14.00">Method</text>
</a>
<a xlink:href="/help/iodefnav?iodef_class=Method" xlink:title="A free&#45;form text description of the methodology used by the intruder.">
<polygon fill="#996633" stroke="#996633" points="8,-96 8,-116 202,-116 202,-96 8,-96"/>
<polygon fill="none" stroke="black" points="8,-96 8,-116 202,-116 202,-96 8,-96"/>
<text text-anchor="start" x="11.5" y="-102.733" font-family="Times Roman,serif" font-size="14.00">[ML_STRING] Description (0..*)</text>
</a>
<a xlink:href="/help/iodefnav?iodef_class=Method" xlink:title="This attribute is defined in Section 3.2.">
<polygon fill="#996633" stroke="#996633" points="8,-76 8,-96 202,-96 202,-76 8,-76"/>
<polygon fill="none" stroke="black" points="8,-76 8,-96 202,-96 202,-76 8,-76"/>
<text text-anchor="start" x="20.5" y="-82.7333" font-family="Times Roman,serif" font-size="14.00">[ENUM] restriction (Optional)</text>
</a>
</g>
<!-- Method&#45;&#45;AdditionalData -->
<g id="edge2" class="edge"><title>Method&#45;&#45;AdditionalData</title>
<path fill="none" stroke="black" d="M210.058,-130.638C231.858,-135.543 254.866,-140.72 276.777,-145.65"/>
<polygon fill="black" stroke="black" points="276.235,-149.115 286.759,-147.896 277.771,-142.286 276.235,-149.115"/>
<text text-anchor="middle" x="239" y="-144.4" font-family="Times Roman,serif" font-size="14.00">0..*</text>
</g>
<!-- Reference -->
<g id="node4" class="node"><title>Reference</title>
<a xlink:href="/help/iodefnav?iodef_class=Reference" xlink:title="The Reference class is a reference to a vulnerability, IDS alert, malware sample, advisory, or attack technique. &#160;A reference consists of a name, a URL to this reference, and an optional description. ">
<polygon fill="#5b3d1e" stroke="#5b3d1e" points="276,-63 276,-84 494,-84 494,-63 276,-63"/>
<polygon fill="none" stroke="black" points="276,-63 276,-84 494,-84 494,-63 276,-63"/>
<text text-anchor="start" x="357.5" y="-70.2333" font-family="Times Roman,serif" font-size="14.00">Reference</text>
</a>
<a xlink:href="/help/iodefnav?iodef_class=Reference" xlink:title="A URL associated with the reference.">
<polygon fill="#996633" stroke="#996633" points="276,-43 276,-63 494,-63 494,-43 276,-43"/>
<polygon fill="none" stroke="black" points="276,-43 276,-63 494,-63 494,-43 276,-43"/>
<text text-anchor="start" x="334.5" y="-49.7333" font-family="Times Roman,serif" font-size="14.00">[URL] URL (0..*)</text>
</a>
<a xlink:href="/help/iodefnav?iodef_class=Reference" xlink:title="A free&#45;form text description of this reference.">
<polygon fill="#996633" stroke="#996633" points="276,-23 276,-43 494,-43 494,-23 276,-23"/>
<polygon fill="none" stroke="black" points="276,-23 276,-43 494,-43 494,-23 276,-23"/>
<text text-anchor="start" x="291.5" y="-29.7333" font-family="Times Roman,serif" font-size="14.00">[ML_STRING] Description (0..*)</text>
</a>
<a xlink:href="/help/iodefnav?iodef_class=Reference" xlink:title="Name of the reference.">
<polygon fill="#996633" stroke="#996633" points="276,-3 276,-23 494,-23 494,-3 276,-3"/>
<polygon fill="none" stroke="black" points="276,-3 276,-23 494,-23 494,-3 276,-3"/>
<text text-anchor="start" x="279.5" y="-9.73333" font-family="Times Roman,serif" font-size="14.00">[ML_STRING] ReferenceName (1..1)</text>
</a>
</g>
<!-- Method&#45;&#45;Reference -->
<g id="edge4" class="edge"><title>Method&#45;&#45;Reference</title>
<path fill="none" stroke="black" d="M210.058,-83.3619C225.608,-79.8633 241.771,-76.2265 257.713,-72.6395"/>
<polygon fill="black" stroke="black" points="258.615,-76.0241 267.603,-70.4143 257.079,-69.1948 258.615,-76.0241"/>
<text text-anchor="middle" x="239" y="-85.4" font-family="Times Roman,serif" font-size="14.00">0..*</text>
</g>
</g>
</svg>
