<?xml version="1.0" encoding="UTF-8" standalone="no"?>
<!DOCTYPE svg PUBLIC "-//W3C//DTD SVG 1.1//EN"
 "http://www.w3.org/Graphics/SVG/1.1/DTD/svg11.dtd">
<!-- Generated by graphviz version 2.26.0 (20091210.2329)
 -->
<!-- Title: _anonymous_0 Pages: 1 -->
<svg width="222pt" height="96pt"
 viewBox="0.00 0.00 222.00 96.00" xmlns="http://www.w3.org/2000/svg" xmlns:xlink="http://www.w3.org/1999/xlink">
<g id="graph1" class="graph" transform="scale(1 1) rotate(0) translate(4 92)">
<title>_anonymous_0</title>
<polygon fill="white" stroke="white" points="-4,5 -4,-92 219,-92 219,5 -4,5"/>
<!-- NodeRole -->
<g id="node1" class="node"><title>NodeRole</title>
<a xlink:href="/help/iodefnav?iodef_class=NodeRole" xlink:title="The NodeRole class describes the intended function performed by a particular host. ">
<polygon fill="#182f5f" stroke="#182f5f" points="9,-63 9,-84 206,-84 206,-63 9,-63"/>
<polygon fill="none" stroke="black" points="9,-63 9,-84 206,-84 206,-63 9,-63"/>
<text text-anchor="start" x="80" y="-70.2333" font-family="Times Roman,serif" font-size="14.00">NodeRole</text>
</a>
<a xlink:href="/help/iodefnav?iodef_class=NodeRole" xlink:title="Functionality provided by a node.">
<polygon fill="#284f9f" stroke="#284f9f" points="9,-43 9,-63 206,-63 206,-43 9,-43"/>
<polygon fill="none" stroke="black" points="9,-43 9,-63 206,-63 206,-43 9,-43"/>
<text text-anchor="start" x="26" y="-49.7333" font-family="Times Roman,serif" font-size="14.00">[ENUM] category (Required)</text>
</a>
<a xlink:href="/help/iodefnav?iodef_class=NodeRole" xlink:title="A valid language code per RFC 4646 [7] constrained by the definition of &quot;xs:language&quot;. &#160;The interpretation of this code is described in Section 6.">
<polygon fill="#284f9f" stroke="#284f9f" points="9,-23 9,-43 206,-43 206,-23 9,-23"/>
<polygon fill="none" stroke="black" points="9,-23 9,-43 206,-43 206,-23 9,-23"/>
<text text-anchor="start" x="38" y="-29.7333" font-family="Times Roman,serif" font-size="14.00">[ENUM] lang (Required)</text>
</a>
<a xlink:href="/help/iodefnav?iodef_class=NodeRole" xlink:title="A means by which to extend the category attribute. &#160;See Section 5.1.">
<polygon fill="#284f9f" stroke="#284f9f" points="9,-3 9,-23 206,-23 206,-3 9,-3"/>
<polygon fill="none" stroke="black" points="9,-3 9,-23 206,-23 206,-3 9,-3"/>
<text text-anchor="start" x="12.5" y="-9.73333" font-family="Times Roman,serif" font-size="14.00">[STRING] ext&#45;category (Optional)</text>
</a>
</g>
</g>
</svg>
