<?xml version="1.0" encoding="UTF-8" standalone="no"?>
<!DOCTYPE svg PUBLIC "-//W3C//DTD SVG 1.1//EN"
 "http://www.w3.org/Graphics/SVG/1.1/DTD/svg11.dtd">
<!-- Generated by graphviz version 2.26.0 (20091210.2329)
 -->
<!-- Title: _anonymous_0 Pages: 1 -->
<svg width="490pt" height="348pt"
 viewBox="0.00 0.00 490.00 348.00" xmlns="http://www.w3.org/2000/svg" xmlns:xlink="http://www.w3.org/1999/xlink">
<g id="graph1" class="graph" transform="scale(1 1) rotate(0) translate(4 344)">
<title>_anonymous_0</title>
<polygon fill="white" stroke="white" points="-4,5 -4,-344 487,-344 487,5 -4,5"/>
<!-- NodeRole -->
<g id="node1" class="node"><title>NodeRole</title>
<a xlink:href="/help/iodefnav?iodef_class=NodeRole" xlink:title="The NodeRole class describes the intended function performed by a particular host. ">
<polygon fill="#182f5f" stroke="#182f5f" points="277,-315 277,-336 474,-336 474,-315 277,-315"/>
<polygon fill="none" stroke="black" points="277,-315 277,-336 474,-336 474,-315 277,-315"/>
<text text-anchor="start" x="348" y="-322.233" font-family="Times Roman,serif" font-size="14.00">NodeRole</text>
</a>
<a xlink:href="/help/iodefnav?iodef_class=NodeRole" xlink:title="Functionality provided by a node.">
<polygon fill="#284f9f" stroke="#284f9f" points="277,-295 277,-315 474,-315 474,-295 277,-295"/>
<polygon fill="none" stroke="black" points="277,-295 277,-315 474,-315 474,-295 277,-295"/>
<text text-anchor="start" x="294" y="-301.733" font-family="Times Roman,serif" font-size="14.00">[ENUM] category (Required)</text>
</a>
<a xlink:href="/help/iodefnav?iodef_class=NodeRole" xlink:title="A valid language code per RFC 4646 [7] constrained by the definition of &quot;xs:language&quot;. &#160;The interpretation of this code is described in Section 6.">
<polygon fill="#284f9f" stroke="#284f9f" points="277,-275 277,-295 474,-295 474,-275 277,-275"/>
<polygon fill="none" stroke="black" points="277,-275 277,-295 474,-295 474,-275 277,-275"/>
<text text-anchor="start" x="306" y="-281.733" font-family="Times Roman,serif" font-size="14.00">[ENUM] lang (Required)</text>
</a>
<a xlink:href="/help/iodefnav?iodef_class=NodeRole" xlink:title="A means by which to extend the category attribute. &#160;See Section 5.1.">
<polygon fill="#284f9f" stroke="#284f9f" points="277,-255 277,-275 474,-275 474,-255 277,-255"/>
<polygon fill="none" stroke="black" points="277,-255 277,-275 474,-275 474,-255 277,-255"/>
<text text-anchor="start" x="280.5" y="-261.733" font-family="Times Roman,serif" font-size="14.00">[STRING] ext&#45;category (Optional)</text>
</a>
</g>
<!-- Node -->
<g id="node2" class="node"><title>Node</title>
<a xlink:href="/help/iodefnav?iodef_class=Node" xlink:title="The Node class names a system (e.g., PC, router) or network. ">
<polygon fill="#182f5f" stroke="#182f5f" points="9,-199 9,-220 202,-220 202,-199 9,-199"/>
<polygon fill="none" stroke="black" points="9,-199 9,-220 202,-220 202,-199 9,-199"/>
<text text-anchor="start" x="90.5" y="-206.233" font-family="Times Roman,serif" font-size="14.00">Node</text>
</a>
<a xlink:href="/help/iodefnav?iodef_class=Node" xlink:title="A free&#45;from description of the physical location of the equipment.">
<polygon fill="#284f9f" stroke="#284f9f" points="9,-179 9,-199 202,-199 202,-179 9,-179"/>
<polygon fill="none" stroke="black" points="9,-179 9,-199 202,-199 202,-179 9,-179"/>
<text text-anchor="start" x="19.5" y="-185.733" font-family="Times Roman,serif" font-size="14.00">[ML_STRING] Location (0..1)</text>
</a>
<a xlink:href="/help/iodefnav?iodef_class=Node" xlink:title="The name of the Node (e.g., fully qualified domain name). &#160;This information MUST be provided if no Address information is given.">
<polygon fill="#284f9f" stroke="#284f9f" points="9,-159 9,-179 202,-179 202,-159 9,-159"/>
<polygon fill="none" stroke="black" points="9,-159 9,-179 202,-179 202,-159 9,-159"/>
<text text-anchor="start" x="12.5" y="-165.733" font-family="Times Roman,serif" font-size="14.00">[ML_STRING] NodeName (0..*)</text>
</a>
<a xlink:href="/help/iodefnav?iodef_class=Node" xlink:title="A timestamp of when the resolution between the name and address was performed. &#160;This information SHOULD be provided if both an Address and NodeName are specified.">
<polygon fill="#284f9f" stroke="#284f9f" points="9,-139 9,-159 202,-159 202,-139 9,-139"/>
<polygon fill="none" stroke="black" points="9,-139 9,-159 202,-159 202,-139 9,-139"/>
<text text-anchor="start" x="40" y="-145.733" font-family="Times Roman,serif" font-size="14.00">[None] DateTime (0..1)</text>
</a>
</g>
<!-- Node&#45;&#45;NodeRole -->
<g id="edge2" class="edge"><title>Node&#45;&#45;NodeRole</title>
<path fill="none" stroke="black" d="M207.46,-224.02C225.582,-231.806 244.536,-239.949 262.907,-247.842"/>
<polygon fill="black" stroke="black" points="261.592,-251.086 272.162,-251.818 264.356,-244.654 261.592,-251.086"/>
<text text-anchor="middle" x="239" y="-247.4" font-family="Times Roman,serif" font-size="14.00">0..*</text>
</g>
<!-- Address -->
<g id="node4" class="node"><title>Address</title>
<a xlink:href="/help/iodefnav?iodef_class=Address" xlink:title="The Address class represents a hardware (layer&#45;2), network (layer&#45;3), or application (layer&#45;7) address. ">
<polygon fill="#182f5f" stroke="#182f5f" points="277,-209 277,-230 474,-230 474,-209 277,-209"/>
<polygon fill="none" stroke="black" points="277,-209 277,-230 474,-230 474,-209 277,-209"/>
<text text-anchor="start" x="353" y="-216.233" font-family="Times Roman,serif" font-size="14.00">Address</text>
</a>
<a xlink:href="/help/iodefnav?iodef_class=Address" xlink:title="The type of address represented. &#160;The permitted values for this attribute are shown below. &#160;The default value is &quot;ipv4&#45;addr&quot;.">
<polygon fill="#284f9f" stroke="#284f9f" points="277,-189 277,-209 474,-209 474,-189 277,-189"/>
<polygon fill="none" stroke="black" points="277,-189 277,-209 474,-209 474,-189 277,-189"/>
<text text-anchor="start" x="294" y="-195.733" font-family="Times Roman,serif" font-size="14.00">[ENUM] category (Required)</text>
</a>
<a xlink:href="/help/iodefnav?iodef_class=Address" xlink:title="The name of the Virtual LAN to which the address belongs.">
<polygon fill="#284f9f" stroke="#284f9f" points="277,-169 277,-189 474,-189 474,-169 277,-169"/>
<polygon fill="none" stroke="black" points="277,-169 277,-189 474,-189 474,-169 277,-169"/>
<text text-anchor="start" x="285.5" y="-175.733" font-family="Times Roman,serif" font-size="14.00">[STRING] vlan&#45;name (Optional)</text>
</a>
<a xlink:href="/help/iodefnav?iodef_class=Address" xlink:title="A means by which to extend the category attribute. &#160;See Section 5.1.">
<polygon fill="#284f9f" stroke="#284f9f" points="277,-149 277,-169 474,-169 474,-149 277,-149"/>
<polygon fill="none" stroke="black" points="277,-149 277,-169 474,-169 474,-149 277,-149"/>
<text text-anchor="start" x="280.5" y="-155.733" font-family="Times Roman,serif" font-size="14.00">[STRING] ext&#45;category (Optional)</text>
</a>
<a xlink:href="/help/iodefnav?iodef_class=Address" xlink:title="The number of the Virtual LAN to which the address belongs.">
<polygon fill="#284f9f" stroke="#284f9f" points="277,-129 277,-149 474,-149 474,-129 277,-129"/>
<polygon fill="none" stroke="black" points="277,-129 277,-149 474,-149 474,-129 277,-129"/>
<text text-anchor="start" x="288" y="-135.733" font-family="Times Roman,serif" font-size="14.00">[STRING] vlan&#45;num (Optional)</text>
</a>
</g>
<!-- Node&#45;&#45;Address -->
<g id="edge4" class="edge"><title>Node&#45;&#45;Address</title>
<path fill="none" stroke="black" d="M209.775,-180C225.462,-180 241.721,-180 257.648,-180"/>
<polygon fill="black" stroke="black" points="258.056,-183.5 268.056,-180 258.056,-176.5 258.056,-183.5"/>
<text text-anchor="middle" x="239" y="-186.4" font-family="Times Roman,serif" font-size="14.00">0..*</text>
</g>
<!-- Counter -->
<g id="node6" class="node"><title>Counter</title>
<a xlink:href="/help/iodefnav?iodef_class=Counter" xlink:title="The Counter class summarize multiple occurrences of some event, or conveys counts or rates on various features (e.g., packets, sessions, events). ">
<polygon fill="#993015" stroke="#993015" points="278,-83 278,-104 473,-104 473,-83 278,-83"/>
<polygon fill="none" stroke="black" points="278,-83 278,-104 473,-104 473,-83 278,-83"/>
<text text-anchor="start" x="353.5" y="-90.2333" font-family="Times Roman,serif" font-size="14.00">Counter</text>
</a>
<a xlink:href="/help/iodefnav?iodef_class=Counter" xlink:title="If present, the Counter class represents a rate rather than a count over the entire event. &#160;In that case, this attribute specifies the denominator of the rate (where the type attribute specified the nominator). &#160;The possible values of this attribute are defined in Section 3.10.2">
<polygon fill="#ff5024" stroke="#ff5024" points="278,-63 278,-83 473,-83 473,-63 278,-63"/>
<polygon fill="none" stroke="black" points="278,-63 278,-83 473,-83 473,-63 278,-63"/>
<text text-anchor="start" x="296" y="-69.7333" font-family="Times Roman,serif" font-size="14.00">[ENUM] duration (Optional)</text>
</a>
<a xlink:href="/help/iodefnav?iodef_class=Counter" xlink:title="Specifies the units of the element content.">
<polygon fill="#ff5024" stroke="#ff5024" points="278,-43 278,-63 473,-63 473,-43 278,-43"/>
<polygon fill="none" stroke="black" points="278,-43 278,-63 473,-63 473,-43 278,-43"/>
<text text-anchor="start" x="306" y="-49.7333" font-family="Times Roman,serif" font-size="14.00">[ENUM] type (Required)</text>
</a>
<a xlink:href="/help/iodefnav?iodef_class=Counter" xlink:title="A means by which to extend the type attribute. See Section 5.1.">
<polygon fill="#ff5024" stroke="#ff5024" points="278,-23 278,-43 473,-43 473,-23 278,-23"/>
<polygon fill="none" stroke="black" points="278,-23 278,-43 473,-43 473,-23 278,-23"/>
<text text-anchor="start" x="292.5" y="-29.7333" font-family="Times Roman,serif" font-size="14.00">[STRING] ext&#45;type (Optional)</text>
</a>
<a xlink:href="/help/iodefnav?iodef_class=Counter" xlink:title="A means by which to extend the duration attribute. &#160;See Section 5.1.">
<polygon fill="#ff5024" stroke="#ff5024" points="278,-3 278,-23 473,-23 473,-3 278,-3"/>
<polygon fill="none" stroke="black" points="278,-3 278,-23 473,-23 473,-3 278,-3"/>
<text text-anchor="start" x="281.5" y="-9.73333" font-family="Times Roman,serif" font-size="14.00">[STRING] ext&#45;duration (Optional)</text>
</a>
</g>
<!-- Node&#45;&#45;Counter -->
<g id="edge6" class="edge"><title>Node&#45;&#45;Counter</title>
<path fill="none" stroke="black" d="M199.433,-135.931C218.95,-126.823 239.715,-117.133 259.875,-107.725"/>
<polygon fill="black" stroke="black" points="261.506,-110.826 269.088,-103.426 258.546,-104.483 261.506,-110.826"/>
<text text-anchor="middle" x="239" y="-126.4" font-family="Times Roman,serif" font-size="14.00">0..*</text>
</g>
</g>
</svg>
