<?xml version="1.0" encoding="UTF-8" standalone="no"?>
<!DOCTYPE svg PUBLIC "-//W3C//DTD SVG 1.1//EN"
 "http://www.w3.org/Graphics/SVG/1.1/DTD/svg11.dtd">
<!-- Generated by graphviz version 2.26.0 (20091210.2329)
 -->
<!-- Title: _anonymous_0 Pages: 1 -->
<svg width="198pt" height="196pt"
 viewBox="0.00 0.00 198.00 196.00" xmlns="http://www.w3.org/2000/svg" xmlns:xlink="http://www.w3.org/1999/xlink">
<g id="graph1" class="graph" transform="scale(1 1) rotate(0) translate(4 192)">
<title>_anonymous_0</title>
<polygon fill="white" stroke="white" points="-4,5 -4,-192 195,-192 195,5 -4,5"/>
<!-- OperatingSystem -->
<g id="node1" class="node"><title>OperatingSystem</title>
<a xlink:href="/help/iodefnav?iodef_class=OperatingSystem" xlink:title="The OperatingSystem class describes the operating system running on a System. &#160;The definition is identical to the Application class (Section 3.17.1). ">
<polygon fill="#182f5f" stroke="#182f5f" points="8,-163 8,-184 182,-184 182,-163 8,-163"/>
<polygon fill="none" stroke="black" points="8,-163 8,-184 182,-184 182,-163 8,-163"/>
<text text-anchor="start" x="47.5" y="-170.233" font-family="Times Roman,serif" font-size="14.00">OperatingSystem</text>
</a>
<a xlink:href="/help/iodefnav?iodef_class=OperatingSystem" xlink:title="A URL describing the application.">
<polygon fill="#284f9f" stroke="#284f9f" points="8,-143 8,-163 182,-163 182,-143 8,-143"/>
<polygon fill="none" stroke="black" points="8,-143 8,-163 182,-163 182,-143 8,-143"/>
<text text-anchor="start" x="44.5" y="-149.733" font-family="Times Roman,serif" font-size="14.00">[URL] URL (0..1)</text>
</a>
<a xlink:href="/help/iodefnav?iodef_class=OperatingSystem" xlink:title="Version of the software.">
<polygon fill="#284f9f" stroke="#284f9f" points="8,-123 8,-143 182,-143 182,-123 8,-123"/>
<polygon fill="none" stroke="black" points="8,-123 8,-143 182,-143 182,-123 8,-123"/>
<text text-anchor="start" x="14" y="-129.733" font-family="Times Roman,serif" font-size="14.00">[STRING] version (Optional)</text>
</a>
<a xlink:href="/help/iodefnav?iodef_class=OperatingSystem" xlink:title="Vendor name of the software.">
<polygon fill="#284f9f" stroke="#284f9f" points="8,-103 8,-123 182,-123 182,-103 8,-103"/>
<polygon fill="none" stroke="black" points="8,-103 8,-123 182,-123 182,-103 8,-103"/>
<text text-anchor="start" x="15" y="-109.733" font-family="Times Roman,serif" font-size="14.00">[STRING] vendor (Optional)</text>
</a>
<a xlink:href="/help/iodefnav?iodef_class=OperatingSystem" xlink:title="Name of the software.">
<polygon fill="#284f9f" stroke="#284f9f" points="8,-83 8,-103 182,-103 182,-83 8,-83"/>
<polygon fill="none" stroke="black" points="8,-83 8,-103 182,-103 182,-83 8,-83"/>
<text text-anchor="start" x="19" y="-89.7333" font-family="Times Roman,serif" font-size="14.00">[STRING] name (Optional)</text>
</a>
<a xlink:href="/help/iodefnav?iodef_class=OperatingSystem" xlink:title="Family of the software.">
<polygon fill="#284f9f" stroke="#284f9f" points="8,-63 8,-83 182,-83 182,-63 8,-63"/>
<polygon fill="none" stroke="black" points="8,-63 8,-83 182,-83 182,-63 8,-63"/>
<text text-anchor="start" x="16" y="-69.7333" font-family="Times Roman,serif" font-size="14.00">[STRING] family (Optional)</text>
</a>
<a xlink:href="/help/iodefnav?iodef_class=OperatingSystem" xlink:title="An identifier that can be used to reference a particular configuration of this software.">
<polygon fill="#284f9f" stroke="#284f9f" points="8,-43 8,-63 182,-63 182,-43 8,-43"/>
<polygon fill="none" stroke="black" points="8,-43 8,-63 182,-63 182,-43 8,-43"/>
<text text-anchor="start" x="11.5" y="-49.7333" font-family="Times Roman,serif" font-size="14.00">[STRING] configid (Optional)</text>
</a>
<a xlink:href="/help/iodefnav?iodef_class=OperatingSystem" xlink:title="An identifier that can be used to reference this software.">
<polygon fill="#284f9f" stroke="#284f9f" points="8,-23 8,-43 182,-43 182,-23 8,-23"/>
<polygon fill="none" stroke="black" points="8,-23 8,-43 182,-43 182,-23 8,-23"/>
<text text-anchor="start" x="21" y="-29.7333" font-family="Times Roman,serif" font-size="14.00">[STRING] swid (Optional)</text>
</a>
<a xlink:href="/help/iodefnav?iodef_class=OperatingSystem" xlink:title="Patch or service pack level of the software.">
<polygon fill="#284f9f" stroke="#284f9f" points="8,-3 8,-23 182,-23 182,-3 8,-3"/>
<polygon fill="none" stroke="black" points="8,-3 8,-23 182,-23 182,-3 8,-3"/>
<text text-anchor="start" x="19.5" y="-9.73333" font-family="Times Roman,serif" font-size="14.00">[STRING] patch (Optional)</text>
</a>
</g>
</g>
</svg>
