<?xml version="1.0" encoding="UTF-8" standalone="no"?>
<!DOCTYPE svg PUBLIC "-//W3C//DTD SVG 1.1//EN"
 "http://www.w3.org/Graphics/SVG/1.1/DTD/svg11.dtd">
<!-- Generated by graphviz version 2.26.0 (20091210.2329)
 -->
<!-- Title: _anonymous_0 Pages: 1 -->
<svg width="744pt" height="654pt"
 viewBox="0.00 0.00 744.00 654.00" xmlns="http://www.w3.org/2000/svg" xmlns:xlink="http://www.w3.org/1999/xlink">
<g id="graph1" class="graph" transform="scale(1 1) rotate(0) translate(4 650)">
<title>_anonymous_0</title>
<polygon fill="white" stroke="white" points="-4,5 -4,-650 741,-650 741,5 -4,5"/>
<!-- AdditionalData -->
<g id="node1" class="node"><title>AdditionalData</title>
<a xlink:href="/help/iodefnav?iodef_class=AdditionalData" xlink:title="The AdditionalData class serves as an extension mechanism for information not otherwise represented in the data model. &#160;For relatively simple information, atomic data types (e.g., integers, strings) are provided with a mechanism to annotate their meaning. The class can also be used to extend the data model (and the associated Schema) to support proprietary extensions by encapsulating entire XML documents conforming to another Schema (e.g., IDMEF). &#160;A detailed discussion for extending the data model and the schema can be found in Section 5. ">
<polygon fill="#997a3d" stroke="#997a3d" points="537,-621 537,-642 717,-642 717,-621 537,-621"/>
<polygon fill="none" stroke="black" points="537,-621 537,-642 717,-642 717,-621 537,-621"/>
<text text-anchor="start" x="585" y="-628.233" font-family="Times Roman,serif" font-size="14.00">AdditionalData</text>
</a>
<a xlink:href="/help/iodefnav?iodef_class=AdditionalData" xlink:title="The data type of the element content. &#160;The permitted values for this attribute are shown below. &#160;The default value is &quot;string&quot;.">
<polygon fill="#ffcc66" stroke="#ffcc66" points="537,-601 537,-621 717,-621 717,-601 537,-601"/>
<polygon fill="none" stroke="black" points="537,-601 537,-621 717,-621 717,-601 537,-601"/>
<text text-anchor="start" x="554" y="-607.733" font-family="Times Roman,serif" font-size="14.00">[ENUM] dtype (Required)</text>
</a>
<a xlink:href="/help/iodefnav?iodef_class=AdditionalData" xlink:title="A free&#45;form description of the element content.">
<polygon fill="#ffcc66" stroke="#ffcc66" points="537,-581 537,-601 717,-601 717,-581 537,-581"/>
<polygon fill="none" stroke="black" points="537,-581 537,-601 717,-601 717,-581 537,-581"/>
<text text-anchor="start" x="542.5" y="-587.733" font-family="Times Roman,serif" font-size="14.00">[STRING] meaning (Optional)</text>
</a>
<a xlink:href="/help/iodefnav?iodef_class=AdditionalData" xlink:title="A means by which to extend the dtype attribute. &#160;See Section 5.1.">
<polygon fill="#ffcc66" stroke="#ffcc66" points="537,-561 537,-581 717,-581 717,-561 537,-561"/>
<polygon fill="none" stroke="black" points="537,-561 537,-581 717,-581 717,-561 537,-561"/>
<text text-anchor="start" x="540.5" y="-567.733" font-family="Times Roman,serif" font-size="14.00">[STRING] ext&#45;dtype (Optional)</text>
</a>
<a xlink:href="/help/iodefnav?iodef_class=AdditionalData" xlink:title="An identifier referencing the format and semantics of the element content.">
<polygon fill="#ffcc66" stroke="#ffcc66" points="537,-541 537,-561 717,-561 717,-541 537,-541"/>
<polygon fill="none" stroke="black" points="537,-541 537,-561 717,-561 717,-541 537,-541"/>
<text text-anchor="start" x="542.5" y="-547.733" font-family="Times Roman,serif" font-size="14.00">[STRING] formatid (Optional)</text>
</a>
<a xlink:href="/help/iodefnav?iodef_class=AdditionalData" xlink:title="This attribute has been defined in Section 3.2.">
<polygon fill="#ffcc66" stroke="#ffcc66" points="537,-521 537,-541 717,-541 717,-521 537,-521"/>
<polygon fill="none" stroke="black" points="537,-521 537,-541 717,-541 717,-521 537,-521"/>
<text text-anchor="start" x="542.5" y="-527.733" font-family="Times Roman,serif" font-size="14.00">[ENUM] restriction (Optional)</text>
</a>
</g>
<!-- RecordData -->
<g id="node2" class="node"><title>RecordData</title>
<a xlink:href="/help/iodefnav?iodef_class=RecordData" xlink:title="The RecordData class groups log or audit data from a given sensor (e.g., IDS, firewall log) and provides a way to annotate the output. ">
<polygon fill="#997a00" stroke="#997a00" points="258,-337 258,-358 452,-358 452,-337 258,-337"/>
<polygon fill="none" stroke="black" points="258,-337 258,-358 452,-358 452,-337 258,-337"/>
<text text-anchor="start" x="322.5" y="-344.233" font-family="Times Roman,serif" font-size="14.00">RecordData</text>
</a>
<a xlink:href="/help/iodefnav?iodef_class=RecordData" xlink:title="Free&#45;form textual description of the provided RecordItem data. &#160;At minimum, this description should convey the significance of the provided RecordItem data.">
<polygon fill="#ffcc00" stroke="#ffcc00" points="258,-317 258,-337 452,-337 452,-317 258,-317"/>
<polygon fill="none" stroke="black" points="258,-317 258,-337 452,-337 452,-317 258,-317"/>
<text text-anchor="start" x="261.5" y="-323.733" font-family="Times Roman,serif" font-size="14.00">[ML_STRING] Description (0..*)</text>
</a>
<a xlink:href="/help/iodefnav?iodef_class=RecordData" xlink:title="Timestamp of the RecordItem data.">
<polygon fill="#ffcc00" stroke="#ffcc00" points="258,-297 258,-317 452,-317 452,-297 258,-297"/>
<polygon fill="none" stroke="black" points="258,-297 258,-317 452,-317 452,-297 258,-297"/>
<text text-anchor="start" x="289.5" y="-303.733" font-family="Times Roman,serif" font-size="14.00">[None] DateTime (0..1)</text>
</a>
<a xlink:href="/help/iodefnav?iodef_class=RecordData" xlink:title="This attribute has been defined in Section 3.2.">
<polygon fill="#ffcc00" stroke="#ffcc00" points="258,-277 258,-297 452,-297 452,-277 258,-277"/>
<polygon fill="none" stroke="black" points="258,-277 258,-297 452,-297 452,-277 258,-277"/>
<text text-anchor="start" x="270.5" y="-283.733" font-family="Times Roman,serif" font-size="14.00">[ENUM] restriction (Optional)</text>
</a>
</g>
<!-- RecordData&#45;&#45;AdditionalData -->
<g id="edge2" class="edge"><title>RecordData&#45;&#45;AdditionalData</title>
<path fill="none" stroke="black" d="M387.226,-362.361C418.1,-403.145 467.361,-463.935 518,-509 518.981,-509.873 519.973,-510.744 520.975,-511.612"/>
<polygon fill="black" stroke="black" points="518.929,-514.464 528.84,-518.21 523.428,-509.101 518.929,-514.464"/>
<text text-anchor="middle" x="489" y="-496.4" font-family="Times Roman,serif" font-size="14.00">0..1</text>
</g>
<!-- Application -->
<g id="node4" class="node"><title>Application</title>
<a xlink:href="/help/iodefnav?iodef_class=Application" xlink:title="The Application class describes an application running on a System providing a Service. ">
<polygon fill="#182f5f" stroke="#182f5f" points="540,-475 540,-496 714,-496 714,-475 540,-475"/>
<polygon fill="none" stroke="black" points="540,-475 540,-496 714,-496 714,-475 540,-475"/>
<text text-anchor="start" x="595" y="-482.233" font-family="Times Roman,serif" font-size="14.00">Application</text>
</a>
<a xlink:href="/help/iodefnav?iodef_class=Application" xlink:title="A URL describing the application.">
<polygon fill="#284f9f" stroke="#284f9f" points="540,-455 540,-475 714,-475 714,-455 540,-455"/>
<polygon fill="none" stroke="black" points="540,-455 540,-475 714,-475 714,-455 540,-455"/>
<text text-anchor="start" x="576.5" y="-461.733" font-family="Times Roman,serif" font-size="14.00">[URL] URL (0..1)</text>
</a>
<a xlink:href="/help/iodefnav?iodef_class=Application" xlink:title="Version of the software.">
<polygon fill="#284f9f" stroke="#284f9f" points="540,-435 540,-455 714,-455 714,-435 540,-435"/>
<polygon fill="none" stroke="black" points="540,-435 540,-455 714,-455 714,-435 540,-435"/>
<text text-anchor="start" x="546" y="-441.733" font-family="Times Roman,serif" font-size="14.00">[STRING] version (Optional)</text>
</a>
<a xlink:href="/help/iodefnav?iodef_class=Application" xlink:title="Vendor name of the software.">
<polygon fill="#284f9f" stroke="#284f9f" points="540,-415 540,-435 714,-435 714,-415 540,-415"/>
<polygon fill="none" stroke="black" points="540,-415 540,-435 714,-435 714,-415 540,-415"/>
<text text-anchor="start" x="547" y="-421.733" font-family="Times Roman,serif" font-size="14.00">[STRING] vendor (Optional)</text>
</a>
<a xlink:href="/help/iodefnav?iodef_class=Application" xlink:title="Name of the software.">
<polygon fill="#284f9f" stroke="#284f9f" points="540,-395 540,-415 714,-415 714,-395 540,-395"/>
<polygon fill="none" stroke="black" points="540,-395 540,-415 714,-415 714,-395 540,-395"/>
<text text-anchor="start" x="551" y="-401.733" font-family="Times Roman,serif" font-size="14.00">[STRING] name (Optional)</text>
</a>
<a xlink:href="/help/iodefnav?iodef_class=Application" xlink:title="Family of the software.">
<polygon fill="#284f9f" stroke="#284f9f" points="540,-375 540,-395 714,-395 714,-375 540,-375"/>
<polygon fill="none" stroke="black" points="540,-375 540,-395 714,-395 714,-375 540,-375"/>
<text text-anchor="start" x="548" y="-381.733" font-family="Times Roman,serif" font-size="14.00">[STRING] family (Optional)</text>
</a>
<a xlink:href="/help/iodefnav?iodef_class=Application" xlink:title="An identifier that can be used to reference a particular configuration of this software.">
<polygon fill="#284f9f" stroke="#284f9f" points="540,-355 540,-375 714,-375 714,-355 540,-355"/>
<polygon fill="none" stroke="black" points="540,-355 540,-375 714,-375 714,-355 540,-355"/>
<text text-anchor="start" x="543.5" y="-361.733" font-family="Times Roman,serif" font-size="14.00">[STRING] configid (Optional)</text>
</a>
<a xlink:href="/help/iodefnav?iodef_class=Application" xlink:title="An identifier that can be used to reference this software.">
<polygon fill="#284f9f" stroke="#284f9f" points="540,-335 540,-355 714,-355 714,-335 540,-335"/>
<polygon fill="none" stroke="black" points="540,-335 540,-355 714,-355 714,-335 540,-335"/>
<text text-anchor="start" x="553" y="-341.733" font-family="Times Roman,serif" font-size="14.00">[STRING] swid (Optional)</text>
</a>
<a xlink:href="/help/iodefnav?iodef_class=Application" xlink:title="Patch or service pack level of the software.">
<polygon fill="#284f9f" stroke="#284f9f" points="540,-315 540,-335 714,-335 714,-315 540,-315"/>
<polygon fill="none" stroke="black" points="540,-315 540,-335 714,-335 714,-315 540,-315"/>
<text text-anchor="start" x="551.5" y="-321.733" font-family="Times Roman,serif" font-size="14.00">[STRING] patch (Optional)</text>
</a>
</g>
<!-- RecordData&#45;&#45;Application -->
<g id="edge4" class="edge"><title>RecordData&#45;&#45;Application</title>
<path fill="none" stroke="black" d="M460.162,-352.023C480.553,-358.62 501.92,-365.533 522.296,-372.125"/>
<polygon fill="black" stroke="black" points="521.303,-375.482 531.894,-375.231 523.457,-368.822 521.303,-375.482"/>
<text text-anchor="middle" x="489" y="-370.4" font-family="Times Roman,serif" font-size="14.00">0..1</text>
</g>
<!-- RecordItem -->
<g id="node6" class="node"><title>RecordItem</title>
<a xlink:href="/help/iodefnav?iodef_class=RecordItem" xlink:title="The RecordItem class provides a way to incorporate relevant logs, audit trails, or forensic data to support the conclusions made during the course of analyzing the incident. &#160;The class supports both the direct encapsulation of the data, as well as, provides primitives to reference data stored elsewhere. ">
<polygon fill="#997a00" stroke="#997a00" points="537,-269 537,-290 717,-290 717,-269 537,-269"/>
<polygon fill="none" stroke="black" points="537,-269 537,-290 717,-290 717,-269 537,-269"/>
<text text-anchor="start" x="594.5" y="-276.233" font-family="Times Roman,serif" font-size="14.00">RecordItem</text>
</a>
<a xlink:href="/help/iodefnav?iodef_class=RecordItem" xlink:title="The data type of the element content. &#160;The permitted values for this attribute are shown below. &#160;The default value is &quot;string&quot;.">
<polygon fill="#ffcc00" stroke="#ffcc00" points="537,-249 537,-269 717,-269 717,-249 537,-249"/>
<polygon fill="none" stroke="black" points="537,-249 537,-269 717,-269 717,-249 537,-249"/>
<text text-anchor="start" x="554" y="-255.733" font-family="Times Roman,serif" font-size="14.00">[ENUM] dtype (Required)</text>
</a>
<a xlink:href="/help/iodefnav?iodef_class=RecordItem" xlink:title="A free&#45;form description of the element content.">
<polygon fill="#ffcc00" stroke="#ffcc00" points="537,-229 537,-249 717,-249 717,-229 537,-229"/>
<polygon fill="none" stroke="black" points="537,-229 537,-249 717,-249 717,-229 537,-229"/>
<text text-anchor="start" x="542.5" y="-235.733" font-family="Times Roman,serif" font-size="14.00">[STRING] meaning (Optional)</text>
</a>
<a xlink:href="/help/iodefnav?iodef_class=RecordItem" xlink:title="A means by which to extend the dtype attribute. &#160;See Section 5.1.">
<polygon fill="#ffcc00" stroke="#ffcc00" points="537,-209 537,-229 717,-229 717,-209 537,-209"/>
<polygon fill="none" stroke="black" points="537,-209 537,-229 717,-229 717,-209 537,-209"/>
<text text-anchor="start" x="540.5" y="-215.733" font-family="Times Roman,serif" font-size="14.00">[STRING] ext&#45;dtype (Optional)</text>
</a>
<a xlink:href="/help/iodefnav?iodef_class=RecordItem" xlink:title="An identifier referencing the format and semantics of the element content.">
<polygon fill="#ffcc00" stroke="#ffcc00" points="537,-189 537,-209 717,-209 717,-189 537,-189"/>
<polygon fill="none" stroke="black" points="537,-189 537,-209 717,-209 717,-189 537,-189"/>
<text text-anchor="start" x="542.5" y="-195.733" font-family="Times Roman,serif" font-size="14.00">[STRING] formatid (Optional)</text>
</a>
<a xlink:href="/help/iodefnav?iodef_class=RecordItem" xlink:title="This attribute has been defined in Section 3.2.">
<polygon fill="#ffcc00" stroke="#ffcc00" points="537,-169 537,-189 717,-189 717,-169 537,-169"/>
<polygon fill="none" stroke="black" points="537,-169 537,-189 717,-189 717,-169 537,-169"/>
<text text-anchor="start" x="542.5" y="-175.733" font-family="Times Roman,serif" font-size="14.00">[ENUM] restriction (Optional)</text>
</a>
</g>
<!-- RecordData&#45;&#45;RecordItem -->
<g id="edge6" class="edge"><title>RecordData&#45;&#45;RecordItem</title>
<path fill="none" stroke="black" d="M460.162,-283.977C479.473,-277.729 499.66,-271.198 519.051,-264.925"/>
<polygon fill="black" stroke="black" points="520.366,-268.178 528.803,-261.77 518.211,-261.518 520.366,-268.178"/>
<text text-anchor="middle" x="489" y="-283.4" font-family="Times Roman,serif" font-size="14.00">1..*</text>
</g>
<!-- RecordPattern -->
<g id="node8" class="node"><title>RecordPattern</title>
<a xlink:href="/help/iodefnav?iodef_class=RecordPattern" xlink:title="The RecordPattern class describes where in the content of the RecordItem relevant information can be found. &#160;It provides a way to reference subsets of information, identified by a pattern, in a large log file, audit trail, or forensic data. ">
<polygon fill="#997a00" stroke="#997a00" points="526,-123 526,-144 728,-144 728,-123 526,-123"/>
<polygon fill="none" stroke="black" points="526,-123 526,-144 728,-144 728,-123 526,-123"/>
<text text-anchor="start" x="588" y="-130.233" font-family="Times Roman,serif" font-size="14.00">RecordPattern</text>
</a>
<a xlink:href="/help/iodefnav?iodef_class=RecordPattern" xlink:title="Number of types to apply the specified pattern.">
<polygon fill="#ffcc00" stroke="#ffcc00" points="526,-103 526,-123 728,-123 728,-103 526,-103"/>
<polygon fill="none" stroke="black" points="526,-103 526,-123 728,-123 728,-103 526,-103"/>
<text text-anchor="start" x="539.5" y="-109.733" font-family="Times Roman,serif" font-size="14.00">[INTEGER] instance (Optional)</text>
</a>
<a xlink:href="/help/iodefnav?iodef_class=RecordPattern" xlink:title="A means by which to extend the type attribute. See Section 5.1.">
<polygon fill="#ffcc00" stroke="#ffcc00" points="526,-83 526,-103 728,-103 728,-83 526,-83"/>
<polygon fill="none" stroke="black" points="526,-83 526,-103 728,-103 728,-83 526,-83"/>
<text text-anchor="start" x="544" y="-89.7333" font-family="Times Roman,serif" font-size="14.00">[STRING] ext&#45;type (Optional)</text>
</a>
<a xlink:href="/help/iodefnav?iodef_class=RecordPattern" xlink:title="Amount of units (determined by the offsetunit attribute) to seek into the RecordItem data before matching the pattern.">
<polygon fill="#ffcc00" stroke="#ffcc00" points="526,-63 526,-83 728,-83 728,-63 526,-63"/>
<polygon fill="none" stroke="black" points="526,-63 526,-83 728,-83 728,-63 526,-63"/>
<text text-anchor="start" x="546" y="-69.7333" font-family="Times Roman,serif" font-size="14.00">[INTEGER] offset (Optional)</text>
</a>
<a xlink:href="/help/iodefnav?iodef_class=RecordPattern" xlink:title="Describes the units of the offset attribute. The default is &quot;line&quot;.">
<polygon fill="#ffcc00" stroke="#ffcc00" points="526,-43 526,-63 728,-63 728,-43 526,-43"/>
<polygon fill="none" stroke="black" points="526,-43 526,-63 728,-63 728,-43 526,-43"/>
<text text-anchor="start" x="544" y="-49.7333" font-family="Times Roman,serif" font-size="14.00">[ENUM] offsetunit (Optional)</text>
</a>
<a xlink:href="/help/iodefnav?iodef_class=RecordPattern" xlink:title="A means by which to extend the offsetunit attribute. &#160;See Section 5.1.">
<polygon fill="#ffcc00" stroke="#ffcc00" points="526,-23 526,-43 728,-43 728,-23 526,-23"/>
<polygon fill="none" stroke="black" points="526,-23 526,-43 728,-43 728,-23 526,-23"/>
<text text-anchor="start" x="529.5" y="-29.7333" font-family="Times Roman,serif" font-size="14.00">[STRING] ext&#45;offsetunit (Optional)</text>
</a>
<a xlink:href="/help/iodefnav?iodef_class=RecordPattern" xlink:title="Describes the type of pattern being specified in the element content. &#160;The default is &quot;regex&quot;.">
<polygon fill="#ffcc00" stroke="#ffcc00" points="526,-3 526,-23 728,-23 728,-3 526,-3"/>
<polygon fill="none" stroke="black" points="526,-3 526,-23 728,-23 728,-3 526,-3"/>
<text text-anchor="start" x="557.5" y="-9.73333" font-family="Times Roman,serif" font-size="14.00">[ENUM] type (Required)</text>
</a>
</g>
<!-- RecordData&#45;&#45;RecordPattern -->
<g id="edge8" class="edge"><title>RecordData&#45;&#45;RecordPattern</title>
<path fill="none" stroke="black" d="M396.799,-273.731C428.904,-240.479 474.901,-194.422 518,-157 518.853,-156.259 519.712,-155.517 520.576,-154.775"/>
<polygon fill="black" stroke="black" points="523.116,-157.211 528.486,-148.078 518.593,-151.868 523.116,-157.211"/>
<text text-anchor="middle" x="489" y="-197.4" font-family="Times Roman,serif" font-size="14.00">0..*</text>
</g>
<!-- Record -->
<g id="node10" class="node"><title>Record</title>
<a xlink:href="/help/iodefnav?iodef_class=Record" xlink:title="The Record class is a container class for log and audit data that provides supportive information about the incident. &#160;The source of this data will often be the output of monitoring tools. &#160;These logs should substantiate the activity described in the document. ">
<polygon fill="#997a00" stroke="#997a00" points="8,-317 8,-338 184,-338 184,-317 8,-317"/>
<polygon fill="none" stroke="black" points="8,-317 8,-338 184,-338 184,-317 8,-317"/>
<text text-anchor="start" x="76" y="-324.233" font-family="Times Roman,serif" font-size="14.00">Record</text>
</a>
<a xlink:href="/help/iodefnav?iodef_class=Record" xlink:title="This attribute has been defined in Section 3.2.">
<polygon fill="#ffcc00" stroke="#ffcc00" points="8,-297 8,-317 184,-317 184,-297 8,-297"/>
<polygon fill="none" stroke="black" points="8,-297 8,-317 184,-317 184,-297 8,-297"/>
<text text-anchor="start" x="11.5" y="-303.733" font-family="Times Roman,serif" font-size="14.00">[ENUM] restriction (Optional)</text>
</a>
</g>
<!-- Record&#45;&#45;RecordData -->
<g id="edge10" class="edge"><title>Record&#45;&#45;RecordData</title>
<path fill="none" stroke="black" d="M192.074,-318C207.544,-318 223.698,-318 239.566,-318"/>
<polygon fill="black" stroke="black" points="239.943,-321.5 249.943,-318 239.943,-314.5 239.943,-321.5"/>
<text text-anchor="middle" x="221" y="-324.4" font-family="Times Roman,serif" font-size="14.00">1..*</text>
</g>
</g>
</svg>
