<?xml version="1.0" encoding="UTF-8" standalone="no"?>
<!DOCTYPE svg PUBLIC "-//W3C//DTD SVG 1.1//EN"
 "http://www.w3.org/Graphics/SVG/1.1/DTD/svg11.dtd">
<!-- Generated by graphviz version 2.26.0 (20091210.2329)
 -->
<!-- Title: _anonymous_0 Pages: 1 -->
<svg width="494pt" height="654pt"
 viewBox="0.00 0.00 494.00 654.00" xmlns="http://www.w3.org/2000/svg" xmlns:xlink="http://www.w3.org/1999/xlink">
<g id="graph1" class="graph" transform="scale(1 1) rotate(0) translate(4 650)">
<title>_anonymous_0</title>
<polygon fill="white" stroke="white" points="-4,5 -4,-650 491,-650 491,5 -4,5"/>
<!-- AdditionalData -->
<g id="node1" class="node"><title>AdditionalData</title>
<a xlink:href="/help/iodefnav?iodef_class=AdditionalData" xlink:title="The AdditionalData class serves as an extension mechanism for information not otherwise represented in the data model. &#160;For relatively simple information, atomic data types (e.g., integers, strings) are provided with a mechanism to annotate their meaning. The class can also be used to extend the data model (and the associated Schema) to support proprietary extensions by encapsulating entire XML documents conforming to another Schema (e.g., IDMEF). &#160;A detailed discussion for extending the data model and the schema can be found in Section 5. ">
<polygon fill="#997a3d" stroke="#997a3d" points="287,-621 287,-642 467,-642 467,-621 287,-621"/>
<polygon fill="none" stroke="black" points="287,-621 287,-642 467,-642 467,-621 287,-621"/>
<text text-anchor="start" x="335" y="-628.233" font-family="Times Roman,serif" font-size="14.00">AdditionalData</text>
</a>
<a xlink:href="/help/iodefnav?iodef_class=AdditionalData" xlink:title="The data type of the element content. &#160;The permitted values for this attribute are shown below. &#160;The default value is &quot;string&quot;.">
<polygon fill="#ffcc66" stroke="#ffcc66" points="287,-601 287,-621 467,-621 467,-601 287,-601"/>
<polygon fill="none" stroke="black" points="287,-601 287,-621 467,-621 467,-601 287,-601"/>
<text text-anchor="start" x="304" y="-607.733" font-family="Times Roman,serif" font-size="14.00">[ENUM] dtype (Required)</text>
</a>
<a xlink:href="/help/iodefnav?iodef_class=AdditionalData" xlink:title="A free&#45;form description of the element content.">
<polygon fill="#ffcc66" stroke="#ffcc66" points="287,-581 287,-601 467,-601 467,-581 287,-581"/>
<polygon fill="none" stroke="black" points="287,-581 287,-601 467,-601 467,-581 287,-581"/>
<text text-anchor="start" x="292.5" y="-587.733" font-family="Times Roman,serif" font-size="14.00">[STRING] meaning (Optional)</text>
</a>
<a xlink:href="/help/iodefnav?iodef_class=AdditionalData" xlink:title="A means by which to extend the dtype attribute. &#160;See Section 5.1.">
<polygon fill="#ffcc66" stroke="#ffcc66" points="287,-561 287,-581 467,-581 467,-561 287,-561"/>
<polygon fill="none" stroke="black" points="287,-561 287,-581 467,-581 467,-561 287,-561"/>
<text text-anchor="start" x="290.5" y="-567.733" font-family="Times Roman,serif" font-size="14.00">[STRING] ext&#45;dtype (Optional)</text>
</a>
<a xlink:href="/help/iodefnav?iodef_class=AdditionalData" xlink:title="An identifier referencing the format and semantics of the element content.">
<polygon fill="#ffcc66" stroke="#ffcc66" points="287,-541 287,-561 467,-561 467,-541 287,-541"/>
<polygon fill="none" stroke="black" points="287,-541 287,-561 467,-561 467,-541 287,-541"/>
<text text-anchor="start" x="292.5" y="-547.733" font-family="Times Roman,serif" font-size="14.00">[STRING] formatid (Optional)</text>
</a>
<a xlink:href="/help/iodefnav?iodef_class=AdditionalData" xlink:title="This attribute has been defined in Section 3.2.">
<polygon fill="#ffcc66" stroke="#ffcc66" points="287,-521 287,-541 467,-541 467,-521 287,-521"/>
<polygon fill="none" stroke="black" points="287,-521 287,-541 467,-541 467,-521 287,-521"/>
<text text-anchor="start" x="292.5" y="-527.733" font-family="Times Roman,serif" font-size="14.00">[ENUM] restriction (Optional)</text>
</a>
</g>
<!-- RecordData -->
<g id="node2" class="node"><title>RecordData</title>
<a xlink:href="/help/iodefnav?iodef_class=RecordData" xlink:title="The RecordData class groups log or audit data from a given sensor (e.g., IDS, firewall log) and provides a way to annotate the output. ">
<polygon fill="#997a00" stroke="#997a00" points="8,-337 8,-358 202,-358 202,-337 8,-337"/>
<polygon fill="none" stroke="black" points="8,-337 8,-358 202,-358 202,-337 8,-337"/>
<text text-anchor="start" x="72.5" y="-344.233" font-family="Times Roman,serif" font-size="14.00">RecordData</text>
</a>
<a xlink:href="/help/iodefnav?iodef_class=RecordData" xlink:title="Free&#45;form textual description of the provided RecordItem data. &#160;At minimum, this description should convey the significance of the provided RecordItem data.">
<polygon fill="#ffcc00" stroke="#ffcc00" points="8,-317 8,-337 202,-337 202,-317 8,-317"/>
<polygon fill="none" stroke="black" points="8,-317 8,-337 202,-337 202,-317 8,-317"/>
<text text-anchor="start" x="11.5" y="-323.733" font-family="Times Roman,serif" font-size="14.00">[ML_STRING] Description (0..*)</text>
</a>
<a xlink:href="/help/iodefnav?iodef_class=RecordData" xlink:title="Timestamp of the RecordItem data.">
<polygon fill="#ffcc00" stroke="#ffcc00" points="8,-297 8,-317 202,-317 202,-297 8,-297"/>
<polygon fill="none" stroke="black" points="8,-297 8,-317 202,-317 202,-297 8,-297"/>
<text text-anchor="start" x="39.5" y="-303.733" font-family="Times Roman,serif" font-size="14.00">[None] DateTime (0..1)</text>
</a>
<a xlink:href="/help/iodefnav?iodef_class=RecordData" xlink:title="This attribute has been defined in Section 3.2.">
<polygon fill="#ffcc00" stroke="#ffcc00" points="8,-277 8,-297 202,-297 202,-277 8,-277"/>
<polygon fill="none" stroke="black" points="8,-277 8,-297 202,-297 202,-277 8,-277"/>
<text text-anchor="start" x="20.5" y="-283.733" font-family="Times Roman,serif" font-size="14.00">[ENUM] restriction (Optional)</text>
</a>
</g>
<!-- RecordData&#45;&#45;AdditionalData -->
<g id="edge2" class="edge"><title>RecordData&#45;&#45;AdditionalData</title>
<path fill="none" stroke="black" d="M137.226,-362.361C168.1,-403.145 217.361,-463.935 268,-509 268.981,-509.873 269.973,-510.744 270.975,-511.612"/>
<polygon fill="black" stroke="black" points="268.929,-514.464 278.84,-518.21 273.428,-509.101 268.929,-514.464"/>
<text text-anchor="middle" x="239" y="-496.4" font-family="Times Roman,serif" font-size="14.00">0..1</text>
</g>
<!-- Application -->
<g id="node4" class="node"><title>Application</title>
<a xlink:href="/help/iodefnav?iodef_class=Application" xlink:title="The Application class describes an application running on a System providing a Service. ">
<polygon fill="#182f5f" stroke="#182f5f" points="290,-475 290,-496 464,-496 464,-475 290,-475"/>
<polygon fill="none" stroke="black" points="290,-475 290,-496 464,-496 464,-475 290,-475"/>
<text text-anchor="start" x="345" y="-482.233" font-family="Times Roman,serif" font-size="14.00">Application</text>
</a>
<a xlink:href="/help/iodefnav?iodef_class=Application" xlink:title="A URL describing the application.">
<polygon fill="#284f9f" stroke="#284f9f" points="290,-455 290,-475 464,-475 464,-455 290,-455"/>
<polygon fill="none" stroke="black" points="290,-455 290,-475 464,-475 464,-455 290,-455"/>
<text text-anchor="start" x="326.5" y="-461.733" font-family="Times Roman,serif" font-size="14.00">[URL] URL (0..1)</text>
</a>
<a xlink:href="/help/iodefnav?iodef_class=Application" xlink:title="Version of the software.">
<polygon fill="#284f9f" stroke="#284f9f" points="290,-435 290,-455 464,-455 464,-435 290,-435"/>
<polygon fill="none" stroke="black" points="290,-435 290,-455 464,-455 464,-435 290,-435"/>
<text text-anchor="start" x="296" y="-441.733" font-family="Times Roman,serif" font-size="14.00">[STRING] version (Optional)</text>
</a>
<a xlink:href="/help/iodefnav?iodef_class=Application" xlink:title="Vendor name of the software.">
<polygon fill="#284f9f" stroke="#284f9f" points="290,-415 290,-435 464,-435 464,-415 290,-415"/>
<polygon fill="none" stroke="black" points="290,-415 290,-435 464,-435 464,-415 290,-415"/>
<text text-anchor="start" x="297" y="-421.733" font-family="Times Roman,serif" font-size="14.00">[STRING] vendor (Optional)</text>
</a>
<a xlink:href="/help/iodefnav?iodef_class=Application" xlink:title="Name of the software.">
<polygon fill="#284f9f" stroke="#284f9f" points="290,-395 290,-415 464,-415 464,-395 290,-395"/>
<polygon fill="none" stroke="black" points="290,-395 290,-415 464,-415 464,-395 290,-395"/>
<text text-anchor="start" x="301" y="-401.733" font-family="Times Roman,serif" font-size="14.00">[STRING] name (Optional)</text>
</a>
<a xlink:href="/help/iodefnav?iodef_class=Application" xlink:title="Family of the software.">
<polygon fill="#284f9f" stroke="#284f9f" points="290,-375 290,-395 464,-395 464,-375 290,-375"/>
<polygon fill="none" stroke="black" points="290,-375 290,-395 464,-395 464,-375 290,-375"/>
<text text-anchor="start" x="298" y="-381.733" font-family="Times Roman,serif" font-size="14.00">[STRING] family (Optional)</text>
</a>
<a xlink:href="/help/iodefnav?iodef_class=Application" xlink:title="An identifier that can be used to reference a particular configuration of this software.">
<polygon fill="#284f9f" stroke="#284f9f" points="290,-355 290,-375 464,-375 464,-355 290,-355"/>
<polygon fill="none" stroke="black" points="290,-355 290,-375 464,-375 464,-355 290,-355"/>
<text text-anchor="start" x="293.5" y="-361.733" font-family="Times Roman,serif" font-size="14.00">[STRING] configid (Optional)</text>
</a>
<a xlink:href="/help/iodefnav?iodef_class=Application" xlink:title="An identifier that can be used to reference this software.">
<polygon fill="#284f9f" stroke="#284f9f" points="290,-335 290,-355 464,-355 464,-335 290,-335"/>
<polygon fill="none" stroke="black" points="290,-335 290,-355 464,-355 464,-335 290,-335"/>
<text text-anchor="start" x="303" y="-341.733" font-family="Times Roman,serif" font-size="14.00">[STRING] swid (Optional)</text>
</a>
<a xlink:href="/help/iodefnav?iodef_class=Application" xlink:title="Patch or service pack level of the software.">
<polygon fill="#284f9f" stroke="#284f9f" points="290,-315 290,-335 464,-335 464,-315 290,-315"/>
<polygon fill="none" stroke="black" points="290,-315 290,-335 464,-335 464,-315 290,-315"/>
<text text-anchor="start" x="301.5" y="-321.733" font-family="Times Roman,serif" font-size="14.00">[STRING] patch (Optional)</text>
</a>
</g>
<!-- RecordData&#45;&#45;Application -->
<g id="edge4" class="edge"><title>RecordData&#45;&#45;Application</title>
<path fill="none" stroke="black" d="M210.162,-352.023C230.553,-358.62 251.92,-365.533 272.296,-372.125"/>
<polygon fill="black" stroke="black" points="271.303,-375.482 281.894,-375.231 273.457,-368.822 271.303,-375.482"/>
<text text-anchor="middle" x="239" y="-370.4" font-family="Times Roman,serif" font-size="14.00">0..1</text>
</g>
<!-- RecordItem -->
<g id="node6" class="node"><title>RecordItem</title>
<a xlink:href="/help/iodefnav?iodef_class=RecordItem" xlink:title="The RecordItem class provides a way to incorporate relevant logs, audit trails, or forensic data to support the conclusions made during the course of analyzing the incident. &#160;The class supports both the direct encapsulation of the data, as well as, provides primitives to reference data stored elsewhere. ">
<polygon fill="#997a00" stroke="#997a00" points="287,-269 287,-290 467,-290 467,-269 287,-269"/>
<polygon fill="none" stroke="black" points="287,-269 287,-290 467,-290 467,-269 287,-269"/>
<text text-anchor="start" x="344.5" y="-276.233" font-family="Times Roman,serif" font-size="14.00">RecordItem</text>
</a>
<a xlink:href="/help/iodefnav?iodef_class=RecordItem" xlink:title="The data type of the element content. &#160;The permitted values for this attribute are shown below. &#160;The default value is &quot;string&quot;.">
<polygon fill="#ffcc00" stroke="#ffcc00" points="287,-249 287,-269 467,-269 467,-249 287,-249"/>
<polygon fill="none" stroke="black" points="287,-249 287,-269 467,-269 467,-249 287,-249"/>
<text text-anchor="start" x="304" y="-255.733" font-family="Times Roman,serif" font-size="14.00">[ENUM] dtype (Required)</text>
</a>
<a xlink:href="/help/iodefnav?iodef_class=RecordItem" xlink:title="A free&#45;form description of the element content.">
<polygon fill="#ffcc00" stroke="#ffcc00" points="287,-229 287,-249 467,-249 467,-229 287,-229"/>
<polygon fill="none" stroke="black" points="287,-229 287,-249 467,-249 467,-229 287,-229"/>
<text text-anchor="start" x="292.5" y="-235.733" font-family="Times Roman,serif" font-size="14.00">[STRING] meaning (Optional)</text>
</a>
<a xlink:href="/help/iodefnav?iodef_class=RecordItem" xlink:title="A means by which to extend the dtype attribute. &#160;See Section 5.1.">
<polygon fill="#ffcc00" stroke="#ffcc00" points="287,-209 287,-229 467,-229 467,-209 287,-209"/>
<polygon fill="none" stroke="black" points="287,-209 287,-229 467,-229 467,-209 287,-209"/>
<text text-anchor="start" x="290.5" y="-215.733" font-family="Times Roman,serif" font-size="14.00">[STRING] ext&#45;dtype (Optional)</text>
</a>
<a xlink:href="/help/iodefnav?iodef_class=RecordItem" xlink:title="An identifier referencing the format and semantics of the element content.">
<polygon fill="#ffcc00" stroke="#ffcc00" points="287,-189 287,-209 467,-209 467,-189 287,-189"/>
<polygon fill="none" stroke="black" points="287,-189 287,-209 467,-209 467,-189 287,-189"/>
<text text-anchor="start" x="292.5" y="-195.733" font-family="Times Roman,serif" font-size="14.00">[STRING] formatid (Optional)</text>
</a>
<a xlink:href="/help/iodefnav?iodef_class=RecordItem" xlink:title="This attribute has been defined in Section 3.2.">
<polygon fill="#ffcc00" stroke="#ffcc00" points="287,-169 287,-189 467,-189 467,-169 287,-169"/>
<polygon fill="none" stroke="black" points="287,-169 287,-189 467,-189 467,-169 287,-169"/>
<text text-anchor="start" x="292.5" y="-175.733" font-family="Times Roman,serif" font-size="14.00">[ENUM] restriction (Optional)</text>
</a>
</g>
<!-- RecordData&#45;&#45;RecordItem -->
<g id="edge6" class="edge"><title>RecordData&#45;&#45;RecordItem</title>
<path fill="none" stroke="black" d="M210.162,-283.977C229.473,-277.729 249.66,-271.198 269.051,-264.925"/>
<polygon fill="black" stroke="black" points="270.366,-268.178 278.803,-261.77 268.211,-261.518 270.366,-268.178"/>
<text text-anchor="middle" x="239" y="-282.4" font-family="Times Roman,serif" font-size="14.00">1..*</text>
</g>
<!-- RecordPattern -->
<g id="node8" class="node"><title>RecordPattern</title>
<a xlink:href="/help/iodefnav?iodef_class=RecordPattern" xlink:title="The RecordPattern class describes where in the content of the RecordItem relevant information can be found. &#160;It provides a way to reference subsets of information, identified by a pattern, in a large log file, audit trail, or forensic data. ">
<polygon fill="#997a00" stroke="#997a00" points="276,-123 276,-144 478,-144 478,-123 276,-123"/>
<polygon fill="none" stroke="black" points="276,-123 276,-144 478,-144 478,-123 276,-123"/>
<text text-anchor="start" x="338" y="-130.233" font-family="Times Roman,serif" font-size="14.00">RecordPattern</text>
</a>
<a xlink:href="/help/iodefnav?iodef_class=RecordPattern" xlink:title="Number of types to apply the specified pattern.">
<polygon fill="#ffcc00" stroke="#ffcc00" points="276,-103 276,-123 478,-123 478,-103 276,-103"/>
<polygon fill="none" stroke="black" points="276,-103 276,-123 478,-123 478,-103 276,-103"/>
<text text-anchor="start" x="289.5" y="-109.733" font-family="Times Roman,serif" font-size="14.00">[INTEGER] instance (Optional)</text>
</a>
<a xlink:href="/help/iodefnav?iodef_class=RecordPattern" xlink:title="A means by which to extend the type attribute. See Section 5.1.">
<polygon fill="#ffcc00" stroke="#ffcc00" points="276,-83 276,-103 478,-103 478,-83 276,-83"/>
<polygon fill="none" stroke="black" points="276,-83 276,-103 478,-103 478,-83 276,-83"/>
<text text-anchor="start" x="294" y="-89.7333" font-family="Times Roman,serif" font-size="14.00">[STRING] ext&#45;type (Optional)</text>
</a>
<a xlink:href="/help/iodefnav?iodef_class=RecordPattern" xlink:title="Amount of units (determined by the offsetunit attribute) to seek into the RecordItem data before matching the pattern.">
<polygon fill="#ffcc00" stroke="#ffcc00" points="276,-63 276,-83 478,-83 478,-63 276,-63"/>
<polygon fill="none" stroke="black" points="276,-63 276,-83 478,-83 478,-63 276,-63"/>
<text text-anchor="start" x="296" y="-69.7333" font-family="Times Roman,serif" font-size="14.00">[INTEGER] offset (Optional)</text>
</a>
<a xlink:href="/help/iodefnav?iodef_class=RecordPattern" xlink:title="Describes the units of the offset attribute. The default is &quot;line&quot;.">
<polygon fill="#ffcc00" stroke="#ffcc00" points="276,-43 276,-63 478,-63 478,-43 276,-43"/>
<polygon fill="none" stroke="black" points="276,-43 276,-63 478,-63 478,-43 276,-43"/>
<text text-anchor="start" x="294" y="-49.7333" font-family="Times Roman,serif" font-size="14.00">[ENUM] offsetunit (Optional)</text>
</a>
<a xlink:href="/help/iodefnav?iodef_class=RecordPattern" xlink:title="A means by which to extend the offsetunit attribute. &#160;See Section 5.1.">
<polygon fill="#ffcc00" stroke="#ffcc00" points="276,-23 276,-43 478,-43 478,-23 276,-23"/>
<polygon fill="none" stroke="black" points="276,-23 276,-43 478,-43 478,-23 276,-23"/>
<text text-anchor="start" x="279.5" y="-29.7333" font-family="Times Roman,serif" font-size="14.00">[STRING] ext&#45;offsetunit (Optional)</text>
</a>
<a xlink:href="/help/iodefnav?iodef_class=RecordPattern" xlink:title="Describes the type of pattern being specified in the element content. &#160;The default is &quot;regex&quot;.">
<polygon fill="#ffcc00" stroke="#ffcc00" points="276,-3 276,-23 478,-23 478,-3 276,-3"/>
<polygon fill="none" stroke="black" points="276,-3 276,-23 478,-23 478,-3 276,-3"/>
<text text-anchor="start" x="307.5" y="-9.73333" font-family="Times Roman,serif" font-size="14.00">[ENUM] type (Required)</text>
</a>
</g>
<!-- RecordData&#45;&#45;RecordPattern -->
<g id="edge8" class="edge"><title>RecordData&#45;&#45;RecordPattern</title>
<path fill="none" stroke="black" d="M146.799,-273.731C178.904,-240.479 224.901,-194.422 268,-157 268.853,-156.259 269.712,-155.517 270.576,-154.775"/>
<polygon fill="black" stroke="black" points="273.116,-157.211 278.486,-148.078 268.593,-151.868 273.116,-157.211"/>
<text text-anchor="middle" x="239" y="-196.4" font-family="Times Roman,serif" font-size="14.00">0..*</text>
</g>
</g>
</svg>
