<?xml version="1.0" encoding="UTF-8" standalone="no"?>
<!DOCTYPE svg PUBLIC "-//W3C//DTD SVG 1.1//EN"
 "http://www.w3.org/Graphics/SVG/1.1/DTD/svg11.dtd">
<!-- Generated by graphviz version 2.26.0 (20091210.2329)
 -->
<!-- Title: _anonymous_0 Pages: 1 -->
<svg width="226pt" height="156pt"
 viewBox="0.00 0.00 226.00 156.00" xmlns="http://www.w3.org/2000/svg" xmlns:xlink="http://www.w3.org/1999/xlink">
<g id="graph1" class="graph" transform="scale(1 1) rotate(0) translate(4 152)">
<title>_anonymous_0</title>
<polygon fill="white" stroke="white" points="-4,5 -4,-152 223,-152 223,5 -4,5"/>
<!-- RecordPattern -->
<g id="node1" class="node"><title>RecordPattern</title>
<a xlink:href="/help/iodefnav?iodef_class=RecordPattern" xlink:title="The RecordPattern class describes where in the content of the RecordItem relevant information can be found. &#160;It provides a way to reference subsets of information, identified by a pattern, in a large log file, audit trail, or forensic data. ">
<polygon fill="#997a00" stroke="#997a00" points="8,-123 8,-144 210,-144 210,-123 8,-123"/>
<polygon fill="none" stroke="black" points="8,-123 8,-144 210,-144 210,-123 8,-123"/>
<text text-anchor="start" x="70" y="-130.233" font-family="Times Roman,serif" font-size="14.00">RecordPattern</text>
</a>
<a xlink:href="/help/iodefnav?iodef_class=RecordPattern" xlink:title="Number of types to apply the specified pattern.">
<polygon fill="#ffcc00" stroke="#ffcc00" points="8,-103 8,-123 210,-123 210,-103 8,-103"/>
<polygon fill="none" stroke="black" points="8,-103 8,-123 210,-123 210,-103 8,-103"/>
<text text-anchor="start" x="21.5" y="-109.733" font-family="Times Roman,serif" font-size="14.00">[INTEGER] instance (Optional)</text>
</a>
<a xlink:href="/help/iodefnav?iodef_class=RecordPattern" xlink:title="A means by which to extend the type attribute. See Section 5.1.">
<polygon fill="#ffcc00" stroke="#ffcc00" points="8,-83 8,-103 210,-103 210,-83 8,-83"/>
<polygon fill="none" stroke="black" points="8,-83 8,-103 210,-103 210,-83 8,-83"/>
<text text-anchor="start" x="26" y="-89.7333" font-family="Times Roman,serif" font-size="14.00">[STRING] ext&#45;type (Optional)</text>
</a>
<a xlink:href="/help/iodefnav?iodef_class=RecordPattern" xlink:title="Amount of units (determined by the offsetunit attribute) to seek into the RecordItem data before matching the pattern.">
<polygon fill="#ffcc00" stroke="#ffcc00" points="8,-63 8,-83 210,-83 210,-63 8,-63"/>
<polygon fill="none" stroke="black" points="8,-63 8,-83 210,-83 210,-63 8,-63"/>
<text text-anchor="start" x="28" y="-69.7333" font-family="Times Roman,serif" font-size="14.00">[INTEGER] offset (Optional)</text>
</a>
<a xlink:href="/help/iodefnav?iodef_class=RecordPattern" xlink:title="Describes the units of the offset attribute. The default is &quot;line&quot;.">
<polygon fill="#ffcc00" stroke="#ffcc00" points="8,-43 8,-63 210,-63 210,-43 8,-43"/>
<polygon fill="none" stroke="black" points="8,-43 8,-63 210,-63 210,-43 8,-43"/>
<text text-anchor="start" x="26" y="-49.7333" font-family="Times Roman,serif" font-size="14.00">[ENUM] offsetunit (Optional)</text>
</a>
<a xlink:href="/help/iodefnav?iodef_class=RecordPattern" xlink:title="A means by which to extend the offsetunit attribute. &#160;See Section 5.1.">
<polygon fill="#ffcc00" stroke="#ffcc00" points="8,-23 8,-43 210,-43 210,-23 8,-23"/>
<polygon fill="none" stroke="black" points="8,-23 8,-43 210,-43 210,-23 8,-23"/>
<text text-anchor="start" x="11.5" y="-29.7333" font-family="Times Roman,serif" font-size="14.00">[STRING] ext&#45;offsetunit (Optional)</text>
</a>
<a xlink:href="/help/iodefnav?iodef_class=RecordPattern" xlink:title="Describes the type of pattern being specified in the element content. &#160;The default is &quot;regex&quot;.">
<polygon fill="#ffcc00" stroke="#ffcc00" points="8,-3 8,-23 210,-23 210,-3 8,-3"/>
<polygon fill="none" stroke="black" points="8,-3 8,-23 210,-23 210,-3 8,-3"/>
<text text-anchor="start" x="39.5" y="-9.73333" font-family="Times Roman,serif" font-size="14.00">[ENUM] type (Required)</text>
</a>
</g>
</g>
</svg>
