<?xml version="1.0" encoding="UTF-8" standalone="no"?>
<!DOCTYPE svg PUBLIC "-//W3C//DTD SVG 1.1//EN"
 "http://www.w3.org/Graphics/SVG/1.1/DTD/svg11.dtd">
<!-- Generated by graphviz version 2.26.0 (20091210.2329)
 -->
<!-- Title: _anonymous_0 Pages: 1 -->
<svg width="242pt" height="96pt"
 viewBox="0.00 0.00 242.00 96.00" xmlns="http://www.w3.org/2000/svg" xmlns:xlink="http://www.w3.org/1999/xlink">
<g id="graph1" class="graph" transform="scale(1 1) rotate(0) translate(4 92)">
<title>_anonymous_0</title>
<polygon fill="white" stroke="white" points="-4,5 -4,-92 239,-92 239,5 -4,5"/>
<!-- Reference -->
<g id="node1" class="node"><title>Reference</title>
<a xlink:href="/help/iodefnav?iodef_class=Reference" xlink:title="The Reference class is a reference to a vulnerability, IDS alert, malware sample, advisory, or attack technique. &#160;A reference consists of a name, a URL to this reference, and an optional description. ">
<polygon fill="#5b3d1e" stroke="#5b3d1e" points="8,-63 8,-84 226,-84 226,-63 8,-63"/>
<polygon fill="none" stroke="black" points="8,-63 8,-84 226,-84 226,-63 8,-63"/>
<text text-anchor="start" x="89.5" y="-70.2333" font-family="Times Roman,serif" font-size="14.00">Reference</text>
</a>
<a xlink:href="/help/iodefnav?iodef_class=Reference" xlink:title="A URL associated with the reference.">
<polygon fill="#996633" stroke="#996633" points="8,-43 8,-63 226,-63 226,-43 8,-43"/>
<polygon fill="none" stroke="black" points="8,-43 8,-63 226,-63 226,-43 8,-43"/>
<text text-anchor="start" x="66.5" y="-49.7333" font-family="Times Roman,serif" font-size="14.00">[URL] URL (0..*)</text>
</a>
<a xlink:href="/help/iodefnav?iodef_class=Reference" xlink:title="A free&#45;form text description of this reference.">
<polygon fill="#996633" stroke="#996633" points="8,-23 8,-43 226,-43 226,-23 8,-23"/>
<polygon fill="none" stroke="black" points="8,-23 8,-43 226,-43 226,-23 8,-23"/>
<text text-anchor="start" x="23.5" y="-29.7333" font-family="Times Roman,serif" font-size="14.00">[ML_STRING] Description (0..*)</text>
</a>
<a xlink:href="/help/iodefnav?iodef_class=Reference" xlink:title="Name of the reference.">
<polygon fill="#996633" stroke="#996633" points="8,-3 8,-23 226,-23 226,-3 8,-3"/>
<polygon fill="none" stroke="black" points="8,-3 8,-23 226,-23 226,-3 8,-3"/>
<text text-anchor="start" x="11.5" y="-9.73333" font-family="Times Roman,serif" font-size="14.00">[ML_STRING] ReferenceName (1..1)</text>
</a>
</g>
</g>
</svg>
