<?xml version="1.0" encoding="UTF-8" standalone="no"?>
<!DOCTYPE svg PUBLIC "-//W3C//DTD SVG 1.1//EN"
 "http://www.w3.org/Graphics/SVG/1.1/DTD/svg11.dtd">
<!-- Generated by graphviz version 2.26.0 (20091210.2329)
 -->
<!-- Title: _anonymous_0 Pages: 1 -->
<svg width="216pt" height="76pt"
 viewBox="0.00 0.00 216.00 76.00" xmlns="http://www.w3.org/2000/svg" xmlns:xlink="http://www.w3.org/1999/xlink">
<g id="graph1" class="graph" transform="scale(1 1) rotate(0) translate(4 72)">
<title>_anonymous_0</title>
<polygon fill="white" stroke="white" points="-4,5 -4,-72 213,-72 213,5 -4,5"/>
<!-- RegistryHandle -->
<g id="node1" class="node"><title>RegistryHandle</title>
<a xlink:href="/help/iodefnav?iodef_class=RegistryHandle" xlink:title="The RegistryHandle class represents a handle into an Internet registry or community&#45;specific database. &#160;The handle is specified in the element content and the type attribute specifies the database. ">
<polygon fill="#7a993d" stroke="#7a993d" points="9,-43 9,-64 200,-64 200,-43 9,-43"/>
<polygon fill="none" stroke="black" points="9,-43 9,-64 200,-64 200,-43 9,-43"/>
<text text-anchor="start" x="62" y="-50.2333" font-family="Times Roman,serif" font-size="14.00">RegistryHandle</text>
</a>
<a xlink:href="/help/iodefnav?iodef_class=RegistryHandle" xlink:title="The database to which the handle belongs. &#160;The default value is &#39;local&#39;. &#160;The possible values are:">
<polygon fill="#ccff66" stroke="#ccff66" points="9,-23 9,-43 200,-43 200,-23 9,-23"/>
<polygon fill="none" stroke="black" points="9,-23 9,-43 200,-43 200,-23 9,-23"/>
<text text-anchor="start" x="26" y="-29.7333" font-family="Times Roman,serif" font-size="14.00">[ENUM] registry (Required)</text>
</a>
<a xlink:href="/help/iodefnav?iodef_class=RegistryHandle" xlink:title="A means by which to extend the registry attribute. &#160;See Section 5.1.">
<polygon fill="#ccff66" stroke="#ccff66" points="9,-3 9,-23 200,-23 200,-3 9,-3"/>
<polygon fill="none" stroke="black" points="9,-3 9,-23 200,-23 200,-3 9,-3"/>
<text text-anchor="start" x="12.5" y="-9.73333" font-family="Times Roman,serif" font-size="14.00">[STRING] ext&#45;registry (Optional)</text>
</a>
</g>
</g>
</svg>
