<?xml version="1.0" encoding="UTF-8" standalone="no"?>
<!DOCTYPE svg PUBLIC "-//W3C//DTD SVG 1.1//EN"
 "http://www.w3.org/Graphics/SVG/1.1/DTD/svg11.dtd">
<!-- Generated by graphviz version 2.26.0 (20091210.2329)
 -->
<!-- Title: _anonymous_0 Pages: 1 -->
<svg width="450pt" height="96pt"
 viewBox="0.00 0.00 450.00 96.00" xmlns="http://www.w3.org/2000/svg" xmlns:xlink="http://www.w3.org/1999/xlink">
<g id="graph1" class="graph" transform="scale(1 1) rotate(0) translate(4 92)">
<title>_anonymous_0</title>
<polygon fill="white" stroke="white" points="-4,5 -4,-92 447,-92 447,5 -4,5"/>
<!-- IncidentID -->
<g id="node1" class="node"><title>IncidentID</title>
<a xlink:href="/help/iodefnav?iodef_class=IncidentID" xlink:title="The IncidentID class represents an incident tracking number that is unique in the context of the CSIRT and identifies the activity characterized in an IODEF Document. &#160;This identifier would serve as an index into the CSIRT incident handling system. &#160;The combination of the name attribute and the string in the element content MUST be a globally unique identifier describing the activity. &#160;Documents generated by a given CSIRT MUST NOT reuse the same value unless they are referencing the same incident. ">
<polygon fill="#5b7a00" stroke="#5b7a00" points="258,-63 258,-84 434,-84 434,-63 258,-63"/>
<polygon fill="none" stroke="black" points="258,-63 258,-84 434,-84 434,-63 258,-63"/>
<text text-anchor="start" x="316.5" y="-70.2333" font-family="Times Roman,serif" font-size="14.00">IncidentID</text>
</a>
<a xlink:href="/help/iodefnav?iodef_class=IncidentID" xlink:title="An identifier referencing a subset of the named incident.">
<polygon fill="#99cc00" stroke="#99cc00" points="258,-43 258,-63 434,-63 434,-43 258,-43"/>
<polygon fill="none" stroke="black" points="258,-43 258,-63 434,-63 434,-43 258,-43"/>
<text text-anchor="start" x="263" y="-49.7333" font-family="Times Roman,serif" font-size="14.00">[STRING] instance (Optional)</text>
</a>
<a xlink:href="/help/iodefnav?iodef_class=IncidentID" xlink:title="An identifier describing the CSIRT that created the document. &#160;In order to have a globally unique CSIRT name, the fully qualified domain name associated with the CSIRT MUST be used.">
<polygon fill="#99cc00" stroke="#99cc00" points="258,-23 258,-43 434,-43 434,-23 258,-23"/>
<polygon fill="none" stroke="black" points="258,-23 258,-43 434,-43 434,-23 258,-23"/>
<text text-anchor="start" x="269" y="-29.7333" font-family="Times Roman,serif" font-size="14.00">[STRING] name (Required)</text>
</a>
<a xlink:href="/help/iodefnav?iodef_class=IncidentID" xlink:title="This attribute has been defined in Section 3.2.">
<polygon fill="#99cc00" stroke="#99cc00" points="258,-3 258,-23 434,-23 434,-3 258,-3"/>
<polygon fill="none" stroke="black" points="258,-3 258,-23 434,-23 434,-3 258,-3"/>
<text text-anchor="start" x="261.5" y="-9.73333" font-family="Times Roman,serif" font-size="14.00">[ENUM] restriction (Optional)</text>
</a>
</g>
<!-- RelatedActivity -->
<g id="node2" class="node"><title>RelatedActivity</title>
<a xlink:href="/help/iodefnav?iodef_class=RelatedActivity" xlink:title="The RelatedActivity class lists either incident tracking numbers of incidents or URLs (not both) that refer to activity related to the one described in the IODEF document. &#160;These references may be to local incident tracking numbers or to those of other CSIRTs. ">
<polygon fill="#5b7a00" stroke="#5b7a00" points="8,-53 8,-74 184,-74 184,-53 8,-53"/>
<polygon fill="none" stroke="black" points="8,-53 8,-74 184,-74 184,-53 8,-53"/>
<text text-anchor="start" x="53" y="-60.2333" font-family="Times Roman,serif" font-size="14.00">RelatedActivity</text>
</a>
<a xlink:href="/help/iodefnav?iodef_class=RelatedActivity" xlink:title="A URL to activity related to this incident.">
<polygon fill="#99cc00" stroke="#99cc00" points="8,-33 8,-53 184,-53 184,-33 8,-33"/>
<polygon fill="none" stroke="black" points="8,-33 8,-53 184,-53 184,-33 8,-33"/>
<text text-anchor="start" x="45.5" y="-39.7333" font-family="Times Roman,serif" font-size="14.00">[URL] URL (1..*)</text>
</a>
<a xlink:href="/help/iodefnav?iodef_class=RelatedActivity" xlink:title="This attribute has been defined in Section 3.2.">
<polygon fill="#99cc00" stroke="#99cc00" points="8,-13 8,-33 184,-33 184,-13 8,-13"/>
<polygon fill="none" stroke="black" points="8,-13 8,-33 184,-33 184,-13 8,-13"/>
<text text-anchor="start" x="11.5" y="-19.7333" font-family="Times Roman,serif" font-size="14.00">[ENUM] restriction (Optional)</text>
</a>
</g>
<!-- RelatedActivity&#45;&#45;IncidentID -->
<g id="edge2" class="edge"><title>RelatedActivity&#45;&#45;IncidentID</title>
<path fill="none" stroke="black" d="M192.299,-44C207.757,-44 223.835,-44 239.515,-44"/>
<polygon fill="black" stroke="black" points="239.751,-47.5001 249.751,-44 239.751,-40.5001 239.751,-47.5001"/>
<text text-anchor="middle" x="221" y="-50.4" font-family="Times Roman,serif" font-size="14.00">1..*</text>
</g>
</g>
</svg>
