<?xml version="1.0" encoding="UTF-8" standalone="no"?>
<!DOCTYPE svg PUBLIC "-//W3C//DTD SVG 1.1//EN"
 "http://www.w3.org/Graphics/SVG/1.1/DTD/svg11.dtd">
<!-- Generated by graphviz version 2.26.0 (20091210.2329)
 -->
<!-- Title: _anonymous_0 Pages: 1 -->
<svg width="476pt" height="196pt"
 viewBox="0.00 0.00 476.00 196.00" xmlns="http://www.w3.org/2000/svg" xmlns:xlink="http://www.w3.org/1999/xlink">
<g id="graph1" class="graph" transform="scale(1 1) rotate(0) translate(4 192)">
<title>_anonymous_0</title>
<polygon fill="white" stroke="white" points="-4,5 -4,-192 473,-192 473,5 -4,5"/>
<!-- Application -->
<g id="node1" class="node"><title>Application</title>
<a xlink:href="/help/iodefnav?iodef_class=Application" xlink:title="The Application class describes an application running on a System providing a Service. ">
<polygon fill="#182f5f" stroke="#182f5f" points="286,-163 286,-184 460,-184 460,-163 286,-163"/>
<polygon fill="none" stroke="black" points="286,-163 286,-184 460,-184 460,-163 286,-163"/>
<text text-anchor="start" x="341" y="-170.233" font-family="Times Roman,serif" font-size="14.00">Application</text>
</a>
<a xlink:href="/help/iodefnav?iodef_class=Application" xlink:title="A URL describing the application.">
<polygon fill="#284f9f" stroke="#284f9f" points="286,-143 286,-163 460,-163 460,-143 286,-143"/>
<polygon fill="none" stroke="black" points="286,-143 286,-163 460,-163 460,-143 286,-143"/>
<text text-anchor="start" x="322.5" y="-149.733" font-family="Times Roman,serif" font-size="14.00">[URL] URL (0..1)</text>
</a>
<a xlink:href="/help/iodefnav?iodef_class=Application" xlink:title="Version of the software.">
<polygon fill="#284f9f" stroke="#284f9f" points="286,-123 286,-143 460,-143 460,-123 286,-123"/>
<polygon fill="none" stroke="black" points="286,-123 286,-143 460,-143 460,-123 286,-123"/>
<text text-anchor="start" x="292" y="-129.733" font-family="Times Roman,serif" font-size="14.00">[STRING] version (Optional)</text>
</a>
<a xlink:href="/help/iodefnav?iodef_class=Application" xlink:title="Vendor name of the software.">
<polygon fill="#284f9f" stroke="#284f9f" points="286,-103 286,-123 460,-123 460,-103 286,-103"/>
<polygon fill="none" stroke="black" points="286,-103 286,-123 460,-123 460,-103 286,-103"/>
<text text-anchor="start" x="293" y="-109.733" font-family="Times Roman,serif" font-size="14.00">[STRING] vendor (Optional)</text>
</a>
<a xlink:href="/help/iodefnav?iodef_class=Application" xlink:title="Name of the software.">
<polygon fill="#284f9f" stroke="#284f9f" points="286,-83 286,-103 460,-103 460,-83 286,-83"/>
<polygon fill="none" stroke="black" points="286,-83 286,-103 460,-103 460,-83 286,-83"/>
<text text-anchor="start" x="297" y="-89.7333" font-family="Times Roman,serif" font-size="14.00">[STRING] name (Optional)</text>
</a>
<a xlink:href="/help/iodefnav?iodef_class=Application" xlink:title="Family of the software.">
<polygon fill="#284f9f" stroke="#284f9f" points="286,-63 286,-83 460,-83 460,-63 286,-63"/>
<polygon fill="none" stroke="black" points="286,-63 286,-83 460,-83 460,-63 286,-63"/>
<text text-anchor="start" x="294" y="-69.7333" font-family="Times Roman,serif" font-size="14.00">[STRING] family (Optional)</text>
</a>
<a xlink:href="/help/iodefnav?iodef_class=Application" xlink:title="An identifier that can be used to reference a particular configuration of this software.">
<polygon fill="#284f9f" stroke="#284f9f" points="286,-43 286,-63 460,-63 460,-43 286,-43"/>
<polygon fill="none" stroke="black" points="286,-43 286,-63 460,-63 460,-43 286,-43"/>
<text text-anchor="start" x="289.5" y="-49.7333" font-family="Times Roman,serif" font-size="14.00">[STRING] configid (Optional)</text>
</a>
<a xlink:href="/help/iodefnav?iodef_class=Application" xlink:title="An identifier that can be used to reference this software.">
<polygon fill="#284f9f" stroke="#284f9f" points="286,-23 286,-43 460,-43 460,-23 286,-23"/>
<polygon fill="none" stroke="black" points="286,-23 286,-43 460,-43 460,-23 286,-23"/>
<text text-anchor="start" x="299" y="-29.7333" font-family="Times Roman,serif" font-size="14.00">[STRING] swid (Optional)</text>
</a>
<a xlink:href="/help/iodefnav?iodef_class=Application" xlink:title="Patch or service pack level of the software.">
<polygon fill="#284f9f" stroke="#284f9f" points="286,-3 286,-23 460,-23 460,-3 286,-3"/>
<polygon fill="none" stroke="black" points="286,-3 286,-23 460,-23 460,-3 286,-3"/>
<text text-anchor="start" x="297.5" y="-9.73333" font-family="Times Roman,serif" font-size="14.00">[STRING] patch (Optional)</text>
</a>
</g>
<!-- Service -->
<g id="node2" class="node"><title>Service</title>
<a xlink:href="/help/iodefnav?iodef_class=Service" xlink:title="The Service class describes a network service of a host or network. The service is identified by specific port or list of ports, along with the application listening on that port. ">
<polygon fill="#182f5f" stroke="#182f5f" points="9,-143 9,-164 212,-164 212,-143 9,-143"/>
<polygon fill="none" stroke="black" points="9,-143 9,-164 212,-164 212,-143 9,-143"/>
<text text-anchor="start" x="90" y="-150.233" font-family="Times Roman,serif" font-size="14.00">Service</text>
</a>
<a xlink:href="/help/iodefnav?iodef_class=Service" xlink:title="A layer&#45;4 protocol&#45;specific code field (e.g., ICMP code field).">
<polygon fill="#284f9f" stroke="#284f9f" points="9,-123 9,-143 212,-143 212,-123 9,-123"/>
<polygon fill="none" stroke="black" points="9,-123 9,-143 212,-143 212,-123 9,-123"/>
<text text-anchor="start" x="29" y="-129.733" font-family="Times Roman,serif" font-size="14.00">[INTEGER] ProtoCode (0..1)</text>
</a>
<a xlink:href="/help/iodefnav?iodef_class=Service" xlink:title="A layer&#45;4 protocol specific flag field (e.g., TCP flag field).">
<polygon fill="#284f9f" stroke="#284f9f" points="9,-103 9,-123 212,-123 212,-103 9,-103"/>
<polygon fill="none" stroke="black" points="9,-103 9,-123 212,-123 212,-103 9,-103"/>
<text text-anchor="start" x="29" y="-109.733" font-family="Times Roman,serif" font-size="14.00">[INTEGER] ProtoFlags (0..1)</text>
</a>
<a xlink:href="/help/iodefnav?iodef_class=Service" xlink:title="A list of port numbers formatted according to Section 2.10.">
<polygon fill="#284f9f" stroke="#284f9f" points="9,-83 9,-103 212,-103 212,-83 9,-83"/>
<polygon fill="none" stroke="black" points="9,-83 9,-103 212,-103 212,-83 9,-83"/>
<text text-anchor="start" x="36" y="-89.7333" font-family="Times Roman,serif" font-size="14.00">[PORTLIST] Portlist (0..1)</text>
</a>
<a xlink:href="/help/iodefnav?iodef_class=Service" xlink:title="A layer&#45;4 protocol specific type field (e.g., ICMP type field).">
<polygon fill="#284f9f" stroke="#284f9f" points="9,-63 9,-83 212,-83 212,-63 9,-63"/>
<polygon fill="none" stroke="black" points="9,-63 9,-83 212,-83 212,-63 9,-63"/>
<text text-anchor="start" x="29.5" y="-69.7333" font-family="Times Roman,serif" font-size="14.00">[INTEGER] ProtoType (0..1)</text>
</a>
<a xlink:href="/help/iodefnav?iodef_class=Service" xlink:title="A port number.">
<polygon fill="#284f9f" stroke="#284f9f" points="9,-43 9,-63 212,-63 212,-43 9,-43"/>
<polygon fill="none" stroke="black" points="9,-43 9,-63 212,-63 212,-43 9,-43"/>
<text text-anchor="start" x="47" y="-49.7333" font-family="Times Roman,serif" font-size="14.00">[INTEGER] Port (0..1)</text>
</a>
<a xlink:href="/help/iodefnav?iodef_class=Service" xlink:title="The IANA protocol number.">
<polygon fill="#284f9f" stroke="#284f9f" points="9,-23 9,-43 212,-43 212,-23 9,-23"/>
<polygon fill="none" stroke="black" points="9,-23 9,-43 212,-43 212,-23 9,-23"/>
<text text-anchor="start" x="12.5" y="-29.7333" font-family="Times Roman,serif" font-size="14.00">[INTEGER] ip_protocol (Required)</text>
</a>
</g>
<!-- Service&#45;&#45;Application -->
<g id="edge2" class="edge"><title>Service&#45;&#45;Application</title>
<path fill="none" stroke="black" d="M219.631,-94C235.471,-94 251.747,-94 267.503,-94"/>
<polygon fill="black" stroke="black" points="267.773,-97.5001 277.773,-94 267.773,-90.5001 267.773,-97.5001"/>
<text text-anchor="middle" x="249" y="-100.4" font-family="Times Roman,serif" font-size="14.00">0..*</text>
</g>
</g>
</svg>
