<?xml version="1.0" encoding="UTF-8" standalone="no"?>
<!DOCTYPE svg PUBLIC "-//W3C//DTD SVG 1.1//EN"
 "http://www.w3.org/Graphics/SVG/1.1/DTD/svg11.dtd">
<!-- Generated by graphviz version 2.26.0 (20091210.2329)
 -->
<!-- Title: _anonymous_0 Pages: 1 -->
<svg width="772pt" height="818pt"
 viewBox="0.00 0.00 772.00 818.00" xmlns="http://www.w3.org/2000/svg" xmlns:xlink="http://www.w3.org/1999/xlink">
<g id="graph1" class="graph" transform="scale(1 1) rotate(0) translate(4 814)">
<title>_anonymous_0</title>
<polygon fill="white" stroke="white" points="-4,5 -4,-814 769,-814 769,5 -4,5"/>
<!-- NodeRole -->
<g id="node1" class="node"><title>NodeRole</title>
<a xlink:href="/help/iodefnav?iodef_class=NodeRole" xlink:title="The NodeRole class describes the intended function performed by a particular host. ">
<polygon fill="#182f5f" stroke="#182f5f" points="559,-785 559,-806 756,-806 756,-785 559,-785"/>
<polygon fill="none" stroke="black" points="559,-785 559,-806 756,-806 756,-785 559,-785"/>
<text text-anchor="start" x="630" y="-792.233" font-family="Times Roman,serif" font-size="14.00">NodeRole</text>
</a>
<a xlink:href="/help/iodefnav?iodef_class=NodeRole" xlink:title="Functionality provided by a node.">
<polygon fill="#284f9f" stroke="#284f9f" points="559,-765 559,-785 756,-785 756,-765 559,-765"/>
<polygon fill="none" stroke="black" points="559,-765 559,-785 756,-785 756,-765 559,-765"/>
<text text-anchor="start" x="576" y="-771.733" font-family="Times Roman,serif" font-size="14.00">[ENUM] category (Required)</text>
</a>
<a xlink:href="/help/iodefnav?iodef_class=NodeRole" xlink:title="A valid language code per RFC 4646 [7] constrained by the definition of &quot;xs:language&quot;. &#160;The interpretation of this code is described in Section 6.">
<polygon fill="#284f9f" stroke="#284f9f" points="559,-745 559,-765 756,-765 756,-745 559,-745"/>
<polygon fill="none" stroke="black" points="559,-745 559,-765 756,-765 756,-745 559,-745"/>
<text text-anchor="start" x="588" y="-751.733" font-family="Times Roman,serif" font-size="14.00">[ENUM] lang (Required)</text>
</a>
<a xlink:href="/help/iodefnav?iodef_class=NodeRole" xlink:title="A means by which to extend the category attribute. &#160;See Section 5.1.">
<polygon fill="#284f9f" stroke="#284f9f" points="559,-725 559,-745 756,-745 756,-725 559,-725"/>
<polygon fill="none" stroke="black" points="559,-725 559,-745 756,-745 756,-725 559,-725"/>
<text text-anchor="start" x="562.5" y="-731.733" font-family="Times Roman,serif" font-size="14.00">[STRING] ext&#45;category (Optional)</text>
</a>
</g>
<!-- Node -->
<g id="node2" class="node"><title>Node</title>
<a xlink:href="/help/iodefnav?iodef_class=Node" xlink:title="The Node class names a system (e.g., PC, router) or network. ">
<polygon fill="#182f5f" stroke="#182f5f" points="286,-658 286,-679 479,-679 479,-658 286,-658"/>
<polygon fill="none" stroke="black" points="286,-658 286,-679 479,-679 479,-658 286,-658"/>
<text text-anchor="start" x="367.5" y="-665.233" font-family="Times Roman,serif" font-size="14.00">Node</text>
</a>
<a xlink:href="/help/iodefnav?iodef_class=Node" xlink:title="A free&#45;from description of the physical location of the equipment.">
<polygon fill="#284f9f" stroke="#284f9f" points="286,-638 286,-658 479,-658 479,-638 286,-638"/>
<polygon fill="none" stroke="black" points="286,-638 286,-658 479,-658 479,-638 286,-638"/>
<text text-anchor="start" x="296.5" y="-644.733" font-family="Times Roman,serif" font-size="14.00">[ML_STRING] Location (0..1)</text>
</a>
<a xlink:href="/help/iodefnav?iodef_class=Node" xlink:title="The name of the Node (e.g., fully qualified domain name). &#160;This information MUST be provided if no Address information is given.">
<polygon fill="#284f9f" stroke="#284f9f" points="286,-618 286,-638 479,-638 479,-618 286,-618"/>
<polygon fill="none" stroke="black" points="286,-618 286,-638 479,-638 479,-618 286,-618"/>
<text text-anchor="start" x="289.5" y="-624.733" font-family="Times Roman,serif" font-size="14.00">[ML_STRING] NodeName (0..*)</text>
</a>
<a xlink:href="/help/iodefnav?iodef_class=Node" xlink:title="A timestamp of when the resolution between the name and address was performed. &#160;This information SHOULD be provided if both an Address and NodeName are specified.">
<polygon fill="#284f9f" stroke="#284f9f" points="286,-598 286,-618 479,-618 479,-598 286,-598"/>
<polygon fill="none" stroke="black" points="286,-598 286,-618 479,-618 479,-598 286,-598"/>
<text text-anchor="start" x="317" y="-604.733" font-family="Times Roman,serif" font-size="14.00">[None] DateTime (0..1)</text>
</a>
</g>
<!-- Node&#45;&#45;NodeRole -->
<g id="edge2" class="edge"><title>Node&#45;&#45;NodeRole</title>
<path fill="none" stroke="black" d="M477.41,-683.062C501.482,-694.179 527.46,-706.176 551.976,-717.498"/>
<polygon fill="black" stroke="black" points="550.747,-720.786 561.293,-721.801 553.682,-714.431 550.747,-720.786"/>
<text text-anchor="middle" x="521" y="-712.4" font-family="Times Roman,serif" font-size="14.00">0..*</text>
</g>
<!-- Address -->
<g id="node4" class="node"><title>Address</title>
<a xlink:href="/help/iodefnav?iodef_class=Address" xlink:title="The Address class represents a hardware (layer&#45;2), network (layer&#45;3), or application (layer&#45;7) address. ">
<polygon fill="#182f5f" stroke="#182f5f" points="559,-679 559,-700 756,-700 756,-679 559,-679"/>
<polygon fill="none" stroke="black" points="559,-679 559,-700 756,-700 756,-679 559,-679"/>
<text text-anchor="start" x="635" y="-686.233" font-family="Times Roman,serif" font-size="14.00">Address</text>
</a>
<a xlink:href="/help/iodefnav?iodef_class=Address" xlink:title="The type of address represented. &#160;The permitted values for this attribute are shown below. &#160;The default value is &quot;ipv4&#45;addr&quot;.">
<polygon fill="#284f9f" stroke="#284f9f" points="559,-659 559,-679 756,-679 756,-659 559,-659"/>
<polygon fill="none" stroke="black" points="559,-659 559,-679 756,-679 756,-659 559,-659"/>
<text text-anchor="start" x="576" y="-665.733" font-family="Times Roman,serif" font-size="14.00">[ENUM] category (Required)</text>
</a>
<a xlink:href="/help/iodefnav?iodef_class=Address" xlink:title="The name of the Virtual LAN to which the address belongs.">
<polygon fill="#284f9f" stroke="#284f9f" points="559,-639 559,-659 756,-659 756,-639 559,-639"/>
<polygon fill="none" stroke="black" points="559,-639 559,-659 756,-659 756,-639 559,-639"/>
<text text-anchor="start" x="567.5" y="-645.733" font-family="Times Roman,serif" font-size="14.00">[STRING] vlan&#45;name (Optional)</text>
</a>
<a xlink:href="/help/iodefnav?iodef_class=Address" xlink:title="A means by which to extend the category attribute. &#160;See Section 5.1.">
<polygon fill="#284f9f" stroke="#284f9f" points="559,-619 559,-639 756,-639 756,-619 559,-619"/>
<polygon fill="none" stroke="black" points="559,-619 559,-639 756,-639 756,-619 559,-619"/>
<text text-anchor="start" x="562.5" y="-625.733" font-family="Times Roman,serif" font-size="14.00">[STRING] ext&#45;category (Optional)</text>
</a>
<a xlink:href="/help/iodefnav?iodef_class=Address" xlink:title="The number of the Virtual LAN to which the address belongs.">
<polygon fill="#284f9f" stroke="#284f9f" points="559,-599 559,-619 756,-619 756,-599 559,-599"/>
<polygon fill="none" stroke="black" points="559,-599 559,-619 756,-619 756,-599 559,-599"/>
<text text-anchor="start" x="570" y="-605.733" font-family="Times Roman,serif" font-size="14.00">[STRING] vlan&#45;num (Optional)</text>
</a>
</g>
<!-- Node&#45;&#45;Address -->
<g id="edge4" class="edge"><title>Node&#45;&#45;Address</title>
<path fill="none" stroke="black" d="M486.75,-643.19C504.133,-643.885 522.258,-644.61 539.923,-645.317"/>
<polygon fill="black" stroke="black" points="540.129,-648.828 550.261,-645.73 540.409,-641.833 540.129,-648.828"/>
<text text-anchor="middle" x="521" y="-650.4" font-family="Times Roman,serif" font-size="14.00">0..*</text>
</g>
<!-- Counter -->
<g id="node6" class="node"><title>Counter</title>
<a xlink:href="/help/iodefnav?iodef_class=Counter" xlink:title="The Counter class summarize multiple occurrences of some event, or conveys counts or rates on various features (e.g., packets, sessions, events). ">
<polygon fill="#993015" stroke="#993015" points="560,-553 560,-574 755,-574 755,-553 560,-553"/>
<polygon fill="none" stroke="black" points="560,-553 560,-574 755,-574 755,-553 560,-553"/>
<text text-anchor="start" x="635.5" y="-560.233" font-family="Times Roman,serif" font-size="14.00">Counter</text>
</a>
<a xlink:href="/help/iodefnav?iodef_class=Counter" xlink:title="If present, the Counter class represents a rate rather than a count over the entire event. &#160;In that case, this attribute specifies the denominator of the rate (where the type attribute specified the nominator). &#160;The possible values of this attribute are defined in Section 3.10.2">
<polygon fill="#ff5024" stroke="#ff5024" points="560,-533 560,-553 755,-553 755,-533 560,-533"/>
<polygon fill="none" stroke="black" points="560,-533 560,-553 755,-553 755,-533 560,-533"/>
<text text-anchor="start" x="578" y="-539.733" font-family="Times Roman,serif" font-size="14.00">[ENUM] duration (Optional)</text>
</a>
<a xlink:href="/help/iodefnav?iodef_class=Counter" xlink:title="Specifies the units of the element content.">
<polygon fill="#ff5024" stroke="#ff5024" points="560,-513 560,-533 755,-533 755,-513 560,-513"/>
<polygon fill="none" stroke="black" points="560,-513 560,-533 755,-533 755,-513 560,-513"/>
<text text-anchor="start" x="588" y="-519.733" font-family="Times Roman,serif" font-size="14.00">[ENUM] type (Required)</text>
</a>
<a xlink:href="/help/iodefnav?iodef_class=Counter" xlink:title="A means by which to extend the type attribute. See Section 5.1.">
<polygon fill="#ff5024" stroke="#ff5024" points="560,-493 560,-513 755,-513 755,-493 560,-493"/>
<polygon fill="none" stroke="black" points="560,-493 560,-513 755,-513 755,-493 560,-493"/>
<text text-anchor="start" x="574.5" y="-499.733" font-family="Times Roman,serif" font-size="14.00">[STRING] ext&#45;type (Optional)</text>
</a>
<a xlink:href="/help/iodefnav?iodef_class=Counter" xlink:title="A means by which to extend the duration attribute. &#160;See Section 5.1.">
<polygon fill="#ff5024" stroke="#ff5024" points="560,-473 560,-493 755,-493 755,-473 560,-473"/>
<polygon fill="none" stroke="black" points="560,-473 560,-493 755,-493 755,-473 560,-473"/>
<text text-anchor="start" x="563.5" y="-479.733" font-family="Times Roman,serif" font-size="14.00">[STRING] ext&#45;duration (Optional)</text>
</a>
</g>
<!-- Node&#45;&#45;Counter -->
<g id="edge6" class="edge"><title>Node&#45;&#45;Counter</title>
<path fill="none" stroke="black" d="M486.75,-595.195C504.717,-587.682 523.475,-579.838 541.7,-572.216"/>
<polygon fill="black" stroke="black" points="543.299,-575.342 551.174,-568.254 540.598,-568.884 543.299,-575.342"/>
<text text-anchor="middle" x="521" y="-590.4" font-family="Times Roman,serif" font-size="14.00">0..*</text>
</g>
<!-- System -->
<g id="node8" class="node"><title>System</title>
<a xlink:href="/help/iodefnav?iodef_class=System" xlink:title="The System class describes a system or network involved in an event. The systems or networks represented by this class are categorized according to the role they played in the incident through the category attribute. &#160;The value of this category attribute dictates the semantics of the aggregated classes in the System class. &#160;If the category attribute has a value of &quot;source&quot;, then the aggregated classes denote the machine and service from which the activity is originating. &#160;With a category attribute value of &quot;target&quot; or &quot;intermediary&quot;, then the machine or service is the one targeted in the activity. &#160;A value of &quot;sensor&quot; dictates that this System was part of an instrumentation to monitor the network. ">
<polygon fill="#182f5f" stroke="#182f5f" points="9,-485 9,-506 206,-506 206,-485 9,-485"/>
<polygon fill="none" stroke="black" points="9,-485 9,-506 206,-506 206,-485 9,-485"/>
<text text-anchor="start" x="87" y="-492.233" font-family="Times Roman,serif" font-size="14.00">System</text>
</a>
<a xlink:href="/help/iodefnav?iodef_class=System" xlink:title="A free&#45;form text description of the System.">
<polygon fill="#284f9f" stroke="#284f9f" points="9,-465 9,-485 206,-485 206,-465 9,-465"/>
<polygon fill="none" stroke="black" points="9,-465 9,-485 206,-485 206,-465 9,-465"/>
<text text-anchor="start" x="14" y="-471.733" font-family="Times Roman,serif" font-size="14.00">[ML_STRING] Description (0..*)</text>
</a>
<a xlink:href="/help/iodefnav?iodef_class=System" xlink:title="Classifies the role the host or network played in the incident. &#160;The possible values are:">
<polygon fill="#284f9f" stroke="#284f9f" points="9,-445 9,-465 206,-465 206,-445 9,-445"/>
<polygon fill="none" stroke="black" points="9,-445 9,-465 206,-465 206,-445 9,-445"/>
<text text-anchor="start" x="26" y="-451.733" font-family="Times Roman,serif" font-size="14.00">[ENUM] category (Required)</text>
</a>
<a xlink:href="/help/iodefnav?iodef_class=System" xlink:title="This attribute is defined in Section 3.2.">
<polygon fill="#284f9f" stroke="#284f9f" points="9,-425 9,-445 206,-445 206,-425 9,-425"/>
<polygon fill="none" stroke="black" points="9,-425 9,-445 206,-445 206,-425 9,-425"/>
<text text-anchor="start" x="23" y="-431.733" font-family="Times Roman,serif" font-size="14.00">[ENUM] restriction (Optional)</text>
</a>
<a xlink:href="/help/iodefnav?iodef_class=System" xlink:title="A means by which to extend the category attribute. &#160;See Section 5.1.">
<polygon fill="#284f9f" stroke="#284f9f" points="9,-405 9,-425 206,-425 206,-405 9,-405"/>
<polygon fill="none" stroke="black" points="9,-405 9,-425 206,-425 206,-405 9,-405"/>
<text text-anchor="start" x="12.5" y="-411.733" font-family="Times Roman,serif" font-size="14.00">[STRING] ext&#45;category (Optional)</text>
</a>
<a xlink:href="/help/iodefnav?iodef_class=System" xlink:title="An indication of confidence in whether this System was the true target or attacking host. &#160;The permitted values for this attribute are shown below. &#160;The default value is &quot;unknown&quot;.">
<polygon fill="#284f9f" stroke="#284f9f" points="9,-385 9,-405 206,-405 206,-385 9,-385"/>
<polygon fill="none" stroke="black" points="9,-385 9,-405 206,-405 206,-385 9,-385"/>
<text text-anchor="start" x="29" y="-391.733" font-family="Times Roman,serif" font-size="14.00">[ENUM] spoofed (Optional)</text>
</a>
<a xlink:href="/help/iodefnav?iodef_class=System" xlink:title="Specifies the interface on which the event(s) on this System originated. &#160;If the Node class specifies a network rather than a host, this attribute has no meaning.">
<polygon fill="#284f9f" stroke="#284f9f" points="9,-365 9,-385 206,-385 206,-365 9,-365"/>
<polygon fill="none" stroke="black" points="9,-365 9,-385 206,-385 206,-365 9,-365"/>
<text text-anchor="start" x="23" y="-371.733" font-family="Times Roman,serif" font-size="14.00">[STRING] interface (Optional)</text>
</a>
</g>
<!-- System&#45;&#45;Node -->
<g id="edge8" class="edge"><title>System&#45;&#45;Node</title>
<path fill="none" stroke="black" d="M183.245,-510.012C198.886,-523.897 215.596,-537.851 232,-550 250.737,-563.877 271.773,-577.457 292.03,-589.665"/>
<polygon fill="black" stroke="black" points="290.273,-592.692 300.655,-594.809 293.859,-586.681 290.273,-592.692"/>
<text text-anchor="middle" x="243" y="-569.4" font-family="Times Roman,serif" font-size="14.00">1..1</text>
</g>
<!-- System&#45;&#45;Counter -->
<g id="edge16" class="edge"><title>System&#45;&#45;Counter</title>
<path fill="none" stroke="black" d="M213.711,-490.136C232.706,-497.755 252.623,-504.509 272,-509 360.713,-529.56 463.95,-532.495 541.176,-530.736"/>
<polygon fill="black" stroke="black" points="541.511,-534.229 551.417,-530.472 541.33,-527.231 541.511,-534.229"/>
<text text-anchor="middle" x="382" y="-537.4" font-family="Times Roman,serif" font-size="14.00">0..*</text>
</g>
<!-- AdditionalData -->
<g id="node10" class="node"><title>AdditionalData</title>
<a xlink:href="/help/iodefnav?iodef_class=AdditionalData" xlink:title="The AdditionalData class serves as an extension mechanism for information not otherwise represented in the data model. &#160;For relatively simple information, atomic data types (e.g., integers, strings) are provided with a mechanism to annotate their meaning. The class can also be used to extend the data model (and the associated Schema) to support proprietary extensions by encapsulating entire XML documents conforming to another Schema (e.g., IDMEF). &#160;A detailed discussion for extending the data model and the schema can be found in Section 5. ">
<polygon fill="#997a3d" stroke="#997a3d" points="292,-475 292,-496 472,-496 472,-475 292,-475"/>
<polygon fill="none" stroke="black" points="292,-475 292,-496 472,-496 472,-475 292,-475"/>
<text text-anchor="start" x="340" y="-482.233" font-family="Times Roman,serif" font-size="14.00">AdditionalData</text>
</a>
<a xlink:href="/help/iodefnav?iodef_class=AdditionalData" xlink:title="The data type of the element content. &#160;The permitted values for this attribute are shown below. &#160;The default value is &quot;string&quot;.">
<polygon fill="#ffcc66" stroke="#ffcc66" points="292,-455 292,-475 472,-475 472,-455 292,-455"/>
<polygon fill="none" stroke="black" points="292,-455 292,-475 472,-475 472,-455 292,-455"/>
<text text-anchor="start" x="309" y="-461.733" font-family="Times Roman,serif" font-size="14.00">[ENUM] dtype (Required)</text>
</a>
<a xlink:href="/help/iodefnav?iodef_class=AdditionalData" xlink:title="A free&#45;form description of the element content.">
<polygon fill="#ffcc66" stroke="#ffcc66" points="292,-435 292,-455 472,-455 472,-435 292,-435"/>
<polygon fill="none" stroke="black" points="292,-435 292,-455 472,-455 472,-435 292,-435"/>
<text text-anchor="start" x="297.5" y="-441.733" font-family="Times Roman,serif" font-size="14.00">[STRING] meaning (Optional)</text>
</a>
<a xlink:href="/help/iodefnav?iodef_class=AdditionalData" xlink:title="A means by which to extend the dtype attribute. &#160;See Section 5.1.">
<polygon fill="#ffcc66" stroke="#ffcc66" points="292,-415 292,-435 472,-435 472,-415 292,-415"/>
<polygon fill="none" stroke="black" points="292,-415 292,-435 472,-435 472,-415 292,-415"/>
<text text-anchor="start" x="295.5" y="-421.733" font-family="Times Roman,serif" font-size="14.00">[STRING] ext&#45;dtype (Optional)</text>
</a>
<a xlink:href="/help/iodefnav?iodef_class=AdditionalData" xlink:title="An identifier referencing the format and semantics of the element content.">
<polygon fill="#ffcc66" stroke="#ffcc66" points="292,-395 292,-415 472,-415 472,-395 292,-395"/>
<polygon fill="none" stroke="black" points="292,-395 292,-415 472,-415 472,-395 292,-395"/>
<text text-anchor="start" x="297.5" y="-401.733" font-family="Times Roman,serif" font-size="14.00">[STRING] formatid (Optional)</text>
</a>
<a xlink:href="/help/iodefnav?iodef_class=AdditionalData" xlink:title="This attribute has been defined in Section 3.2.">
<polygon fill="#ffcc66" stroke="#ffcc66" points="292,-375 292,-395 472,-395 472,-375 292,-375"/>
<polygon fill="none" stroke="black" points="292,-375 292,-395 472,-395 472,-375 292,-375"/>
<text text-anchor="start" x="297.5" y="-381.733" font-family="Times Roman,serif" font-size="14.00">[ENUM] restriction (Optional)</text>
</a>
</g>
<!-- System&#45;&#45;AdditionalData -->
<g id="edge10" class="edge"><title>System&#45;&#45;AdditionalData</title>
<path fill="none" stroke="black" d="M213.716,-436C233.387,-436 253.943,-436 273.661,-436"/>
<polygon fill="black" stroke="black" points="273.887,-439.5 283.887,-436 273.887,-432.5 273.887,-439.5"/>
<text text-anchor="middle" x="243" y="-442.4" font-family="Times Roman,serif" font-size="14.00">0..*</text>
</g>
<!-- Service -->
<g id="node13" class="node"><title>Service</title>
<a xlink:href="/help/iodefnav?iodef_class=Service" xlink:title="The Service class describes a network service of a host or network. The service is identified by specific port or list of ports, along with the application listening on that port. ">
<polygon fill="#182f5f" stroke="#182f5f" points="281,-329 281,-350 484,-350 484,-329 281,-329"/>
<polygon fill="none" stroke="black" points="281,-329 281,-350 484,-350 484,-329 281,-329"/>
<text text-anchor="start" x="362" y="-336.233" font-family="Times Roman,serif" font-size="14.00">Service</text>
</a>
<a xlink:href="/help/iodefnav?iodef_class=Service" xlink:title="A layer&#45;4 protocol&#45;specific code field (e.g., ICMP code field).">
<polygon fill="#284f9f" stroke="#284f9f" points="281,-309 281,-329 484,-329 484,-309 281,-309"/>
<polygon fill="none" stroke="black" points="281,-309 281,-329 484,-329 484,-309 281,-309"/>
<text text-anchor="start" x="301" y="-315.733" font-family="Times Roman,serif" font-size="14.00">[INTEGER] ProtoCode (0..1)</text>
</a>
<a xlink:href="/help/iodefnav?iodef_class=Service" xlink:title="A layer&#45;4 protocol specific flag field (e.g., TCP flag field).">
<polygon fill="#284f9f" stroke="#284f9f" points="281,-289 281,-309 484,-309 484,-289 281,-289"/>
<polygon fill="none" stroke="black" points="281,-289 281,-309 484,-309 484,-289 281,-289"/>
<text text-anchor="start" x="301" y="-295.733" font-family="Times Roman,serif" font-size="14.00">[INTEGER] ProtoFlags (0..1)</text>
</a>
<a xlink:href="/help/iodefnav?iodef_class=Service" xlink:title="A list of port numbers formatted according to Section 2.10.">
<polygon fill="#284f9f" stroke="#284f9f" points="281,-269 281,-289 484,-289 484,-269 281,-269"/>
<polygon fill="none" stroke="black" points="281,-269 281,-289 484,-289 484,-269 281,-269"/>
<text text-anchor="start" x="308" y="-275.733" font-family="Times Roman,serif" font-size="14.00">[PORTLIST] Portlist (0..1)</text>
</a>
<a xlink:href="/help/iodefnav?iodef_class=Service" xlink:title="A layer&#45;4 protocol specific type field (e.g., ICMP type field).">
<polygon fill="#284f9f" stroke="#284f9f" points="281,-249 281,-269 484,-269 484,-249 281,-249"/>
<polygon fill="none" stroke="black" points="281,-249 281,-269 484,-269 484,-249 281,-249"/>
<text text-anchor="start" x="301.5" y="-255.733" font-family="Times Roman,serif" font-size="14.00">[INTEGER] ProtoType (0..1)</text>
</a>
<a xlink:href="/help/iodefnav?iodef_class=Service" xlink:title="A port number.">
<polygon fill="#284f9f" stroke="#284f9f" points="281,-229 281,-249 484,-249 484,-229 281,-229"/>
<polygon fill="none" stroke="black" points="281,-229 281,-249 484,-249 484,-229 281,-229"/>
<text text-anchor="start" x="319" y="-235.733" font-family="Times Roman,serif" font-size="14.00">[INTEGER] Port (0..1)</text>
</a>
<a xlink:href="/help/iodefnav?iodef_class=Service" xlink:title="The IANA protocol number.">
<polygon fill="#284f9f" stroke="#284f9f" points="281,-209 281,-229 484,-229 484,-209 281,-209"/>
<polygon fill="none" stroke="black" points="281,-209 281,-229 484,-229 484,-209 281,-209"/>
<text text-anchor="start" x="284.5" y="-215.733" font-family="Times Roman,serif" font-size="14.00">[INTEGER] ip_protocol (Required)</text>
</a>
</g>
<!-- System&#45;&#45;Service -->
<g id="edge14" class="edge"><title>System&#45;&#45;Service</title>
<path fill="none" stroke="black" d="M213.716,-375.463C229.894,-366.286 246.672,-356.768 263.089,-347.455"/>
<polygon fill="black" stroke="black" points="265.196,-350.284 272.167,-342.306 261.742,-344.195 265.196,-350.284"/>
<text text-anchor="middle" x="243" y="-368.4" font-family="Times Roman,serif" font-size="14.00">0..*</text>
</g>
<!-- OperatingSystem -->
<g id="node17" class="node"><title>OperatingSystem</title>
<a xlink:href="/help/iodefnav?iodef_class=OperatingSystem" xlink:title="The OperatingSystem class describes the operating system running on a System. &#160;The definition is identical to the Application class (Section 3.17.1). ">
<polygon fill="#182f5f" stroke="#182f5f" points="295,-163 295,-184 469,-184 469,-163 295,-163"/>
<polygon fill="none" stroke="black" points="295,-163 295,-184 469,-184 469,-163 295,-163"/>
<text text-anchor="start" x="334.5" y="-170.233" font-family="Times Roman,serif" font-size="14.00">OperatingSystem</text>
</a>
<a xlink:href="/help/iodefnav?iodef_class=OperatingSystem" xlink:title="A URL describing the application.">
<polygon fill="#284f9f" stroke="#284f9f" points="295,-143 295,-163 469,-163 469,-143 295,-143"/>
<polygon fill="none" stroke="black" points="295,-143 295,-163 469,-163 469,-143 295,-143"/>
<text text-anchor="start" x="331.5" y="-149.733" font-family="Times Roman,serif" font-size="14.00">[URL] URL (0..1)</text>
</a>
<a xlink:href="/help/iodefnav?iodef_class=OperatingSystem" xlink:title="Version of the software.">
<polygon fill="#284f9f" stroke="#284f9f" points="295,-123 295,-143 469,-143 469,-123 295,-123"/>
<polygon fill="none" stroke="black" points="295,-123 295,-143 469,-143 469,-123 295,-123"/>
<text text-anchor="start" x="301" y="-129.733" font-family="Times Roman,serif" font-size="14.00">[STRING] version (Optional)</text>
</a>
<a xlink:href="/help/iodefnav?iodef_class=OperatingSystem" xlink:title="Vendor name of the software.">
<polygon fill="#284f9f" stroke="#284f9f" points="295,-103 295,-123 469,-123 469,-103 295,-103"/>
<polygon fill="none" stroke="black" points="295,-103 295,-123 469,-123 469,-103 295,-103"/>
<text text-anchor="start" x="302" y="-109.733" font-family="Times Roman,serif" font-size="14.00">[STRING] vendor (Optional)</text>
</a>
<a xlink:href="/help/iodefnav?iodef_class=OperatingSystem" xlink:title="Name of the software.">
<polygon fill="#284f9f" stroke="#284f9f" points="295,-83 295,-103 469,-103 469,-83 295,-83"/>
<polygon fill="none" stroke="black" points="295,-83 295,-103 469,-103 469,-83 295,-83"/>
<text text-anchor="start" x="306" y="-89.7333" font-family="Times Roman,serif" font-size="14.00">[STRING] name (Optional)</text>
</a>
<a xlink:href="/help/iodefnav?iodef_class=OperatingSystem" xlink:title="Family of the software.">
<polygon fill="#284f9f" stroke="#284f9f" points="295,-63 295,-83 469,-83 469,-63 295,-63"/>
<polygon fill="none" stroke="black" points="295,-63 295,-83 469,-83 469,-63 295,-63"/>
<text text-anchor="start" x="303" y="-69.7333" font-family="Times Roman,serif" font-size="14.00">[STRING] family (Optional)</text>
</a>
<a xlink:href="/help/iodefnav?iodef_class=OperatingSystem" xlink:title="An identifier that can be used to reference a particular configuration of this software.">
<polygon fill="#284f9f" stroke="#284f9f" points="295,-43 295,-63 469,-63 469,-43 295,-43"/>
<polygon fill="none" stroke="black" points="295,-43 295,-63 469,-63 469,-43 295,-43"/>
<text text-anchor="start" x="298.5" y="-49.7333" font-family="Times Roman,serif" font-size="14.00">[STRING] configid (Optional)</text>
</a>
<a xlink:href="/help/iodefnav?iodef_class=OperatingSystem" xlink:title="An identifier that can be used to reference this software.">
<polygon fill="#284f9f" stroke="#284f9f" points="295,-23 295,-43 469,-43 469,-23 295,-23"/>
<polygon fill="none" stroke="black" points="295,-23 295,-43 469,-43 469,-23 295,-23"/>
<text text-anchor="start" x="308" y="-29.7333" font-family="Times Roman,serif" font-size="14.00">[STRING] swid (Optional)</text>
</a>
<a xlink:href="/help/iodefnav?iodef_class=OperatingSystem" xlink:title="Patch or service pack level of the software.">
<polygon fill="#284f9f" stroke="#284f9f" points="295,-3 295,-23 469,-23 469,-3 295,-3"/>
<polygon fill="none" stroke="black" points="295,-3 295,-23 469,-23 469,-3 295,-3"/>
<text text-anchor="start" x="306.5" y="-9.73333" font-family="Times Roman,serif" font-size="14.00">[STRING] patch (Optional)</text>
</a>
</g>
<!-- System&#45;&#45;OperatingSystem -->
<g id="edge18" class="edge"><title>System&#45;&#45;OperatingSystem</title>
<path fill="none" stroke="black" d="M152.269,-361.931C183.468,-313.152 227.238,-248.947 272,-197 274.568,-194.019 277.215,-191.033 279.921,-188.053"/>
<polygon fill="black" stroke="black" points="282.537,-190.38 286.76,-180.663 277.399,-185.625 282.537,-190.38"/>
<text text-anchor="middle" x="243" y="-253.4" font-family="Times Roman,serif" font-size="14.00">0..1</text>
</g>
<!-- Application -->
<g id="node12" class="node"><title>Application</title>
<a xlink:href="/help/iodefnav?iodef_class=Application" xlink:title="The Application class describes an application running on a System providing a Service. ">
<polygon fill="#182f5f" stroke="#182f5f" points="570,-349 570,-370 744,-370 744,-349 570,-349"/>
<polygon fill="none" stroke="black" points="570,-349 570,-370 744,-370 744,-349 570,-349"/>
<text text-anchor="start" x="625" y="-356.233" font-family="Times Roman,serif" font-size="14.00">Application</text>
</a>
<a xlink:href="/help/iodefnav?iodef_class=Application" xlink:title="A URL describing the application.">
<polygon fill="#284f9f" stroke="#284f9f" points="570,-329 570,-349 744,-349 744,-329 570,-329"/>
<polygon fill="none" stroke="black" points="570,-329 570,-349 744,-349 744,-329 570,-329"/>
<text text-anchor="start" x="606.5" y="-335.733" font-family="Times Roman,serif" font-size="14.00">[URL] URL (0..1)</text>
</a>
<a xlink:href="/help/iodefnav?iodef_class=Application" xlink:title="Version of the software.">
<polygon fill="#284f9f" stroke="#284f9f" points="570,-309 570,-329 744,-329 744,-309 570,-309"/>
<polygon fill="none" stroke="black" points="570,-309 570,-329 744,-329 744,-309 570,-309"/>
<text text-anchor="start" x="576" y="-315.733" font-family="Times Roman,serif" font-size="14.00">[STRING] version (Optional)</text>
</a>
<a xlink:href="/help/iodefnav?iodef_class=Application" xlink:title="Vendor name of the software.">
<polygon fill="#284f9f" stroke="#284f9f" points="570,-289 570,-309 744,-309 744,-289 570,-289"/>
<polygon fill="none" stroke="black" points="570,-289 570,-309 744,-309 744,-289 570,-289"/>
<text text-anchor="start" x="577" y="-295.733" font-family="Times Roman,serif" font-size="14.00">[STRING] vendor (Optional)</text>
</a>
<a xlink:href="/help/iodefnav?iodef_class=Application" xlink:title="Name of the software.">
<polygon fill="#284f9f" stroke="#284f9f" points="570,-269 570,-289 744,-289 744,-269 570,-269"/>
<polygon fill="none" stroke="black" points="570,-269 570,-289 744,-289 744,-269 570,-269"/>
<text text-anchor="start" x="581" y="-275.733" font-family="Times Roman,serif" font-size="14.00">[STRING] name (Optional)</text>
</a>
<a xlink:href="/help/iodefnav?iodef_class=Application" xlink:title="Family of the software.">
<polygon fill="#284f9f" stroke="#284f9f" points="570,-249 570,-269 744,-269 744,-249 570,-249"/>
<polygon fill="none" stroke="black" points="570,-249 570,-269 744,-269 744,-249 570,-249"/>
<text text-anchor="start" x="578" y="-255.733" font-family="Times Roman,serif" font-size="14.00">[STRING] family (Optional)</text>
</a>
<a xlink:href="/help/iodefnav?iodef_class=Application" xlink:title="An identifier that can be used to reference a particular configuration of this software.">
<polygon fill="#284f9f" stroke="#284f9f" points="570,-229 570,-249 744,-249 744,-229 570,-229"/>
<polygon fill="none" stroke="black" points="570,-229 570,-249 744,-249 744,-229 570,-229"/>
<text text-anchor="start" x="573.5" y="-235.733" font-family="Times Roman,serif" font-size="14.00">[STRING] configid (Optional)</text>
</a>
<a xlink:href="/help/iodefnav?iodef_class=Application" xlink:title="An identifier that can be used to reference this software.">
<polygon fill="#284f9f" stroke="#284f9f" points="570,-209 570,-229 744,-229 744,-209 570,-209"/>
<polygon fill="none" stroke="black" points="570,-209 570,-229 744,-229 744,-209 570,-209"/>
<text text-anchor="start" x="583" y="-215.733" font-family="Times Roman,serif" font-size="14.00">[STRING] swid (Optional)</text>
</a>
<a xlink:href="/help/iodefnav?iodef_class=Application" xlink:title="Patch or service pack level of the software.">
<polygon fill="#284f9f" stroke="#284f9f" points="570,-189 570,-209 744,-209 744,-189 570,-189"/>
<polygon fill="none" stroke="black" points="570,-189 570,-209 744,-209 744,-189 570,-189"/>
<text text-anchor="start" x="581.5" y="-195.733" font-family="Times Roman,serif" font-size="14.00">[STRING] patch (Optional)</text>
</a>
</g>
<!-- Service&#45;&#45;Application -->
<g id="edge12" class="edge"><title>Service&#45;&#45;Application</title>
<path fill="none" stroke="black" d="M491.873,-280C511.62,-280 532.159,-280 551.771,-280"/>
<polygon fill="black" stroke="black" points="551.933,-283.5 561.933,-280 551.933,-276.5 551.933,-283.5"/>
<text text-anchor="middle" x="521" y="-286.4" font-family="Times Roman,serif" font-size="14.00">0..*</text>
</g>
</g>
</svg>
